%TF.GenerationSoftware,KiCad,Pcbnew,9.0.3*%
%TF.CreationDate,2025-08-17T12:13:03+02:00*%
%TF.ProjectId,Esp32_F103_PowerMeter_V1.0,45737033-325f-4463-9130-335f506f7765,rev?*%
%TF.SameCoordinates,Original*%
%TF.FileFunction,Legend,Top*%
%TF.FilePolarity,Positive*%
%FSLAX46Y46*%
G04 Gerber Fmt 4.6, Leading zero omitted, Abs format (unit mm)*
G04 Created by KiCad (PCBNEW 9.0.3) date 2025-08-17 12:13:03*
%MOMM*%
%LPD*%
G01*
G04 APERTURE LIST*
%ADD10C,0.100000*%
%ADD11C,0.150000*%
%ADD12C,0.120000*%
G04 APERTURE END LIST*
D10*
X60834360Y-77782419D02*
X61024836Y-77782419D01*
X61024836Y-77782419D02*
X61120074Y-77830038D01*
X61120074Y-77830038D02*
X61215312Y-77925276D01*
X61215312Y-77925276D02*
X61262931Y-78115752D01*
X61262931Y-78115752D02*
X61262931Y-78449085D01*
X61262931Y-78449085D02*
X61215312Y-78639561D01*
X61215312Y-78639561D02*
X61120074Y-78734800D01*
X61120074Y-78734800D02*
X61024836Y-78782419D01*
X61024836Y-78782419D02*
X60834360Y-78782419D01*
X60834360Y-78782419D02*
X60739122Y-78734800D01*
X60739122Y-78734800D02*
X60643884Y-78639561D01*
X60643884Y-78639561D02*
X60596265Y-78449085D01*
X60596265Y-78449085D02*
X60596265Y-78115752D01*
X60596265Y-78115752D02*
X60643884Y-77925276D01*
X60643884Y-77925276D02*
X60739122Y-77830038D01*
X60739122Y-77830038D02*
X60834360Y-77782419D01*
X61691503Y-77782419D02*
X61691503Y-78591942D01*
X61691503Y-78591942D02*
X61739122Y-78687180D01*
X61739122Y-78687180D02*
X61786741Y-78734800D01*
X61786741Y-78734800D02*
X61881979Y-78782419D01*
X61881979Y-78782419D02*
X62072455Y-78782419D01*
X62072455Y-78782419D02*
X62167693Y-78734800D01*
X62167693Y-78734800D02*
X62215312Y-78687180D01*
X62215312Y-78687180D02*
X62262931Y-78591942D01*
X62262931Y-78591942D02*
X62262931Y-77782419D01*
X62596265Y-77782419D02*
X63167693Y-77782419D01*
X62881979Y-78782419D02*
X62881979Y-77782419D01*
X64215313Y-77877657D02*
X64262932Y-77830038D01*
X64262932Y-77830038D02*
X64358170Y-77782419D01*
X64358170Y-77782419D02*
X64596265Y-77782419D01*
X64596265Y-77782419D02*
X64691503Y-77830038D01*
X64691503Y-77830038D02*
X64739122Y-77877657D01*
X64739122Y-77877657D02*
X64786741Y-77972895D01*
X64786741Y-77972895D02*
X64786741Y-78068133D01*
X64786741Y-78068133D02*
X64739122Y-78210990D01*
X64739122Y-78210990D02*
X64167694Y-78782419D01*
X64167694Y-78782419D02*
X64786741Y-78782419D01*
X60784360Y-91192419D02*
X60974836Y-91192419D01*
X60974836Y-91192419D02*
X61070074Y-91240038D01*
X61070074Y-91240038D02*
X61165312Y-91335276D01*
X61165312Y-91335276D02*
X61212931Y-91525752D01*
X61212931Y-91525752D02*
X61212931Y-91859085D01*
X61212931Y-91859085D02*
X61165312Y-92049561D01*
X61165312Y-92049561D02*
X61070074Y-92144800D01*
X61070074Y-92144800D02*
X60974836Y-92192419D01*
X60974836Y-92192419D02*
X60784360Y-92192419D01*
X60784360Y-92192419D02*
X60689122Y-92144800D01*
X60689122Y-92144800D02*
X60593884Y-92049561D01*
X60593884Y-92049561D02*
X60546265Y-91859085D01*
X60546265Y-91859085D02*
X60546265Y-91525752D01*
X60546265Y-91525752D02*
X60593884Y-91335276D01*
X60593884Y-91335276D02*
X60689122Y-91240038D01*
X60689122Y-91240038D02*
X60784360Y-91192419D01*
X61641503Y-91192419D02*
X61641503Y-92001942D01*
X61641503Y-92001942D02*
X61689122Y-92097180D01*
X61689122Y-92097180D02*
X61736741Y-92144800D01*
X61736741Y-92144800D02*
X61831979Y-92192419D01*
X61831979Y-92192419D02*
X62022455Y-92192419D01*
X62022455Y-92192419D02*
X62117693Y-92144800D01*
X62117693Y-92144800D02*
X62165312Y-92097180D01*
X62165312Y-92097180D02*
X62212931Y-92001942D01*
X62212931Y-92001942D02*
X62212931Y-91192419D01*
X62546265Y-91192419D02*
X63117693Y-91192419D01*
X62831979Y-92192419D02*
X62831979Y-91192419D01*
X64117694Y-91192419D02*
X64736741Y-91192419D01*
X64736741Y-91192419D02*
X64403408Y-91573371D01*
X64403408Y-91573371D02*
X64546265Y-91573371D01*
X64546265Y-91573371D02*
X64641503Y-91620990D01*
X64641503Y-91620990D02*
X64689122Y-91668609D01*
X64689122Y-91668609D02*
X64736741Y-91763847D01*
X64736741Y-91763847D02*
X64736741Y-92001942D01*
X64736741Y-92001942D02*
X64689122Y-92097180D01*
X64689122Y-92097180D02*
X64641503Y-92144800D01*
X64641503Y-92144800D02*
X64546265Y-92192419D01*
X64546265Y-92192419D02*
X64260551Y-92192419D01*
X64260551Y-92192419D02*
X64165313Y-92144800D01*
X64165313Y-92144800D02*
X64117694Y-92097180D01*
X62147693Y-95100038D02*
X62052455Y-95052419D01*
X62052455Y-95052419D02*
X61909598Y-95052419D01*
X61909598Y-95052419D02*
X61766741Y-95100038D01*
X61766741Y-95100038D02*
X61671503Y-95195276D01*
X61671503Y-95195276D02*
X61623884Y-95290514D01*
X61623884Y-95290514D02*
X61576265Y-95480990D01*
X61576265Y-95480990D02*
X61576265Y-95623847D01*
X61576265Y-95623847D02*
X61623884Y-95814323D01*
X61623884Y-95814323D02*
X61671503Y-95909561D01*
X61671503Y-95909561D02*
X61766741Y-96004800D01*
X61766741Y-96004800D02*
X61909598Y-96052419D01*
X61909598Y-96052419D02*
X62004836Y-96052419D01*
X62004836Y-96052419D02*
X62147693Y-96004800D01*
X62147693Y-96004800D02*
X62195312Y-95957180D01*
X62195312Y-95957180D02*
X62195312Y-95623847D01*
X62195312Y-95623847D02*
X62004836Y-95623847D01*
X62623884Y-96052419D02*
X62623884Y-95052419D01*
X62623884Y-95052419D02*
X63195312Y-96052419D01*
X63195312Y-96052419D02*
X63195312Y-95052419D01*
X63671503Y-96052419D02*
X63671503Y-95052419D01*
X63671503Y-95052419D02*
X63909598Y-95052419D01*
X63909598Y-95052419D02*
X64052455Y-95100038D01*
X64052455Y-95100038D02*
X64147693Y-95195276D01*
X64147693Y-95195276D02*
X64195312Y-95290514D01*
X64195312Y-95290514D02*
X64242931Y-95480990D01*
X64242931Y-95480990D02*
X64242931Y-95623847D01*
X64242931Y-95623847D02*
X64195312Y-95814323D01*
X64195312Y-95814323D02*
X64147693Y-95909561D01*
X64147693Y-95909561D02*
X64052455Y-96004800D01*
X64052455Y-96004800D02*
X63909598Y-96052419D01*
X63909598Y-96052419D02*
X63671503Y-96052419D01*
X43192419Y-51016115D02*
X44001942Y-51016115D01*
X44001942Y-51016115D02*
X44097180Y-50968496D01*
X44097180Y-50968496D02*
X44144800Y-50920877D01*
X44144800Y-50920877D02*
X44192419Y-50825639D01*
X44192419Y-50825639D02*
X44192419Y-50635163D01*
X44192419Y-50635163D02*
X44144800Y-50539925D01*
X44144800Y-50539925D02*
X44097180Y-50492306D01*
X44097180Y-50492306D02*
X44001942Y-50444687D01*
X44001942Y-50444687D02*
X43192419Y-50444687D01*
X44144800Y-50016115D02*
X44192419Y-49873258D01*
X44192419Y-49873258D02*
X44192419Y-49635163D01*
X44192419Y-49635163D02*
X44144800Y-49539925D01*
X44144800Y-49539925D02*
X44097180Y-49492306D01*
X44097180Y-49492306D02*
X44001942Y-49444687D01*
X44001942Y-49444687D02*
X43906704Y-49444687D01*
X43906704Y-49444687D02*
X43811466Y-49492306D01*
X43811466Y-49492306D02*
X43763847Y-49539925D01*
X43763847Y-49539925D02*
X43716228Y-49635163D01*
X43716228Y-49635163D02*
X43668609Y-49825639D01*
X43668609Y-49825639D02*
X43620990Y-49920877D01*
X43620990Y-49920877D02*
X43573371Y-49968496D01*
X43573371Y-49968496D02*
X43478133Y-50016115D01*
X43478133Y-50016115D02*
X43382895Y-50016115D01*
X43382895Y-50016115D02*
X43287657Y-49968496D01*
X43287657Y-49968496D02*
X43240038Y-49920877D01*
X43240038Y-49920877D02*
X43192419Y-49825639D01*
X43192419Y-49825639D02*
X43192419Y-49587544D01*
X43192419Y-49587544D02*
X43240038Y-49444687D01*
X43668609Y-48682782D02*
X43716228Y-48539925D01*
X43716228Y-48539925D02*
X43763847Y-48492306D01*
X43763847Y-48492306D02*
X43859085Y-48444687D01*
X43859085Y-48444687D02*
X44001942Y-48444687D01*
X44001942Y-48444687D02*
X44097180Y-48492306D01*
X44097180Y-48492306D02*
X44144800Y-48539925D01*
X44144800Y-48539925D02*
X44192419Y-48635163D01*
X44192419Y-48635163D02*
X44192419Y-49016115D01*
X44192419Y-49016115D02*
X43192419Y-49016115D01*
X43192419Y-49016115D02*
X43192419Y-48682782D01*
X43192419Y-48682782D02*
X43240038Y-48587544D01*
X43240038Y-48587544D02*
X43287657Y-48539925D01*
X43287657Y-48539925D02*
X43382895Y-48492306D01*
X43382895Y-48492306D02*
X43478133Y-48492306D01*
X43478133Y-48492306D02*
X43573371Y-48539925D01*
X43573371Y-48539925D02*
X43620990Y-48587544D01*
X43620990Y-48587544D02*
X43668609Y-48682782D01*
X43668609Y-48682782D02*
X43668609Y-49016115D01*
X44192419Y-47254210D02*
X43192419Y-47254210D01*
X44192419Y-46778020D02*
X43192419Y-46778020D01*
X43192419Y-46778020D02*
X44192419Y-46206592D01*
X44192419Y-46206592D02*
X43192419Y-46206592D01*
X37810038Y-72032306D02*
X37762419Y-72127544D01*
X37762419Y-72127544D02*
X37762419Y-72270401D01*
X37762419Y-72270401D02*
X37810038Y-72413258D01*
X37810038Y-72413258D02*
X37905276Y-72508496D01*
X37905276Y-72508496D02*
X38000514Y-72556115D01*
X38000514Y-72556115D02*
X38190990Y-72603734D01*
X38190990Y-72603734D02*
X38333847Y-72603734D01*
X38333847Y-72603734D02*
X38524323Y-72556115D01*
X38524323Y-72556115D02*
X38619561Y-72508496D01*
X38619561Y-72508496D02*
X38714800Y-72413258D01*
X38714800Y-72413258D02*
X38762419Y-72270401D01*
X38762419Y-72270401D02*
X38762419Y-72175163D01*
X38762419Y-72175163D02*
X38714800Y-72032306D01*
X38714800Y-72032306D02*
X38667180Y-71984687D01*
X38667180Y-71984687D02*
X38333847Y-71984687D01*
X38333847Y-71984687D02*
X38333847Y-72175163D01*
X38762419Y-71556115D02*
X37762419Y-71556115D01*
X37762419Y-71556115D02*
X38762419Y-70984687D01*
X38762419Y-70984687D02*
X37762419Y-70984687D01*
X38762419Y-70508496D02*
X37762419Y-70508496D01*
X37762419Y-70508496D02*
X37762419Y-70270401D01*
X37762419Y-70270401D02*
X37810038Y-70127544D01*
X37810038Y-70127544D02*
X37905276Y-70032306D01*
X37905276Y-70032306D02*
X38000514Y-69984687D01*
X38000514Y-69984687D02*
X38190990Y-69937068D01*
X38190990Y-69937068D02*
X38333847Y-69937068D01*
X38333847Y-69937068D02*
X38524323Y-69984687D01*
X38524323Y-69984687D02*
X38619561Y-70032306D01*
X38619561Y-70032306D02*
X38714800Y-70127544D01*
X38714800Y-70127544D02*
X38762419Y-70270401D01*
X38762419Y-70270401D02*
X38762419Y-70508496D01*
X38762419Y-68175163D02*
X38286228Y-68508496D01*
X38762419Y-68746591D02*
X37762419Y-68746591D01*
X37762419Y-68746591D02*
X37762419Y-68365639D01*
X37762419Y-68365639D02*
X37810038Y-68270401D01*
X37810038Y-68270401D02*
X37857657Y-68222782D01*
X37857657Y-68222782D02*
X37952895Y-68175163D01*
X37952895Y-68175163D02*
X38095752Y-68175163D01*
X38095752Y-68175163D02*
X38190990Y-68222782D01*
X38190990Y-68222782D02*
X38238609Y-68270401D01*
X38238609Y-68270401D02*
X38286228Y-68365639D01*
X38286228Y-68365639D02*
X38286228Y-68746591D01*
X37762419Y-67841829D02*
X38762419Y-67175163D01*
X37762419Y-67175163D02*
X38762419Y-67841829D01*
X37762419Y-66175162D02*
X37762419Y-65603734D01*
X38762419Y-65889448D02*
X37762419Y-65889448D01*
X37762419Y-65365638D02*
X38762419Y-64698972D01*
X37762419Y-64698972D02*
X38762419Y-65365638D01*
X61523884Y-61272419D02*
X61523884Y-60272419D01*
X62000074Y-61272419D02*
X62000074Y-60272419D01*
X62000074Y-60272419D02*
X62571502Y-61272419D01*
X62571502Y-61272419D02*
X62571502Y-60272419D01*
X64333407Y-61272419D02*
X63761979Y-61272419D01*
X64047693Y-61272419D02*
X64047693Y-60272419D01*
X64047693Y-60272419D02*
X63952455Y-60415276D01*
X63952455Y-60415276D02*
X63857217Y-60510514D01*
X63857217Y-60510514D02*
X63761979Y-60558133D01*
X39452419Y-69956115D02*
X40261942Y-69956115D01*
X40261942Y-69956115D02*
X40357180Y-69908496D01*
X40357180Y-69908496D02*
X40404800Y-69860877D01*
X40404800Y-69860877D02*
X40452419Y-69765639D01*
X40452419Y-69765639D02*
X40452419Y-69575163D01*
X40452419Y-69575163D02*
X40404800Y-69479925D01*
X40404800Y-69479925D02*
X40357180Y-69432306D01*
X40357180Y-69432306D02*
X40261942Y-69384687D01*
X40261942Y-69384687D02*
X39452419Y-69384687D01*
X40166704Y-68956115D02*
X40166704Y-68479925D01*
X40452419Y-69051353D02*
X39452419Y-68718020D01*
X39452419Y-68718020D02*
X40452419Y-68384687D01*
X40452419Y-67479925D02*
X39976228Y-67813258D01*
X40452419Y-68051353D02*
X39452419Y-68051353D01*
X39452419Y-68051353D02*
X39452419Y-67670401D01*
X39452419Y-67670401D02*
X39500038Y-67575163D01*
X39500038Y-67575163D02*
X39547657Y-67527544D01*
X39547657Y-67527544D02*
X39642895Y-67479925D01*
X39642895Y-67479925D02*
X39785752Y-67479925D01*
X39785752Y-67479925D02*
X39880990Y-67527544D01*
X39880990Y-67527544D02*
X39928609Y-67575163D01*
X39928609Y-67575163D02*
X39976228Y-67670401D01*
X39976228Y-67670401D02*
X39976228Y-68051353D01*
X39452419Y-67194210D02*
X39452419Y-66622782D01*
X40452419Y-66908496D02*
X39452419Y-66908496D01*
X60644360Y-64052419D02*
X60834836Y-64052419D01*
X60834836Y-64052419D02*
X60930074Y-64100038D01*
X60930074Y-64100038D02*
X61025312Y-64195276D01*
X61025312Y-64195276D02*
X61072931Y-64385752D01*
X61072931Y-64385752D02*
X61072931Y-64719085D01*
X61072931Y-64719085D02*
X61025312Y-64909561D01*
X61025312Y-64909561D02*
X60930074Y-65004800D01*
X60930074Y-65004800D02*
X60834836Y-65052419D01*
X60834836Y-65052419D02*
X60644360Y-65052419D01*
X60644360Y-65052419D02*
X60549122Y-65004800D01*
X60549122Y-65004800D02*
X60453884Y-64909561D01*
X60453884Y-64909561D02*
X60406265Y-64719085D01*
X60406265Y-64719085D02*
X60406265Y-64385752D01*
X60406265Y-64385752D02*
X60453884Y-64195276D01*
X60453884Y-64195276D02*
X60549122Y-64100038D01*
X60549122Y-64100038D02*
X60644360Y-64052419D01*
X61501503Y-64052419D02*
X61501503Y-64861942D01*
X61501503Y-64861942D02*
X61549122Y-64957180D01*
X61549122Y-64957180D02*
X61596741Y-65004800D01*
X61596741Y-65004800D02*
X61691979Y-65052419D01*
X61691979Y-65052419D02*
X61882455Y-65052419D01*
X61882455Y-65052419D02*
X61977693Y-65004800D01*
X61977693Y-65004800D02*
X62025312Y-64957180D01*
X62025312Y-64957180D02*
X62072931Y-64861942D01*
X62072931Y-64861942D02*
X62072931Y-64052419D01*
X62406265Y-64052419D02*
X62977693Y-64052419D01*
X62691979Y-65052419D02*
X62691979Y-64052419D01*
X64596741Y-65052419D02*
X64025313Y-65052419D01*
X64311027Y-65052419D02*
X64311027Y-64052419D01*
X64311027Y-64052419D02*
X64215789Y-64195276D01*
X64215789Y-64195276D02*
X64120551Y-64290514D01*
X64120551Y-64290514D02*
X64025313Y-64338133D01*
X62017693Y-67590038D02*
X61922455Y-67542419D01*
X61922455Y-67542419D02*
X61779598Y-67542419D01*
X61779598Y-67542419D02*
X61636741Y-67590038D01*
X61636741Y-67590038D02*
X61541503Y-67685276D01*
X61541503Y-67685276D02*
X61493884Y-67780514D01*
X61493884Y-67780514D02*
X61446265Y-67970990D01*
X61446265Y-67970990D02*
X61446265Y-68113847D01*
X61446265Y-68113847D02*
X61493884Y-68304323D01*
X61493884Y-68304323D02*
X61541503Y-68399561D01*
X61541503Y-68399561D02*
X61636741Y-68494800D01*
X61636741Y-68494800D02*
X61779598Y-68542419D01*
X61779598Y-68542419D02*
X61874836Y-68542419D01*
X61874836Y-68542419D02*
X62017693Y-68494800D01*
X62017693Y-68494800D02*
X62065312Y-68447180D01*
X62065312Y-68447180D02*
X62065312Y-68113847D01*
X62065312Y-68113847D02*
X61874836Y-68113847D01*
X62493884Y-68542419D02*
X62493884Y-67542419D01*
X62493884Y-67542419D02*
X63065312Y-68542419D01*
X63065312Y-68542419D02*
X63065312Y-67542419D01*
X63541503Y-68542419D02*
X63541503Y-67542419D01*
X63541503Y-67542419D02*
X63779598Y-67542419D01*
X63779598Y-67542419D02*
X63922455Y-67590038D01*
X63922455Y-67590038D02*
X64017693Y-67685276D01*
X64017693Y-67685276D02*
X64065312Y-67780514D01*
X64065312Y-67780514D02*
X64112931Y-67970990D01*
X64112931Y-67970990D02*
X64112931Y-68113847D01*
X64112931Y-68113847D02*
X64065312Y-68304323D01*
X64065312Y-68304323D02*
X64017693Y-68399561D01*
X64017693Y-68399561D02*
X63922455Y-68494800D01*
X63922455Y-68494800D02*
X63779598Y-68542419D01*
X63779598Y-68542419D02*
X63541503Y-68542419D01*
X62417693Y-81380038D02*
X62322455Y-81332419D01*
X62322455Y-81332419D02*
X62179598Y-81332419D01*
X62179598Y-81332419D02*
X62036741Y-81380038D01*
X62036741Y-81380038D02*
X61941503Y-81475276D01*
X61941503Y-81475276D02*
X61893884Y-81570514D01*
X61893884Y-81570514D02*
X61846265Y-81760990D01*
X61846265Y-81760990D02*
X61846265Y-81903847D01*
X61846265Y-81903847D02*
X61893884Y-82094323D01*
X61893884Y-82094323D02*
X61941503Y-82189561D01*
X61941503Y-82189561D02*
X62036741Y-82284800D01*
X62036741Y-82284800D02*
X62179598Y-82332419D01*
X62179598Y-82332419D02*
X62274836Y-82332419D01*
X62274836Y-82332419D02*
X62417693Y-82284800D01*
X62417693Y-82284800D02*
X62465312Y-82237180D01*
X62465312Y-82237180D02*
X62465312Y-81903847D01*
X62465312Y-81903847D02*
X62274836Y-81903847D01*
X62893884Y-82332419D02*
X62893884Y-81332419D01*
X62893884Y-81332419D02*
X63465312Y-82332419D01*
X63465312Y-82332419D02*
X63465312Y-81332419D01*
X63941503Y-82332419D02*
X63941503Y-81332419D01*
X63941503Y-81332419D02*
X64179598Y-81332419D01*
X64179598Y-81332419D02*
X64322455Y-81380038D01*
X64322455Y-81380038D02*
X64417693Y-81475276D01*
X64417693Y-81475276D02*
X64465312Y-81570514D01*
X64465312Y-81570514D02*
X64512931Y-81760990D01*
X64512931Y-81760990D02*
X64512931Y-81903847D01*
X64512931Y-81903847D02*
X64465312Y-82094323D01*
X64465312Y-82094323D02*
X64417693Y-82189561D01*
X64417693Y-82189561D02*
X64322455Y-82284800D01*
X64322455Y-82284800D02*
X64179598Y-82332419D01*
X64179598Y-82332419D02*
X63941503Y-82332419D01*
X61543884Y-89032419D02*
X61543884Y-88032419D01*
X62020074Y-89032419D02*
X62020074Y-88032419D01*
X62020074Y-88032419D02*
X62591502Y-89032419D01*
X62591502Y-89032419D02*
X62591502Y-88032419D01*
X63734360Y-88032419D02*
X64353407Y-88032419D01*
X64353407Y-88032419D02*
X64020074Y-88413371D01*
X64020074Y-88413371D02*
X64162931Y-88413371D01*
X64162931Y-88413371D02*
X64258169Y-88460990D01*
X64258169Y-88460990D02*
X64305788Y-88508609D01*
X64305788Y-88508609D02*
X64353407Y-88603847D01*
X64353407Y-88603847D02*
X64353407Y-88841942D01*
X64353407Y-88841942D02*
X64305788Y-88937180D01*
X64305788Y-88937180D02*
X64258169Y-88984800D01*
X64258169Y-88984800D02*
X64162931Y-89032419D01*
X64162931Y-89032419D02*
X63877217Y-89032419D01*
X63877217Y-89032419D02*
X63781979Y-88984800D01*
X63781979Y-88984800D02*
X63734360Y-88937180D01*
X64292419Y-49886115D02*
X65101942Y-49886115D01*
X65101942Y-49886115D02*
X65197180Y-49838496D01*
X65197180Y-49838496D02*
X65244800Y-49790877D01*
X65244800Y-49790877D02*
X65292419Y-49695639D01*
X65292419Y-49695639D02*
X65292419Y-49505163D01*
X65292419Y-49505163D02*
X65244800Y-49409925D01*
X65244800Y-49409925D02*
X65197180Y-49362306D01*
X65197180Y-49362306D02*
X65101942Y-49314687D01*
X65101942Y-49314687D02*
X64292419Y-49314687D01*
X65244800Y-48886115D02*
X65292419Y-48743258D01*
X65292419Y-48743258D02*
X65292419Y-48505163D01*
X65292419Y-48505163D02*
X65244800Y-48409925D01*
X65244800Y-48409925D02*
X65197180Y-48362306D01*
X65197180Y-48362306D02*
X65101942Y-48314687D01*
X65101942Y-48314687D02*
X65006704Y-48314687D01*
X65006704Y-48314687D02*
X64911466Y-48362306D01*
X64911466Y-48362306D02*
X64863847Y-48409925D01*
X64863847Y-48409925D02*
X64816228Y-48505163D01*
X64816228Y-48505163D02*
X64768609Y-48695639D01*
X64768609Y-48695639D02*
X64720990Y-48790877D01*
X64720990Y-48790877D02*
X64673371Y-48838496D01*
X64673371Y-48838496D02*
X64578133Y-48886115D01*
X64578133Y-48886115D02*
X64482895Y-48886115D01*
X64482895Y-48886115D02*
X64387657Y-48838496D01*
X64387657Y-48838496D02*
X64340038Y-48790877D01*
X64340038Y-48790877D02*
X64292419Y-48695639D01*
X64292419Y-48695639D02*
X64292419Y-48457544D01*
X64292419Y-48457544D02*
X64340038Y-48314687D01*
X64768609Y-47552782D02*
X64816228Y-47409925D01*
X64816228Y-47409925D02*
X64863847Y-47362306D01*
X64863847Y-47362306D02*
X64959085Y-47314687D01*
X64959085Y-47314687D02*
X65101942Y-47314687D01*
X65101942Y-47314687D02*
X65197180Y-47362306D01*
X65197180Y-47362306D02*
X65244800Y-47409925D01*
X65244800Y-47409925D02*
X65292419Y-47505163D01*
X65292419Y-47505163D02*
X65292419Y-47886115D01*
X65292419Y-47886115D02*
X64292419Y-47886115D01*
X64292419Y-47886115D02*
X64292419Y-47552782D01*
X64292419Y-47552782D02*
X64340038Y-47457544D01*
X64340038Y-47457544D02*
X64387657Y-47409925D01*
X64387657Y-47409925D02*
X64482895Y-47362306D01*
X64482895Y-47362306D02*
X64578133Y-47362306D01*
X64578133Y-47362306D02*
X64673371Y-47409925D01*
X64673371Y-47409925D02*
X64720990Y-47457544D01*
X64720990Y-47457544D02*
X64768609Y-47552782D01*
X64768609Y-47552782D02*
X64768609Y-47886115D01*
X64292419Y-45933734D02*
X64292419Y-45743258D01*
X64292419Y-45743258D02*
X64340038Y-45648020D01*
X64340038Y-45648020D02*
X64435276Y-45552782D01*
X64435276Y-45552782D02*
X64625752Y-45505163D01*
X64625752Y-45505163D02*
X64959085Y-45505163D01*
X64959085Y-45505163D02*
X65149561Y-45552782D01*
X65149561Y-45552782D02*
X65244800Y-45648020D01*
X65244800Y-45648020D02*
X65292419Y-45743258D01*
X65292419Y-45743258D02*
X65292419Y-45933734D01*
X65292419Y-45933734D02*
X65244800Y-46028972D01*
X65244800Y-46028972D02*
X65149561Y-46124210D01*
X65149561Y-46124210D02*
X64959085Y-46171829D01*
X64959085Y-46171829D02*
X64625752Y-46171829D01*
X64625752Y-46171829D02*
X64435276Y-46124210D01*
X64435276Y-46124210D02*
X64340038Y-46028972D01*
X64340038Y-46028972D02*
X64292419Y-45933734D01*
X64292419Y-45076591D02*
X65101942Y-45076591D01*
X65101942Y-45076591D02*
X65197180Y-45028972D01*
X65197180Y-45028972D02*
X65244800Y-44981353D01*
X65244800Y-44981353D02*
X65292419Y-44886115D01*
X65292419Y-44886115D02*
X65292419Y-44695639D01*
X65292419Y-44695639D02*
X65244800Y-44600401D01*
X65244800Y-44600401D02*
X65197180Y-44552782D01*
X65197180Y-44552782D02*
X65101942Y-44505163D01*
X65101942Y-44505163D02*
X64292419Y-44505163D01*
X64292419Y-44171829D02*
X64292419Y-43600401D01*
X65292419Y-43886115D02*
X64292419Y-43886115D01*
X61523884Y-75372419D02*
X61523884Y-74372419D01*
X62000074Y-75372419D02*
X62000074Y-74372419D01*
X62000074Y-74372419D02*
X62571502Y-75372419D01*
X62571502Y-75372419D02*
X62571502Y-74372419D01*
X63761979Y-74467657D02*
X63809598Y-74420038D01*
X63809598Y-74420038D02*
X63904836Y-74372419D01*
X63904836Y-74372419D02*
X64142931Y-74372419D01*
X64142931Y-74372419D02*
X64238169Y-74420038D01*
X64238169Y-74420038D02*
X64285788Y-74467657D01*
X64285788Y-74467657D02*
X64333407Y-74562895D01*
X64333407Y-74562895D02*
X64333407Y-74658133D01*
X64333407Y-74658133D02*
X64285788Y-74800990D01*
X64285788Y-74800990D02*
X63714360Y-75372419D01*
X63714360Y-75372419D02*
X64333407Y-75372419D01*
D11*
X52348095Y-106204819D02*
X52348095Y-107014342D01*
X52348095Y-107014342D02*
X52395714Y-107109580D01*
X52395714Y-107109580D02*
X52443333Y-107157200D01*
X52443333Y-107157200D02*
X52538571Y-107204819D01*
X52538571Y-107204819D02*
X52729047Y-107204819D01*
X52729047Y-107204819D02*
X52824285Y-107157200D01*
X52824285Y-107157200D02*
X52871904Y-107109580D01*
X52871904Y-107109580D02*
X52919523Y-107014342D01*
X52919523Y-107014342D02*
X52919523Y-106204819D01*
X53919523Y-107204819D02*
X53348095Y-107204819D01*
X53633809Y-107204819D02*
X53633809Y-106204819D01*
X53633809Y-106204819D02*
X53538571Y-106347676D01*
X53538571Y-106347676D02*
X53443333Y-106442914D01*
X53443333Y-106442914D02*
X53348095Y-106490533D01*
X53944819Y-71457857D02*
X53468628Y-71791190D01*
X53944819Y-72029285D02*
X52944819Y-72029285D01*
X52944819Y-72029285D02*
X52944819Y-71648333D01*
X52944819Y-71648333D02*
X52992438Y-71553095D01*
X52992438Y-71553095D02*
X53040057Y-71505476D01*
X53040057Y-71505476D02*
X53135295Y-71457857D01*
X53135295Y-71457857D02*
X53278152Y-71457857D01*
X53278152Y-71457857D02*
X53373390Y-71505476D01*
X53373390Y-71505476D02*
X53421009Y-71553095D01*
X53421009Y-71553095D02*
X53468628Y-71648333D01*
X53468628Y-71648333D02*
X53468628Y-72029285D01*
X53040057Y-71076904D02*
X52992438Y-71029285D01*
X52992438Y-71029285D02*
X52944819Y-70934047D01*
X52944819Y-70934047D02*
X52944819Y-70695952D01*
X52944819Y-70695952D02*
X52992438Y-70600714D01*
X52992438Y-70600714D02*
X53040057Y-70553095D01*
X53040057Y-70553095D02*
X53135295Y-70505476D01*
X53135295Y-70505476D02*
X53230533Y-70505476D01*
X53230533Y-70505476D02*
X53373390Y-70553095D01*
X53373390Y-70553095D02*
X53944819Y-71124523D01*
X53944819Y-71124523D02*
X53944819Y-70505476D01*
X52944819Y-69886428D02*
X52944819Y-69791190D01*
X52944819Y-69791190D02*
X52992438Y-69695952D01*
X52992438Y-69695952D02*
X53040057Y-69648333D01*
X53040057Y-69648333D02*
X53135295Y-69600714D01*
X53135295Y-69600714D02*
X53325771Y-69553095D01*
X53325771Y-69553095D02*
X53563866Y-69553095D01*
X53563866Y-69553095D02*
X53754342Y-69600714D01*
X53754342Y-69600714D02*
X53849580Y-69648333D01*
X53849580Y-69648333D02*
X53897200Y-69695952D01*
X53897200Y-69695952D02*
X53944819Y-69791190D01*
X53944819Y-69791190D02*
X53944819Y-69886428D01*
X53944819Y-69886428D02*
X53897200Y-69981666D01*
X53897200Y-69981666D02*
X53849580Y-70029285D01*
X53849580Y-70029285D02*
X53754342Y-70076904D01*
X53754342Y-70076904D02*
X53563866Y-70124523D01*
X53563866Y-70124523D02*
X53325771Y-70124523D01*
X53325771Y-70124523D02*
X53135295Y-70076904D01*
X53135295Y-70076904D02*
X53040057Y-70029285D01*
X53040057Y-70029285D02*
X52992438Y-69981666D01*
X52992438Y-69981666D02*
X52944819Y-69886428D01*
X58284819Y-78397857D02*
X57808628Y-78731190D01*
X58284819Y-78969285D02*
X57284819Y-78969285D01*
X57284819Y-78969285D02*
X57284819Y-78588333D01*
X57284819Y-78588333D02*
X57332438Y-78493095D01*
X57332438Y-78493095D02*
X57380057Y-78445476D01*
X57380057Y-78445476D02*
X57475295Y-78397857D01*
X57475295Y-78397857D02*
X57618152Y-78397857D01*
X57618152Y-78397857D02*
X57713390Y-78445476D01*
X57713390Y-78445476D02*
X57761009Y-78493095D01*
X57761009Y-78493095D02*
X57808628Y-78588333D01*
X57808628Y-78588333D02*
X57808628Y-78969285D01*
X57380057Y-78016904D02*
X57332438Y-77969285D01*
X57332438Y-77969285D02*
X57284819Y-77874047D01*
X57284819Y-77874047D02*
X57284819Y-77635952D01*
X57284819Y-77635952D02*
X57332438Y-77540714D01*
X57332438Y-77540714D02*
X57380057Y-77493095D01*
X57380057Y-77493095D02*
X57475295Y-77445476D01*
X57475295Y-77445476D02*
X57570533Y-77445476D01*
X57570533Y-77445476D02*
X57713390Y-77493095D01*
X57713390Y-77493095D02*
X58284819Y-78064523D01*
X58284819Y-78064523D02*
X58284819Y-77445476D01*
X57380057Y-77064523D02*
X57332438Y-77016904D01*
X57332438Y-77016904D02*
X57284819Y-76921666D01*
X57284819Y-76921666D02*
X57284819Y-76683571D01*
X57284819Y-76683571D02*
X57332438Y-76588333D01*
X57332438Y-76588333D02*
X57380057Y-76540714D01*
X57380057Y-76540714D02*
X57475295Y-76493095D01*
X57475295Y-76493095D02*
X57570533Y-76493095D01*
X57570533Y-76493095D02*
X57713390Y-76540714D01*
X57713390Y-76540714D02*
X58284819Y-77112142D01*
X58284819Y-77112142D02*
X58284819Y-76493095D01*
X37857142Y-96584819D02*
X37523809Y-96108628D01*
X37285714Y-96584819D02*
X37285714Y-95584819D01*
X37285714Y-95584819D02*
X37666666Y-95584819D01*
X37666666Y-95584819D02*
X37761904Y-95632438D01*
X37761904Y-95632438D02*
X37809523Y-95680057D01*
X37809523Y-95680057D02*
X37857142Y-95775295D01*
X37857142Y-95775295D02*
X37857142Y-95918152D01*
X37857142Y-95918152D02*
X37809523Y-96013390D01*
X37809523Y-96013390D02*
X37761904Y-96061009D01*
X37761904Y-96061009D02*
X37666666Y-96108628D01*
X37666666Y-96108628D02*
X37285714Y-96108628D01*
X38809523Y-96584819D02*
X38238095Y-96584819D01*
X38523809Y-96584819D02*
X38523809Y-95584819D01*
X38523809Y-95584819D02*
X38428571Y-95727676D01*
X38428571Y-95727676D02*
X38333333Y-95822914D01*
X38333333Y-95822914D02*
X38238095Y-95870533D01*
X39285714Y-96584819D02*
X39476190Y-96584819D01*
X39476190Y-96584819D02*
X39571428Y-96537200D01*
X39571428Y-96537200D02*
X39619047Y-96489580D01*
X39619047Y-96489580D02*
X39714285Y-96346723D01*
X39714285Y-96346723D02*
X39761904Y-96156247D01*
X39761904Y-96156247D02*
X39761904Y-95775295D01*
X39761904Y-95775295D02*
X39714285Y-95680057D01*
X39714285Y-95680057D02*
X39666666Y-95632438D01*
X39666666Y-95632438D02*
X39571428Y-95584819D01*
X39571428Y-95584819D02*
X39380952Y-95584819D01*
X39380952Y-95584819D02*
X39285714Y-95632438D01*
X39285714Y-95632438D02*
X39238095Y-95680057D01*
X39238095Y-95680057D02*
X39190476Y-95775295D01*
X39190476Y-95775295D02*
X39190476Y-96013390D01*
X39190476Y-96013390D02*
X39238095Y-96108628D01*
X39238095Y-96108628D02*
X39285714Y-96156247D01*
X39285714Y-96156247D02*
X39380952Y-96203866D01*
X39380952Y-96203866D02*
X39571428Y-96203866D01*
X39571428Y-96203866D02*
X39666666Y-96156247D01*
X39666666Y-96156247D02*
X39714285Y-96108628D01*
X39714285Y-96108628D02*
X39761904Y-96013390D01*
X53737142Y-102434819D02*
X53403809Y-101958628D01*
X53165714Y-102434819D02*
X53165714Y-101434819D01*
X53165714Y-101434819D02*
X53546666Y-101434819D01*
X53546666Y-101434819D02*
X53641904Y-101482438D01*
X53641904Y-101482438D02*
X53689523Y-101530057D01*
X53689523Y-101530057D02*
X53737142Y-101625295D01*
X53737142Y-101625295D02*
X53737142Y-101768152D01*
X53737142Y-101768152D02*
X53689523Y-101863390D01*
X53689523Y-101863390D02*
X53641904Y-101911009D01*
X53641904Y-101911009D02*
X53546666Y-101958628D01*
X53546666Y-101958628D02*
X53165714Y-101958628D01*
X54689523Y-102434819D02*
X54118095Y-102434819D01*
X54403809Y-102434819D02*
X54403809Y-101434819D01*
X54403809Y-101434819D02*
X54308571Y-101577676D01*
X54308571Y-101577676D02*
X54213333Y-101672914D01*
X54213333Y-101672914D02*
X54118095Y-101720533D01*
X55546666Y-101768152D02*
X55546666Y-102434819D01*
X55308571Y-101387200D02*
X55070476Y-102101485D01*
X55070476Y-102101485D02*
X55689523Y-102101485D01*
X44284405Y-113484819D02*
X44284405Y-112484819D01*
X44284405Y-112484819D02*
X44522500Y-112484819D01*
X44522500Y-112484819D02*
X44665357Y-112532438D01*
X44665357Y-112532438D02*
X44760595Y-112627676D01*
X44760595Y-112627676D02*
X44808214Y-112722914D01*
X44808214Y-112722914D02*
X44855833Y-112913390D01*
X44855833Y-112913390D02*
X44855833Y-113056247D01*
X44855833Y-113056247D02*
X44808214Y-113246723D01*
X44808214Y-113246723D02*
X44760595Y-113341961D01*
X44760595Y-113341961D02*
X44665357Y-113437200D01*
X44665357Y-113437200D02*
X44522500Y-113484819D01*
X44522500Y-113484819D02*
X44284405Y-113484819D01*
X45808214Y-113484819D02*
X45236786Y-113484819D01*
X45522500Y-113484819D02*
X45522500Y-112484819D01*
X45522500Y-112484819D02*
X45427262Y-112627676D01*
X45427262Y-112627676D02*
X45332024Y-112722914D01*
X45332024Y-112722914D02*
X45236786Y-112770533D01*
X66014819Y-103461666D02*
X65538628Y-103794999D01*
X66014819Y-104033094D02*
X65014819Y-104033094D01*
X65014819Y-104033094D02*
X65014819Y-103652142D01*
X65014819Y-103652142D02*
X65062438Y-103556904D01*
X65062438Y-103556904D02*
X65110057Y-103509285D01*
X65110057Y-103509285D02*
X65205295Y-103461666D01*
X65205295Y-103461666D02*
X65348152Y-103461666D01*
X65348152Y-103461666D02*
X65443390Y-103509285D01*
X65443390Y-103509285D02*
X65491009Y-103556904D01*
X65491009Y-103556904D02*
X65538628Y-103652142D01*
X65538628Y-103652142D02*
X65538628Y-104033094D01*
X65014819Y-103128332D02*
X65014819Y-102461666D01*
X65014819Y-102461666D02*
X66014819Y-102890237D01*
X47724819Y-114056666D02*
X47248628Y-114389999D01*
X47724819Y-114628094D02*
X46724819Y-114628094D01*
X46724819Y-114628094D02*
X46724819Y-114247142D01*
X46724819Y-114247142D02*
X46772438Y-114151904D01*
X46772438Y-114151904D02*
X46820057Y-114104285D01*
X46820057Y-114104285D02*
X46915295Y-114056666D01*
X46915295Y-114056666D02*
X47058152Y-114056666D01*
X47058152Y-114056666D02*
X47153390Y-114104285D01*
X47153390Y-114104285D02*
X47201009Y-114151904D01*
X47201009Y-114151904D02*
X47248628Y-114247142D01*
X47248628Y-114247142D02*
X47248628Y-114628094D01*
X46724819Y-113723332D02*
X46724819Y-113104285D01*
X46724819Y-113104285D02*
X47105771Y-113437618D01*
X47105771Y-113437618D02*
X47105771Y-113294761D01*
X47105771Y-113294761D02*
X47153390Y-113199523D01*
X47153390Y-113199523D02*
X47201009Y-113151904D01*
X47201009Y-113151904D02*
X47296247Y-113104285D01*
X47296247Y-113104285D02*
X47534342Y-113104285D01*
X47534342Y-113104285D02*
X47629580Y-113151904D01*
X47629580Y-113151904D02*
X47677200Y-113199523D01*
X47677200Y-113199523D02*
X47724819Y-113294761D01*
X47724819Y-113294761D02*
X47724819Y-113580475D01*
X47724819Y-113580475D02*
X47677200Y-113675713D01*
X47677200Y-113675713D02*
X47629580Y-113723332D01*
X60039819Y-59567857D02*
X59563628Y-59901190D01*
X60039819Y-60139285D02*
X59039819Y-60139285D01*
X59039819Y-60139285D02*
X59039819Y-59758333D01*
X59039819Y-59758333D02*
X59087438Y-59663095D01*
X59087438Y-59663095D02*
X59135057Y-59615476D01*
X59135057Y-59615476D02*
X59230295Y-59567857D01*
X59230295Y-59567857D02*
X59373152Y-59567857D01*
X59373152Y-59567857D02*
X59468390Y-59615476D01*
X59468390Y-59615476D02*
X59516009Y-59663095D01*
X59516009Y-59663095D02*
X59563628Y-59758333D01*
X59563628Y-59758333D02*
X59563628Y-60139285D01*
X60039819Y-58615476D02*
X60039819Y-59186904D01*
X60039819Y-58901190D02*
X59039819Y-58901190D01*
X59039819Y-58901190D02*
X59182676Y-58996428D01*
X59182676Y-58996428D02*
X59277914Y-59091666D01*
X59277914Y-59091666D02*
X59325533Y-59186904D01*
X60039819Y-57663095D02*
X60039819Y-58234523D01*
X60039819Y-57948809D02*
X59039819Y-57948809D01*
X59039819Y-57948809D02*
X59182676Y-58044047D01*
X59182676Y-58044047D02*
X59277914Y-58139285D01*
X59277914Y-58139285D02*
X59325533Y-58234523D01*
X51723333Y-102869580D02*
X51675714Y-102917200D01*
X51675714Y-102917200D02*
X51532857Y-102964819D01*
X51532857Y-102964819D02*
X51437619Y-102964819D01*
X51437619Y-102964819D02*
X51294762Y-102917200D01*
X51294762Y-102917200D02*
X51199524Y-102821961D01*
X51199524Y-102821961D02*
X51151905Y-102726723D01*
X51151905Y-102726723D02*
X51104286Y-102536247D01*
X51104286Y-102536247D02*
X51104286Y-102393390D01*
X51104286Y-102393390D02*
X51151905Y-102202914D01*
X51151905Y-102202914D02*
X51199524Y-102107676D01*
X51199524Y-102107676D02*
X51294762Y-102012438D01*
X51294762Y-102012438D02*
X51437619Y-101964819D01*
X51437619Y-101964819D02*
X51532857Y-101964819D01*
X51532857Y-101964819D02*
X51675714Y-102012438D01*
X51675714Y-102012438D02*
X51723333Y-102060057D01*
X52675714Y-102964819D02*
X52104286Y-102964819D01*
X52390000Y-102964819D02*
X52390000Y-101964819D01*
X52390000Y-101964819D02*
X52294762Y-102107676D01*
X52294762Y-102107676D02*
X52199524Y-102202914D01*
X52199524Y-102202914D02*
X52104286Y-102250533D01*
X62498333Y-52664819D02*
X62165000Y-52188628D01*
X61926905Y-52664819D02*
X61926905Y-51664819D01*
X61926905Y-51664819D02*
X62307857Y-51664819D01*
X62307857Y-51664819D02*
X62403095Y-51712438D01*
X62403095Y-51712438D02*
X62450714Y-51760057D01*
X62450714Y-51760057D02*
X62498333Y-51855295D01*
X62498333Y-51855295D02*
X62498333Y-51998152D01*
X62498333Y-51998152D02*
X62450714Y-52093390D01*
X62450714Y-52093390D02*
X62403095Y-52141009D01*
X62403095Y-52141009D02*
X62307857Y-52188628D01*
X62307857Y-52188628D02*
X61926905Y-52188628D01*
X63069762Y-52093390D02*
X62974524Y-52045771D01*
X62974524Y-52045771D02*
X62926905Y-51998152D01*
X62926905Y-51998152D02*
X62879286Y-51902914D01*
X62879286Y-51902914D02*
X62879286Y-51855295D01*
X62879286Y-51855295D02*
X62926905Y-51760057D01*
X62926905Y-51760057D02*
X62974524Y-51712438D01*
X62974524Y-51712438D02*
X63069762Y-51664819D01*
X63069762Y-51664819D02*
X63260238Y-51664819D01*
X63260238Y-51664819D02*
X63355476Y-51712438D01*
X63355476Y-51712438D02*
X63403095Y-51760057D01*
X63403095Y-51760057D02*
X63450714Y-51855295D01*
X63450714Y-51855295D02*
X63450714Y-51902914D01*
X63450714Y-51902914D02*
X63403095Y-51998152D01*
X63403095Y-51998152D02*
X63355476Y-52045771D01*
X63355476Y-52045771D02*
X63260238Y-52093390D01*
X63260238Y-52093390D02*
X63069762Y-52093390D01*
X63069762Y-52093390D02*
X62974524Y-52141009D01*
X62974524Y-52141009D02*
X62926905Y-52188628D01*
X62926905Y-52188628D02*
X62879286Y-52283866D01*
X62879286Y-52283866D02*
X62879286Y-52474342D01*
X62879286Y-52474342D02*
X62926905Y-52569580D01*
X62926905Y-52569580D02*
X62974524Y-52617200D01*
X62974524Y-52617200D02*
X63069762Y-52664819D01*
X63069762Y-52664819D02*
X63260238Y-52664819D01*
X63260238Y-52664819D02*
X63355476Y-52617200D01*
X63355476Y-52617200D02*
X63403095Y-52569580D01*
X63403095Y-52569580D02*
X63450714Y-52474342D01*
X63450714Y-52474342D02*
X63450714Y-52283866D01*
X63450714Y-52283866D02*
X63403095Y-52188628D01*
X63403095Y-52188628D02*
X63355476Y-52141009D01*
X63355476Y-52141009D02*
X63260238Y-52093390D01*
X61074819Y-111557857D02*
X60598628Y-111891190D01*
X61074819Y-112129285D02*
X60074819Y-112129285D01*
X60074819Y-112129285D02*
X60074819Y-111748333D01*
X60074819Y-111748333D02*
X60122438Y-111653095D01*
X60122438Y-111653095D02*
X60170057Y-111605476D01*
X60170057Y-111605476D02*
X60265295Y-111557857D01*
X60265295Y-111557857D02*
X60408152Y-111557857D01*
X60408152Y-111557857D02*
X60503390Y-111605476D01*
X60503390Y-111605476D02*
X60551009Y-111653095D01*
X60551009Y-111653095D02*
X60598628Y-111748333D01*
X60598628Y-111748333D02*
X60598628Y-112129285D01*
X61074819Y-110605476D02*
X61074819Y-111176904D01*
X61074819Y-110891190D02*
X60074819Y-110891190D01*
X60074819Y-110891190D02*
X60217676Y-110986428D01*
X60217676Y-110986428D02*
X60312914Y-111081666D01*
X60312914Y-111081666D02*
X60360533Y-111176904D01*
X60074819Y-109748333D02*
X60074819Y-109938809D01*
X60074819Y-109938809D02*
X60122438Y-110034047D01*
X60122438Y-110034047D02*
X60170057Y-110081666D01*
X60170057Y-110081666D02*
X60312914Y-110176904D01*
X60312914Y-110176904D02*
X60503390Y-110224523D01*
X60503390Y-110224523D02*
X60884342Y-110224523D01*
X60884342Y-110224523D02*
X60979580Y-110176904D01*
X60979580Y-110176904D02*
X61027200Y-110129285D01*
X61027200Y-110129285D02*
X61074819Y-110034047D01*
X61074819Y-110034047D02*
X61074819Y-109843571D01*
X61074819Y-109843571D02*
X61027200Y-109748333D01*
X61027200Y-109748333D02*
X60979580Y-109700714D01*
X60979580Y-109700714D02*
X60884342Y-109653095D01*
X60884342Y-109653095D02*
X60646247Y-109653095D01*
X60646247Y-109653095D02*
X60551009Y-109700714D01*
X60551009Y-109700714D02*
X60503390Y-109748333D01*
X60503390Y-109748333D02*
X60455771Y-109843571D01*
X60455771Y-109843571D02*
X60455771Y-110034047D01*
X60455771Y-110034047D02*
X60503390Y-110129285D01*
X60503390Y-110129285D02*
X60551009Y-110176904D01*
X60551009Y-110176904D02*
X60646247Y-110224523D01*
X64144819Y-110533333D02*
X64859104Y-110533333D01*
X64859104Y-110533333D02*
X65001961Y-110580952D01*
X65001961Y-110580952D02*
X65097200Y-110676190D01*
X65097200Y-110676190D02*
X65144819Y-110819047D01*
X65144819Y-110819047D02*
X65144819Y-110914285D01*
X65144819Y-110009523D02*
X65144819Y-109819047D01*
X65144819Y-109819047D02*
X65097200Y-109723809D01*
X65097200Y-109723809D02*
X65049580Y-109676190D01*
X65049580Y-109676190D02*
X64906723Y-109580952D01*
X64906723Y-109580952D02*
X64716247Y-109533333D01*
X64716247Y-109533333D02*
X64335295Y-109533333D01*
X64335295Y-109533333D02*
X64240057Y-109580952D01*
X64240057Y-109580952D02*
X64192438Y-109628571D01*
X64192438Y-109628571D02*
X64144819Y-109723809D01*
X64144819Y-109723809D02*
X64144819Y-109914285D01*
X64144819Y-109914285D02*
X64192438Y-110009523D01*
X64192438Y-110009523D02*
X64240057Y-110057142D01*
X64240057Y-110057142D02*
X64335295Y-110104761D01*
X64335295Y-110104761D02*
X64573390Y-110104761D01*
X64573390Y-110104761D02*
X64668628Y-110057142D01*
X64668628Y-110057142D02*
X64716247Y-110009523D01*
X64716247Y-110009523D02*
X64763866Y-109914285D01*
X64763866Y-109914285D02*
X64763866Y-109723809D01*
X64763866Y-109723809D02*
X64716247Y-109628571D01*
X64716247Y-109628571D02*
X64668628Y-109580952D01*
X64668628Y-109580952D02*
X64573390Y-109533333D01*
X70354819Y-103466666D02*
X69878628Y-103799999D01*
X70354819Y-104038094D02*
X69354819Y-104038094D01*
X69354819Y-104038094D02*
X69354819Y-103657142D01*
X69354819Y-103657142D02*
X69402438Y-103561904D01*
X69402438Y-103561904D02*
X69450057Y-103514285D01*
X69450057Y-103514285D02*
X69545295Y-103466666D01*
X69545295Y-103466666D02*
X69688152Y-103466666D01*
X69688152Y-103466666D02*
X69783390Y-103514285D01*
X69783390Y-103514285D02*
X69831009Y-103561904D01*
X69831009Y-103561904D02*
X69878628Y-103657142D01*
X69878628Y-103657142D02*
X69878628Y-104038094D01*
X69354819Y-102609523D02*
X69354819Y-102799999D01*
X69354819Y-102799999D02*
X69402438Y-102895237D01*
X69402438Y-102895237D02*
X69450057Y-102942856D01*
X69450057Y-102942856D02*
X69592914Y-103038094D01*
X69592914Y-103038094D02*
X69783390Y-103085713D01*
X69783390Y-103085713D02*
X70164342Y-103085713D01*
X70164342Y-103085713D02*
X70259580Y-103038094D01*
X70259580Y-103038094D02*
X70307200Y-102990475D01*
X70307200Y-102990475D02*
X70354819Y-102895237D01*
X70354819Y-102895237D02*
X70354819Y-102704761D01*
X70354819Y-102704761D02*
X70307200Y-102609523D01*
X70307200Y-102609523D02*
X70259580Y-102561904D01*
X70259580Y-102561904D02*
X70164342Y-102514285D01*
X70164342Y-102514285D02*
X69926247Y-102514285D01*
X69926247Y-102514285D02*
X69831009Y-102561904D01*
X69831009Y-102561904D02*
X69783390Y-102609523D01*
X69783390Y-102609523D02*
X69735771Y-102704761D01*
X69735771Y-102704761D02*
X69735771Y-102895237D01*
X69735771Y-102895237D02*
X69783390Y-102990475D01*
X69783390Y-102990475D02*
X69831009Y-103038094D01*
X69831009Y-103038094D02*
X69926247Y-103085713D01*
X46059580Y-114507857D02*
X46107200Y-114555476D01*
X46107200Y-114555476D02*
X46154819Y-114698333D01*
X46154819Y-114698333D02*
X46154819Y-114793571D01*
X46154819Y-114793571D02*
X46107200Y-114936428D01*
X46107200Y-114936428D02*
X46011961Y-115031666D01*
X46011961Y-115031666D02*
X45916723Y-115079285D01*
X45916723Y-115079285D02*
X45726247Y-115126904D01*
X45726247Y-115126904D02*
X45583390Y-115126904D01*
X45583390Y-115126904D02*
X45392914Y-115079285D01*
X45392914Y-115079285D02*
X45297676Y-115031666D01*
X45297676Y-115031666D02*
X45202438Y-114936428D01*
X45202438Y-114936428D02*
X45154819Y-114793571D01*
X45154819Y-114793571D02*
X45154819Y-114698333D01*
X45154819Y-114698333D02*
X45202438Y-114555476D01*
X45202438Y-114555476D02*
X45250057Y-114507857D01*
X46154819Y-113555476D02*
X46154819Y-114126904D01*
X46154819Y-113841190D02*
X45154819Y-113841190D01*
X45154819Y-113841190D02*
X45297676Y-113936428D01*
X45297676Y-113936428D02*
X45392914Y-114031666D01*
X45392914Y-114031666D02*
X45440533Y-114126904D01*
X45250057Y-113174523D02*
X45202438Y-113126904D01*
X45202438Y-113126904D02*
X45154819Y-113031666D01*
X45154819Y-113031666D02*
X45154819Y-112793571D01*
X45154819Y-112793571D02*
X45202438Y-112698333D01*
X45202438Y-112698333D02*
X45250057Y-112650714D01*
X45250057Y-112650714D02*
X45345295Y-112603095D01*
X45345295Y-112603095D02*
X45440533Y-112603095D01*
X45440533Y-112603095D02*
X45583390Y-112650714D01*
X45583390Y-112650714D02*
X46154819Y-113222142D01*
X46154819Y-113222142D02*
X46154819Y-112603095D01*
X55283333Y-57724819D02*
X54950000Y-57248628D01*
X54711905Y-57724819D02*
X54711905Y-56724819D01*
X54711905Y-56724819D02*
X55092857Y-56724819D01*
X55092857Y-56724819D02*
X55188095Y-56772438D01*
X55188095Y-56772438D02*
X55235714Y-56820057D01*
X55235714Y-56820057D02*
X55283333Y-56915295D01*
X55283333Y-56915295D02*
X55283333Y-57058152D01*
X55283333Y-57058152D02*
X55235714Y-57153390D01*
X55235714Y-57153390D02*
X55188095Y-57201009D01*
X55188095Y-57201009D02*
X55092857Y-57248628D01*
X55092857Y-57248628D02*
X54711905Y-57248628D01*
X56188095Y-56724819D02*
X55711905Y-56724819D01*
X55711905Y-56724819D02*
X55664286Y-57201009D01*
X55664286Y-57201009D02*
X55711905Y-57153390D01*
X55711905Y-57153390D02*
X55807143Y-57105771D01*
X55807143Y-57105771D02*
X56045238Y-57105771D01*
X56045238Y-57105771D02*
X56140476Y-57153390D01*
X56140476Y-57153390D02*
X56188095Y-57201009D01*
X56188095Y-57201009D02*
X56235714Y-57296247D01*
X56235714Y-57296247D02*
X56235714Y-57534342D01*
X56235714Y-57534342D02*
X56188095Y-57629580D01*
X56188095Y-57629580D02*
X56140476Y-57677200D01*
X56140476Y-57677200D02*
X56045238Y-57724819D01*
X56045238Y-57724819D02*
X55807143Y-57724819D01*
X55807143Y-57724819D02*
X55711905Y-57677200D01*
X55711905Y-57677200D02*
X55664286Y-57629580D01*
X58254819Y-105257857D02*
X57778628Y-105591190D01*
X58254819Y-105829285D02*
X57254819Y-105829285D01*
X57254819Y-105829285D02*
X57254819Y-105448333D01*
X57254819Y-105448333D02*
X57302438Y-105353095D01*
X57302438Y-105353095D02*
X57350057Y-105305476D01*
X57350057Y-105305476D02*
X57445295Y-105257857D01*
X57445295Y-105257857D02*
X57588152Y-105257857D01*
X57588152Y-105257857D02*
X57683390Y-105305476D01*
X57683390Y-105305476D02*
X57731009Y-105353095D01*
X57731009Y-105353095D02*
X57778628Y-105448333D01*
X57778628Y-105448333D02*
X57778628Y-105829285D01*
X58254819Y-104305476D02*
X58254819Y-104876904D01*
X58254819Y-104591190D02*
X57254819Y-104591190D01*
X57254819Y-104591190D02*
X57397676Y-104686428D01*
X57397676Y-104686428D02*
X57492914Y-104781666D01*
X57492914Y-104781666D02*
X57540533Y-104876904D01*
X57254819Y-103972142D02*
X57254819Y-103305476D01*
X57254819Y-103305476D02*
X58254819Y-103734047D01*
X37566667Y-97987200D02*
X37709524Y-98034819D01*
X37709524Y-98034819D02*
X37947619Y-98034819D01*
X37947619Y-98034819D02*
X38042857Y-97987200D01*
X38042857Y-97987200D02*
X38090476Y-97939580D01*
X38090476Y-97939580D02*
X38138095Y-97844342D01*
X38138095Y-97844342D02*
X38138095Y-97749104D01*
X38138095Y-97749104D02*
X38090476Y-97653866D01*
X38090476Y-97653866D02*
X38042857Y-97606247D01*
X38042857Y-97606247D02*
X37947619Y-97558628D01*
X37947619Y-97558628D02*
X37757143Y-97511009D01*
X37757143Y-97511009D02*
X37661905Y-97463390D01*
X37661905Y-97463390D02*
X37614286Y-97415771D01*
X37614286Y-97415771D02*
X37566667Y-97320533D01*
X37566667Y-97320533D02*
X37566667Y-97225295D01*
X37566667Y-97225295D02*
X37614286Y-97130057D01*
X37614286Y-97130057D02*
X37661905Y-97082438D01*
X37661905Y-97082438D02*
X37757143Y-97034819D01*
X37757143Y-97034819D02*
X37995238Y-97034819D01*
X37995238Y-97034819D02*
X38138095Y-97082438D01*
X38471429Y-97034819D02*
X38709524Y-98034819D01*
X38709524Y-98034819D02*
X38900000Y-97320533D01*
X38900000Y-97320533D02*
X39090476Y-98034819D01*
X39090476Y-98034819D02*
X39328572Y-97034819D01*
X40233333Y-98034819D02*
X39661905Y-98034819D01*
X39947619Y-98034819D02*
X39947619Y-97034819D01*
X39947619Y-97034819D02*
X39852381Y-97177676D01*
X39852381Y-97177676D02*
X39757143Y-97272914D01*
X39757143Y-97272914D02*
X39661905Y-97320533D01*
X58214819Y-81422857D02*
X57738628Y-81756190D01*
X58214819Y-81994285D02*
X57214819Y-81994285D01*
X57214819Y-81994285D02*
X57214819Y-81613333D01*
X57214819Y-81613333D02*
X57262438Y-81518095D01*
X57262438Y-81518095D02*
X57310057Y-81470476D01*
X57310057Y-81470476D02*
X57405295Y-81422857D01*
X57405295Y-81422857D02*
X57548152Y-81422857D01*
X57548152Y-81422857D02*
X57643390Y-81470476D01*
X57643390Y-81470476D02*
X57691009Y-81518095D01*
X57691009Y-81518095D02*
X57738628Y-81613333D01*
X57738628Y-81613333D02*
X57738628Y-81994285D01*
X57310057Y-81041904D02*
X57262438Y-80994285D01*
X57262438Y-80994285D02*
X57214819Y-80899047D01*
X57214819Y-80899047D02*
X57214819Y-80660952D01*
X57214819Y-80660952D02*
X57262438Y-80565714D01*
X57262438Y-80565714D02*
X57310057Y-80518095D01*
X57310057Y-80518095D02*
X57405295Y-80470476D01*
X57405295Y-80470476D02*
X57500533Y-80470476D01*
X57500533Y-80470476D02*
X57643390Y-80518095D01*
X57643390Y-80518095D02*
X58214819Y-81089523D01*
X58214819Y-81089523D02*
X58214819Y-80470476D01*
X58214819Y-79518095D02*
X58214819Y-80089523D01*
X58214819Y-79803809D02*
X57214819Y-79803809D01*
X57214819Y-79803809D02*
X57357676Y-79899047D01*
X57357676Y-79899047D02*
X57452914Y-79994285D01*
X57452914Y-79994285D02*
X57500533Y-80089523D01*
X48539819Y-55117857D02*
X48063628Y-55451190D01*
X48539819Y-55689285D02*
X47539819Y-55689285D01*
X47539819Y-55689285D02*
X47539819Y-55308333D01*
X47539819Y-55308333D02*
X47587438Y-55213095D01*
X47587438Y-55213095D02*
X47635057Y-55165476D01*
X47635057Y-55165476D02*
X47730295Y-55117857D01*
X47730295Y-55117857D02*
X47873152Y-55117857D01*
X47873152Y-55117857D02*
X47968390Y-55165476D01*
X47968390Y-55165476D02*
X48016009Y-55213095D01*
X48016009Y-55213095D02*
X48063628Y-55308333D01*
X48063628Y-55308333D02*
X48063628Y-55689285D01*
X48539819Y-54165476D02*
X48539819Y-54736904D01*
X48539819Y-54451190D02*
X47539819Y-54451190D01*
X47539819Y-54451190D02*
X47682676Y-54546428D01*
X47682676Y-54546428D02*
X47777914Y-54641666D01*
X47777914Y-54641666D02*
X47825533Y-54736904D01*
X47539819Y-53546428D02*
X47539819Y-53451190D01*
X47539819Y-53451190D02*
X47587438Y-53355952D01*
X47587438Y-53355952D02*
X47635057Y-53308333D01*
X47635057Y-53308333D02*
X47730295Y-53260714D01*
X47730295Y-53260714D02*
X47920771Y-53213095D01*
X47920771Y-53213095D02*
X48158866Y-53213095D01*
X48158866Y-53213095D02*
X48349342Y-53260714D01*
X48349342Y-53260714D02*
X48444580Y-53308333D01*
X48444580Y-53308333D02*
X48492200Y-53355952D01*
X48492200Y-53355952D02*
X48539819Y-53451190D01*
X48539819Y-53451190D02*
X48539819Y-53546428D01*
X48539819Y-53546428D02*
X48492200Y-53641666D01*
X48492200Y-53641666D02*
X48444580Y-53689285D01*
X48444580Y-53689285D02*
X48349342Y-53736904D01*
X48349342Y-53736904D02*
X48158866Y-53784523D01*
X48158866Y-53784523D02*
X47920771Y-53784523D01*
X47920771Y-53784523D02*
X47730295Y-53736904D01*
X47730295Y-53736904D02*
X47635057Y-53689285D01*
X47635057Y-53689285D02*
X47587438Y-53641666D01*
X47587438Y-53641666D02*
X47539819Y-53546428D01*
X39863333Y-94819580D02*
X39815714Y-94867200D01*
X39815714Y-94867200D02*
X39672857Y-94914819D01*
X39672857Y-94914819D02*
X39577619Y-94914819D01*
X39577619Y-94914819D02*
X39434762Y-94867200D01*
X39434762Y-94867200D02*
X39339524Y-94771961D01*
X39339524Y-94771961D02*
X39291905Y-94676723D01*
X39291905Y-94676723D02*
X39244286Y-94486247D01*
X39244286Y-94486247D02*
X39244286Y-94343390D01*
X39244286Y-94343390D02*
X39291905Y-94152914D01*
X39291905Y-94152914D02*
X39339524Y-94057676D01*
X39339524Y-94057676D02*
X39434762Y-93962438D01*
X39434762Y-93962438D02*
X39577619Y-93914819D01*
X39577619Y-93914819D02*
X39672857Y-93914819D01*
X39672857Y-93914819D02*
X39815714Y-93962438D01*
X39815714Y-93962438D02*
X39863333Y-94010057D01*
X40196667Y-93914819D02*
X40815714Y-93914819D01*
X40815714Y-93914819D02*
X40482381Y-94295771D01*
X40482381Y-94295771D02*
X40625238Y-94295771D01*
X40625238Y-94295771D02*
X40720476Y-94343390D01*
X40720476Y-94343390D02*
X40768095Y-94391009D01*
X40768095Y-94391009D02*
X40815714Y-94486247D01*
X40815714Y-94486247D02*
X40815714Y-94724342D01*
X40815714Y-94724342D02*
X40768095Y-94819580D01*
X40768095Y-94819580D02*
X40720476Y-94867200D01*
X40720476Y-94867200D02*
X40625238Y-94914819D01*
X40625238Y-94914819D02*
X40339524Y-94914819D01*
X40339524Y-94914819D02*
X40244286Y-94867200D01*
X40244286Y-94867200D02*
X40196667Y-94819580D01*
X61599819Y-59532857D02*
X61123628Y-59866190D01*
X61599819Y-60104285D02*
X60599819Y-60104285D01*
X60599819Y-60104285D02*
X60599819Y-59723333D01*
X60599819Y-59723333D02*
X60647438Y-59628095D01*
X60647438Y-59628095D02*
X60695057Y-59580476D01*
X60695057Y-59580476D02*
X60790295Y-59532857D01*
X60790295Y-59532857D02*
X60933152Y-59532857D01*
X60933152Y-59532857D02*
X61028390Y-59580476D01*
X61028390Y-59580476D02*
X61076009Y-59628095D01*
X61076009Y-59628095D02*
X61123628Y-59723333D01*
X61123628Y-59723333D02*
X61123628Y-60104285D01*
X61599819Y-58580476D02*
X61599819Y-59151904D01*
X61599819Y-58866190D02*
X60599819Y-58866190D01*
X60599819Y-58866190D02*
X60742676Y-58961428D01*
X60742676Y-58961428D02*
X60837914Y-59056666D01*
X60837914Y-59056666D02*
X60885533Y-59151904D01*
X60695057Y-58199523D02*
X60647438Y-58151904D01*
X60647438Y-58151904D02*
X60599819Y-58056666D01*
X60599819Y-58056666D02*
X60599819Y-57818571D01*
X60599819Y-57818571D02*
X60647438Y-57723333D01*
X60647438Y-57723333D02*
X60695057Y-57675714D01*
X60695057Y-57675714D02*
X60790295Y-57628095D01*
X60790295Y-57628095D02*
X60885533Y-57628095D01*
X60885533Y-57628095D02*
X61028390Y-57675714D01*
X61028390Y-57675714D02*
X61599819Y-58247142D01*
X61599819Y-58247142D02*
X61599819Y-57628095D01*
X74244819Y-92413333D02*
X74959104Y-92413333D01*
X74959104Y-92413333D02*
X75101961Y-92460952D01*
X75101961Y-92460952D02*
X75197200Y-92556190D01*
X75197200Y-92556190D02*
X75244819Y-92699047D01*
X75244819Y-92699047D02*
X75244819Y-92794285D01*
X74673390Y-91794285D02*
X74625771Y-91889523D01*
X74625771Y-91889523D02*
X74578152Y-91937142D01*
X74578152Y-91937142D02*
X74482914Y-91984761D01*
X74482914Y-91984761D02*
X74435295Y-91984761D01*
X74435295Y-91984761D02*
X74340057Y-91937142D01*
X74340057Y-91937142D02*
X74292438Y-91889523D01*
X74292438Y-91889523D02*
X74244819Y-91794285D01*
X74244819Y-91794285D02*
X74244819Y-91603809D01*
X74244819Y-91603809D02*
X74292438Y-91508571D01*
X74292438Y-91508571D02*
X74340057Y-91460952D01*
X74340057Y-91460952D02*
X74435295Y-91413333D01*
X74435295Y-91413333D02*
X74482914Y-91413333D01*
X74482914Y-91413333D02*
X74578152Y-91460952D01*
X74578152Y-91460952D02*
X74625771Y-91508571D01*
X74625771Y-91508571D02*
X74673390Y-91603809D01*
X74673390Y-91603809D02*
X74673390Y-91794285D01*
X74673390Y-91794285D02*
X74721009Y-91889523D01*
X74721009Y-91889523D02*
X74768628Y-91937142D01*
X74768628Y-91937142D02*
X74863866Y-91984761D01*
X74863866Y-91984761D02*
X75054342Y-91984761D01*
X75054342Y-91984761D02*
X75149580Y-91937142D01*
X75149580Y-91937142D02*
X75197200Y-91889523D01*
X75197200Y-91889523D02*
X75244819Y-91794285D01*
X75244819Y-91794285D02*
X75244819Y-91603809D01*
X75244819Y-91603809D02*
X75197200Y-91508571D01*
X75197200Y-91508571D02*
X75149580Y-91460952D01*
X75149580Y-91460952D02*
X75054342Y-91413333D01*
X75054342Y-91413333D02*
X74863866Y-91413333D01*
X74863866Y-91413333D02*
X74768628Y-91460952D01*
X74768628Y-91460952D02*
X74721009Y-91508571D01*
X74721009Y-91508571D02*
X74673390Y-91603809D01*
X50404819Y-108637857D02*
X49928628Y-108971190D01*
X50404819Y-109209285D02*
X49404819Y-109209285D01*
X49404819Y-109209285D02*
X49404819Y-108828333D01*
X49404819Y-108828333D02*
X49452438Y-108733095D01*
X49452438Y-108733095D02*
X49500057Y-108685476D01*
X49500057Y-108685476D02*
X49595295Y-108637857D01*
X49595295Y-108637857D02*
X49738152Y-108637857D01*
X49738152Y-108637857D02*
X49833390Y-108685476D01*
X49833390Y-108685476D02*
X49881009Y-108733095D01*
X49881009Y-108733095D02*
X49928628Y-108828333D01*
X49928628Y-108828333D02*
X49928628Y-109209285D01*
X50404819Y-107685476D02*
X50404819Y-108256904D01*
X50404819Y-107971190D02*
X49404819Y-107971190D01*
X49404819Y-107971190D02*
X49547676Y-108066428D01*
X49547676Y-108066428D02*
X49642914Y-108161666D01*
X49642914Y-108161666D02*
X49690533Y-108256904D01*
X49404819Y-106780714D02*
X49404819Y-107256904D01*
X49404819Y-107256904D02*
X49881009Y-107304523D01*
X49881009Y-107304523D02*
X49833390Y-107256904D01*
X49833390Y-107256904D02*
X49785771Y-107161666D01*
X49785771Y-107161666D02*
X49785771Y-106923571D01*
X49785771Y-106923571D02*
X49833390Y-106828333D01*
X49833390Y-106828333D02*
X49881009Y-106780714D01*
X49881009Y-106780714D02*
X49976247Y-106733095D01*
X49976247Y-106733095D02*
X50214342Y-106733095D01*
X50214342Y-106733095D02*
X50309580Y-106780714D01*
X50309580Y-106780714D02*
X50357200Y-106828333D01*
X50357200Y-106828333D02*
X50404819Y-106923571D01*
X50404819Y-106923571D02*
X50404819Y-107161666D01*
X50404819Y-107161666D02*
X50357200Y-107256904D01*
X50357200Y-107256904D02*
X50309580Y-107304523D01*
X49727142Y-50064819D02*
X49393809Y-49588628D01*
X49155714Y-50064819D02*
X49155714Y-49064819D01*
X49155714Y-49064819D02*
X49536666Y-49064819D01*
X49536666Y-49064819D02*
X49631904Y-49112438D01*
X49631904Y-49112438D02*
X49679523Y-49160057D01*
X49679523Y-49160057D02*
X49727142Y-49255295D01*
X49727142Y-49255295D02*
X49727142Y-49398152D01*
X49727142Y-49398152D02*
X49679523Y-49493390D01*
X49679523Y-49493390D02*
X49631904Y-49541009D01*
X49631904Y-49541009D02*
X49536666Y-49588628D01*
X49536666Y-49588628D02*
X49155714Y-49588628D01*
X50679523Y-50064819D02*
X50108095Y-50064819D01*
X50393809Y-50064819D02*
X50393809Y-49064819D01*
X50393809Y-49064819D02*
X50298571Y-49207676D01*
X50298571Y-49207676D02*
X50203333Y-49302914D01*
X50203333Y-49302914D02*
X50108095Y-49350533D01*
X51012857Y-49064819D02*
X51631904Y-49064819D01*
X51631904Y-49064819D02*
X51298571Y-49445771D01*
X51298571Y-49445771D02*
X51441428Y-49445771D01*
X51441428Y-49445771D02*
X51536666Y-49493390D01*
X51536666Y-49493390D02*
X51584285Y-49541009D01*
X51584285Y-49541009D02*
X51631904Y-49636247D01*
X51631904Y-49636247D02*
X51631904Y-49874342D01*
X51631904Y-49874342D02*
X51584285Y-49969580D01*
X51584285Y-49969580D02*
X51536666Y-50017200D01*
X51536666Y-50017200D02*
X51441428Y-50064819D01*
X51441428Y-50064819D02*
X51155714Y-50064819D01*
X51155714Y-50064819D02*
X51060476Y-50017200D01*
X51060476Y-50017200D02*
X51012857Y-49969580D01*
D10*
X58758609Y-98392782D02*
X58806228Y-98249925D01*
X58806228Y-98249925D02*
X58853847Y-98202306D01*
X58853847Y-98202306D02*
X58949085Y-98154687D01*
X58949085Y-98154687D02*
X59091942Y-98154687D01*
X59091942Y-98154687D02*
X59187180Y-98202306D01*
X59187180Y-98202306D02*
X59234800Y-98249925D01*
X59234800Y-98249925D02*
X59282419Y-98345163D01*
X59282419Y-98345163D02*
X59282419Y-98726115D01*
X59282419Y-98726115D02*
X58282419Y-98726115D01*
X58282419Y-98726115D02*
X58282419Y-98392782D01*
X58282419Y-98392782D02*
X58330038Y-98297544D01*
X58330038Y-98297544D02*
X58377657Y-98249925D01*
X58377657Y-98249925D02*
X58472895Y-98202306D01*
X58472895Y-98202306D02*
X58568133Y-98202306D01*
X58568133Y-98202306D02*
X58663371Y-98249925D01*
X58663371Y-98249925D02*
X58710990Y-98297544D01*
X58710990Y-98297544D02*
X58758609Y-98392782D01*
X58758609Y-98392782D02*
X58758609Y-98726115D01*
X58996704Y-97773734D02*
X58996704Y-97297544D01*
X59282419Y-97868972D02*
X58282419Y-97535639D01*
X58282419Y-97535639D02*
X59282419Y-97202306D01*
X58282419Y-97011829D02*
X58282419Y-96440401D01*
X59282419Y-96726115D02*
X58282419Y-96726115D01*
X58901466Y-96107067D02*
X58901466Y-95345163D01*
X56158609Y-98392782D02*
X56206228Y-98249925D01*
X56206228Y-98249925D02*
X56253847Y-98202306D01*
X56253847Y-98202306D02*
X56349085Y-98154687D01*
X56349085Y-98154687D02*
X56491942Y-98154687D01*
X56491942Y-98154687D02*
X56587180Y-98202306D01*
X56587180Y-98202306D02*
X56634800Y-98249925D01*
X56634800Y-98249925D02*
X56682419Y-98345163D01*
X56682419Y-98345163D02*
X56682419Y-98726115D01*
X56682419Y-98726115D02*
X55682419Y-98726115D01*
X55682419Y-98726115D02*
X55682419Y-98392782D01*
X55682419Y-98392782D02*
X55730038Y-98297544D01*
X55730038Y-98297544D02*
X55777657Y-98249925D01*
X55777657Y-98249925D02*
X55872895Y-98202306D01*
X55872895Y-98202306D02*
X55968133Y-98202306D01*
X55968133Y-98202306D02*
X56063371Y-98249925D01*
X56063371Y-98249925D02*
X56110990Y-98297544D01*
X56110990Y-98297544D02*
X56158609Y-98392782D01*
X56158609Y-98392782D02*
X56158609Y-98726115D01*
X56396704Y-97773734D02*
X56396704Y-97297544D01*
X56682419Y-97868972D02*
X55682419Y-97535639D01*
X55682419Y-97535639D02*
X56682419Y-97202306D01*
X55682419Y-97011829D02*
X55682419Y-96440401D01*
X56682419Y-96726115D02*
X55682419Y-96726115D01*
X56301466Y-96107067D02*
X56301466Y-95345163D01*
X56682419Y-95726115D02*
X55920514Y-95726115D01*
D11*
X53183095Y-51394819D02*
X53183095Y-52204342D01*
X53183095Y-52204342D02*
X53230714Y-52299580D01*
X53230714Y-52299580D02*
X53278333Y-52347200D01*
X53278333Y-52347200D02*
X53373571Y-52394819D01*
X53373571Y-52394819D02*
X53564047Y-52394819D01*
X53564047Y-52394819D02*
X53659285Y-52347200D01*
X53659285Y-52347200D02*
X53706904Y-52299580D01*
X53706904Y-52299580D02*
X53754523Y-52204342D01*
X53754523Y-52204342D02*
X53754523Y-51394819D01*
X54659285Y-51728152D02*
X54659285Y-52394819D01*
X54421190Y-51347200D02*
X54183095Y-52061485D01*
X54183095Y-52061485D02*
X54802142Y-52061485D01*
X54854405Y-109534819D02*
X54854405Y-108534819D01*
X54854405Y-108534819D02*
X55092500Y-108534819D01*
X55092500Y-108534819D02*
X55235357Y-108582438D01*
X55235357Y-108582438D02*
X55330595Y-108677676D01*
X55330595Y-108677676D02*
X55378214Y-108772914D01*
X55378214Y-108772914D02*
X55425833Y-108963390D01*
X55425833Y-108963390D02*
X55425833Y-109106247D01*
X55425833Y-109106247D02*
X55378214Y-109296723D01*
X55378214Y-109296723D02*
X55330595Y-109391961D01*
X55330595Y-109391961D02*
X55235357Y-109487200D01*
X55235357Y-109487200D02*
X55092500Y-109534819D01*
X55092500Y-109534819D02*
X54854405Y-109534819D01*
X55806786Y-108630057D02*
X55854405Y-108582438D01*
X55854405Y-108582438D02*
X55949643Y-108534819D01*
X55949643Y-108534819D02*
X56187738Y-108534819D01*
X56187738Y-108534819D02*
X56282976Y-108582438D01*
X56282976Y-108582438D02*
X56330595Y-108630057D01*
X56330595Y-108630057D02*
X56378214Y-108725295D01*
X56378214Y-108725295D02*
X56378214Y-108820533D01*
X56378214Y-108820533D02*
X56330595Y-108963390D01*
X56330595Y-108963390D02*
X55759167Y-109534819D01*
X55759167Y-109534819D02*
X56378214Y-109534819D01*
X44327142Y-108259580D02*
X44279523Y-108307200D01*
X44279523Y-108307200D02*
X44136666Y-108354819D01*
X44136666Y-108354819D02*
X44041428Y-108354819D01*
X44041428Y-108354819D02*
X43898571Y-108307200D01*
X43898571Y-108307200D02*
X43803333Y-108211961D01*
X43803333Y-108211961D02*
X43755714Y-108116723D01*
X43755714Y-108116723D02*
X43708095Y-107926247D01*
X43708095Y-107926247D02*
X43708095Y-107783390D01*
X43708095Y-107783390D02*
X43755714Y-107592914D01*
X43755714Y-107592914D02*
X43803333Y-107497676D01*
X43803333Y-107497676D02*
X43898571Y-107402438D01*
X43898571Y-107402438D02*
X44041428Y-107354819D01*
X44041428Y-107354819D02*
X44136666Y-107354819D01*
X44136666Y-107354819D02*
X44279523Y-107402438D01*
X44279523Y-107402438D02*
X44327142Y-107450057D01*
X45279523Y-108354819D02*
X44708095Y-108354819D01*
X44993809Y-108354819D02*
X44993809Y-107354819D01*
X44993809Y-107354819D02*
X44898571Y-107497676D01*
X44898571Y-107497676D02*
X44803333Y-107592914D01*
X44803333Y-107592914D02*
X44708095Y-107640533D01*
X46231904Y-108354819D02*
X45660476Y-108354819D01*
X45946190Y-108354819D02*
X45946190Y-107354819D01*
X45946190Y-107354819D02*
X45850952Y-107497676D01*
X45850952Y-107497676D02*
X45755714Y-107592914D01*
X45755714Y-107592914D02*
X45660476Y-107640533D01*
X43745180Y-48466666D02*
X43030895Y-48466666D01*
X43030895Y-48466666D02*
X42888038Y-48419047D01*
X42888038Y-48419047D02*
X42792800Y-48323809D01*
X42792800Y-48323809D02*
X42745180Y-48180952D01*
X42745180Y-48180952D02*
X42745180Y-48085714D01*
X43411847Y-49371428D02*
X42745180Y-49371428D01*
X43792800Y-49133333D02*
X43078514Y-48895238D01*
X43078514Y-48895238D02*
X43078514Y-49514285D01*
X53853333Y-50114819D02*
X53520000Y-49638628D01*
X53281905Y-50114819D02*
X53281905Y-49114819D01*
X53281905Y-49114819D02*
X53662857Y-49114819D01*
X53662857Y-49114819D02*
X53758095Y-49162438D01*
X53758095Y-49162438D02*
X53805714Y-49210057D01*
X53805714Y-49210057D02*
X53853333Y-49305295D01*
X53853333Y-49305295D02*
X53853333Y-49448152D01*
X53853333Y-49448152D02*
X53805714Y-49543390D01*
X53805714Y-49543390D02*
X53758095Y-49591009D01*
X53758095Y-49591009D02*
X53662857Y-49638628D01*
X53662857Y-49638628D02*
X53281905Y-49638628D01*
X54329524Y-50114819D02*
X54520000Y-50114819D01*
X54520000Y-50114819D02*
X54615238Y-50067200D01*
X54615238Y-50067200D02*
X54662857Y-50019580D01*
X54662857Y-50019580D02*
X54758095Y-49876723D01*
X54758095Y-49876723D02*
X54805714Y-49686247D01*
X54805714Y-49686247D02*
X54805714Y-49305295D01*
X54805714Y-49305295D02*
X54758095Y-49210057D01*
X54758095Y-49210057D02*
X54710476Y-49162438D01*
X54710476Y-49162438D02*
X54615238Y-49114819D01*
X54615238Y-49114819D02*
X54424762Y-49114819D01*
X54424762Y-49114819D02*
X54329524Y-49162438D01*
X54329524Y-49162438D02*
X54281905Y-49210057D01*
X54281905Y-49210057D02*
X54234286Y-49305295D01*
X54234286Y-49305295D02*
X54234286Y-49543390D01*
X54234286Y-49543390D02*
X54281905Y-49638628D01*
X54281905Y-49638628D02*
X54329524Y-49686247D01*
X54329524Y-49686247D02*
X54424762Y-49733866D01*
X54424762Y-49733866D02*
X54615238Y-49733866D01*
X54615238Y-49733866D02*
X54710476Y-49686247D01*
X54710476Y-49686247D02*
X54758095Y-49638628D01*
X54758095Y-49638628D02*
X54805714Y-49543390D01*
X35606666Y-62884819D02*
X35606666Y-63599104D01*
X35606666Y-63599104D02*
X35559047Y-63741961D01*
X35559047Y-63741961D02*
X35463809Y-63837200D01*
X35463809Y-63837200D02*
X35320952Y-63884819D01*
X35320952Y-63884819D02*
X35225714Y-63884819D01*
X36606666Y-63884819D02*
X36035238Y-63884819D01*
X36320952Y-63884819D02*
X36320952Y-62884819D01*
X36320952Y-62884819D02*
X36225714Y-63027676D01*
X36225714Y-63027676D02*
X36130476Y-63122914D01*
X36130476Y-63122914D02*
X36035238Y-63170533D01*
X74237319Y-64793333D02*
X74951604Y-64793333D01*
X74951604Y-64793333D02*
X75094461Y-64840952D01*
X75094461Y-64840952D02*
X75189700Y-64936190D01*
X75189700Y-64936190D02*
X75237319Y-65079047D01*
X75237319Y-65079047D02*
X75237319Y-65174285D01*
X74237319Y-63888571D02*
X74237319Y-64079047D01*
X74237319Y-64079047D02*
X74284938Y-64174285D01*
X74284938Y-64174285D02*
X74332557Y-64221904D01*
X74332557Y-64221904D02*
X74475414Y-64317142D01*
X74475414Y-64317142D02*
X74665890Y-64364761D01*
X74665890Y-64364761D02*
X75046842Y-64364761D01*
X75046842Y-64364761D02*
X75142080Y-64317142D01*
X75142080Y-64317142D02*
X75189700Y-64269523D01*
X75189700Y-64269523D02*
X75237319Y-64174285D01*
X75237319Y-64174285D02*
X75237319Y-63983809D01*
X75237319Y-63983809D02*
X75189700Y-63888571D01*
X75189700Y-63888571D02*
X75142080Y-63840952D01*
X75142080Y-63840952D02*
X75046842Y-63793333D01*
X75046842Y-63793333D02*
X74808747Y-63793333D01*
X74808747Y-63793333D02*
X74713509Y-63840952D01*
X74713509Y-63840952D02*
X74665890Y-63888571D01*
X74665890Y-63888571D02*
X74618271Y-63983809D01*
X74618271Y-63983809D02*
X74618271Y-64174285D01*
X74618271Y-64174285D02*
X74665890Y-64269523D01*
X74665890Y-64269523D02*
X74713509Y-64317142D01*
X74713509Y-64317142D02*
X74808747Y-64364761D01*
X60099819Y-51581666D02*
X59623628Y-51914999D01*
X60099819Y-52153094D02*
X59099819Y-52153094D01*
X59099819Y-52153094D02*
X59099819Y-51772142D01*
X59099819Y-51772142D02*
X59147438Y-51676904D01*
X59147438Y-51676904D02*
X59195057Y-51629285D01*
X59195057Y-51629285D02*
X59290295Y-51581666D01*
X59290295Y-51581666D02*
X59433152Y-51581666D01*
X59433152Y-51581666D02*
X59528390Y-51629285D01*
X59528390Y-51629285D02*
X59576009Y-51676904D01*
X59576009Y-51676904D02*
X59623628Y-51772142D01*
X59623628Y-51772142D02*
X59623628Y-52153094D01*
X60099819Y-50629285D02*
X60099819Y-51200713D01*
X60099819Y-50914999D02*
X59099819Y-50914999D01*
X59099819Y-50914999D02*
X59242676Y-51010237D01*
X59242676Y-51010237D02*
X59337914Y-51105475D01*
X59337914Y-51105475D02*
X59385533Y-51200713D01*
X72724819Y-117693333D02*
X73439104Y-117693333D01*
X73439104Y-117693333D02*
X73581961Y-117740952D01*
X73581961Y-117740952D02*
X73677200Y-117836190D01*
X73677200Y-117836190D02*
X73724819Y-117979047D01*
X73724819Y-117979047D02*
X73724819Y-118074285D01*
X72820057Y-117264761D02*
X72772438Y-117217142D01*
X72772438Y-117217142D02*
X72724819Y-117121904D01*
X72724819Y-117121904D02*
X72724819Y-116883809D01*
X72724819Y-116883809D02*
X72772438Y-116788571D01*
X72772438Y-116788571D02*
X72820057Y-116740952D01*
X72820057Y-116740952D02*
X72915295Y-116693333D01*
X72915295Y-116693333D02*
X73010533Y-116693333D01*
X73010533Y-116693333D02*
X73153390Y-116740952D01*
X73153390Y-116740952D02*
X73724819Y-117312380D01*
X73724819Y-117312380D02*
X73724819Y-116693333D01*
X52278333Y-60554819D02*
X51945000Y-60078628D01*
X51706905Y-60554819D02*
X51706905Y-59554819D01*
X51706905Y-59554819D02*
X52087857Y-59554819D01*
X52087857Y-59554819D02*
X52183095Y-59602438D01*
X52183095Y-59602438D02*
X52230714Y-59650057D01*
X52230714Y-59650057D02*
X52278333Y-59745295D01*
X52278333Y-59745295D02*
X52278333Y-59888152D01*
X52278333Y-59888152D02*
X52230714Y-59983390D01*
X52230714Y-59983390D02*
X52183095Y-60031009D01*
X52183095Y-60031009D02*
X52087857Y-60078628D01*
X52087857Y-60078628D02*
X51706905Y-60078628D01*
X53135476Y-59888152D02*
X53135476Y-60554819D01*
X52897381Y-59507200D02*
X52659286Y-60221485D01*
X52659286Y-60221485D02*
X53278333Y-60221485D01*
X50759405Y-109484819D02*
X50759405Y-108484819D01*
X50759405Y-108484819D02*
X50997500Y-108484819D01*
X50997500Y-108484819D02*
X51140357Y-108532438D01*
X51140357Y-108532438D02*
X51235595Y-108627676D01*
X51235595Y-108627676D02*
X51283214Y-108722914D01*
X51283214Y-108722914D02*
X51330833Y-108913390D01*
X51330833Y-108913390D02*
X51330833Y-109056247D01*
X51330833Y-109056247D02*
X51283214Y-109246723D01*
X51283214Y-109246723D02*
X51235595Y-109341961D01*
X51235595Y-109341961D02*
X51140357Y-109437200D01*
X51140357Y-109437200D02*
X50997500Y-109484819D01*
X50997500Y-109484819D02*
X50759405Y-109484819D01*
X51664167Y-108484819D02*
X52283214Y-108484819D01*
X52283214Y-108484819D02*
X51949881Y-108865771D01*
X51949881Y-108865771D02*
X52092738Y-108865771D01*
X52092738Y-108865771D02*
X52187976Y-108913390D01*
X52187976Y-108913390D02*
X52235595Y-108961009D01*
X52235595Y-108961009D02*
X52283214Y-109056247D01*
X52283214Y-109056247D02*
X52283214Y-109294342D01*
X52283214Y-109294342D02*
X52235595Y-109389580D01*
X52235595Y-109389580D02*
X52187976Y-109437200D01*
X52187976Y-109437200D02*
X52092738Y-109484819D01*
X52092738Y-109484819D02*
X51807024Y-109484819D01*
X51807024Y-109484819D02*
X51711786Y-109437200D01*
X51711786Y-109437200D02*
X51664167Y-109389580D01*
X61124819Y-108297857D02*
X60648628Y-108631190D01*
X61124819Y-108869285D02*
X60124819Y-108869285D01*
X60124819Y-108869285D02*
X60124819Y-108488333D01*
X60124819Y-108488333D02*
X60172438Y-108393095D01*
X60172438Y-108393095D02*
X60220057Y-108345476D01*
X60220057Y-108345476D02*
X60315295Y-108297857D01*
X60315295Y-108297857D02*
X60458152Y-108297857D01*
X60458152Y-108297857D02*
X60553390Y-108345476D01*
X60553390Y-108345476D02*
X60601009Y-108393095D01*
X60601009Y-108393095D02*
X60648628Y-108488333D01*
X60648628Y-108488333D02*
X60648628Y-108869285D01*
X61124819Y-107345476D02*
X61124819Y-107916904D01*
X61124819Y-107631190D02*
X60124819Y-107631190D01*
X60124819Y-107631190D02*
X60267676Y-107726428D01*
X60267676Y-107726428D02*
X60362914Y-107821666D01*
X60362914Y-107821666D02*
X60410533Y-107916904D01*
X60553390Y-106774047D02*
X60505771Y-106869285D01*
X60505771Y-106869285D02*
X60458152Y-106916904D01*
X60458152Y-106916904D02*
X60362914Y-106964523D01*
X60362914Y-106964523D02*
X60315295Y-106964523D01*
X60315295Y-106964523D02*
X60220057Y-106916904D01*
X60220057Y-106916904D02*
X60172438Y-106869285D01*
X60172438Y-106869285D02*
X60124819Y-106774047D01*
X60124819Y-106774047D02*
X60124819Y-106583571D01*
X60124819Y-106583571D02*
X60172438Y-106488333D01*
X60172438Y-106488333D02*
X60220057Y-106440714D01*
X60220057Y-106440714D02*
X60315295Y-106393095D01*
X60315295Y-106393095D02*
X60362914Y-106393095D01*
X60362914Y-106393095D02*
X60458152Y-106440714D01*
X60458152Y-106440714D02*
X60505771Y-106488333D01*
X60505771Y-106488333D02*
X60553390Y-106583571D01*
X60553390Y-106583571D02*
X60553390Y-106774047D01*
X60553390Y-106774047D02*
X60601009Y-106869285D01*
X60601009Y-106869285D02*
X60648628Y-106916904D01*
X60648628Y-106916904D02*
X60743866Y-106964523D01*
X60743866Y-106964523D02*
X60934342Y-106964523D01*
X60934342Y-106964523D02*
X61029580Y-106916904D01*
X61029580Y-106916904D02*
X61077200Y-106869285D01*
X61077200Y-106869285D02*
X61124819Y-106774047D01*
X61124819Y-106774047D02*
X61124819Y-106583571D01*
X61124819Y-106583571D02*
X61077200Y-106488333D01*
X61077200Y-106488333D02*
X61029580Y-106440714D01*
X61029580Y-106440714D02*
X60934342Y-106393095D01*
X60934342Y-106393095D02*
X60743866Y-106393095D01*
X60743866Y-106393095D02*
X60648628Y-106440714D01*
X60648628Y-106440714D02*
X60601009Y-106488333D01*
X60601009Y-106488333D02*
X60553390Y-106583571D01*
X64604819Y-49303333D02*
X65319104Y-49303333D01*
X65319104Y-49303333D02*
X65461961Y-49350952D01*
X65461961Y-49350952D02*
X65557200Y-49446190D01*
X65557200Y-49446190D02*
X65604819Y-49589047D01*
X65604819Y-49589047D02*
X65604819Y-49684285D01*
X64604819Y-48350952D02*
X64604819Y-48827142D01*
X64604819Y-48827142D02*
X65081009Y-48874761D01*
X65081009Y-48874761D02*
X65033390Y-48827142D01*
X65033390Y-48827142D02*
X64985771Y-48731904D01*
X64985771Y-48731904D02*
X64985771Y-48493809D01*
X64985771Y-48493809D02*
X65033390Y-48398571D01*
X65033390Y-48398571D02*
X65081009Y-48350952D01*
X65081009Y-48350952D02*
X65176247Y-48303333D01*
X65176247Y-48303333D02*
X65414342Y-48303333D01*
X65414342Y-48303333D02*
X65509580Y-48350952D01*
X65509580Y-48350952D02*
X65557200Y-48398571D01*
X65557200Y-48398571D02*
X65604819Y-48493809D01*
X65604819Y-48493809D02*
X65604819Y-48731904D01*
X65604819Y-48731904D02*
X65557200Y-48827142D01*
X65557200Y-48827142D02*
X65509580Y-48874761D01*
X50934819Y-94606666D02*
X50458628Y-94939999D01*
X50934819Y-95178094D02*
X49934819Y-95178094D01*
X49934819Y-95178094D02*
X49934819Y-94797142D01*
X49934819Y-94797142D02*
X49982438Y-94701904D01*
X49982438Y-94701904D02*
X50030057Y-94654285D01*
X50030057Y-94654285D02*
X50125295Y-94606666D01*
X50125295Y-94606666D02*
X50268152Y-94606666D01*
X50268152Y-94606666D02*
X50363390Y-94654285D01*
X50363390Y-94654285D02*
X50411009Y-94701904D01*
X50411009Y-94701904D02*
X50458628Y-94797142D01*
X50458628Y-94797142D02*
X50458628Y-95178094D01*
X50030057Y-94225713D02*
X49982438Y-94178094D01*
X49982438Y-94178094D02*
X49934819Y-94082856D01*
X49934819Y-94082856D02*
X49934819Y-93844761D01*
X49934819Y-93844761D02*
X49982438Y-93749523D01*
X49982438Y-93749523D02*
X50030057Y-93701904D01*
X50030057Y-93701904D02*
X50125295Y-93654285D01*
X50125295Y-93654285D02*
X50220533Y-93654285D01*
X50220533Y-93654285D02*
X50363390Y-93701904D01*
X50363390Y-93701904D02*
X50934819Y-94273332D01*
X50934819Y-94273332D02*
X50934819Y-93654285D01*
X39803333Y-93629580D02*
X39755714Y-93677200D01*
X39755714Y-93677200D02*
X39612857Y-93724819D01*
X39612857Y-93724819D02*
X39517619Y-93724819D01*
X39517619Y-93724819D02*
X39374762Y-93677200D01*
X39374762Y-93677200D02*
X39279524Y-93581961D01*
X39279524Y-93581961D02*
X39231905Y-93486723D01*
X39231905Y-93486723D02*
X39184286Y-93296247D01*
X39184286Y-93296247D02*
X39184286Y-93153390D01*
X39184286Y-93153390D02*
X39231905Y-92962914D01*
X39231905Y-92962914D02*
X39279524Y-92867676D01*
X39279524Y-92867676D02*
X39374762Y-92772438D01*
X39374762Y-92772438D02*
X39517619Y-92724819D01*
X39517619Y-92724819D02*
X39612857Y-92724819D01*
X39612857Y-92724819D02*
X39755714Y-92772438D01*
X39755714Y-92772438D02*
X39803333Y-92820057D01*
X40184286Y-92820057D02*
X40231905Y-92772438D01*
X40231905Y-92772438D02*
X40327143Y-92724819D01*
X40327143Y-92724819D02*
X40565238Y-92724819D01*
X40565238Y-92724819D02*
X40660476Y-92772438D01*
X40660476Y-92772438D02*
X40708095Y-92820057D01*
X40708095Y-92820057D02*
X40755714Y-92915295D01*
X40755714Y-92915295D02*
X40755714Y-93010533D01*
X40755714Y-93010533D02*
X40708095Y-93153390D01*
X40708095Y-93153390D02*
X40136667Y-93724819D01*
X40136667Y-93724819D02*
X40755714Y-93724819D01*
X74327319Y-78523333D02*
X75041604Y-78523333D01*
X75041604Y-78523333D02*
X75184461Y-78570952D01*
X75184461Y-78570952D02*
X75279700Y-78666190D01*
X75279700Y-78666190D02*
X75327319Y-78809047D01*
X75327319Y-78809047D02*
X75327319Y-78904285D01*
X74327319Y-78142380D02*
X74327319Y-77523333D01*
X74327319Y-77523333D02*
X74708271Y-77856666D01*
X74708271Y-77856666D02*
X74708271Y-77713809D01*
X74708271Y-77713809D02*
X74755890Y-77618571D01*
X74755890Y-77618571D02*
X74803509Y-77570952D01*
X74803509Y-77570952D02*
X74898747Y-77523333D01*
X74898747Y-77523333D02*
X75136842Y-77523333D01*
X75136842Y-77523333D02*
X75232080Y-77570952D01*
X75232080Y-77570952D02*
X75279700Y-77618571D01*
X75279700Y-77618571D02*
X75327319Y-77713809D01*
X75327319Y-77713809D02*
X75327319Y-77999523D01*
X75327319Y-77999523D02*
X75279700Y-78094761D01*
X75279700Y-78094761D02*
X75232080Y-78142380D01*
X37516667Y-55377200D02*
X37659524Y-55424819D01*
X37659524Y-55424819D02*
X37897619Y-55424819D01*
X37897619Y-55424819D02*
X37992857Y-55377200D01*
X37992857Y-55377200D02*
X38040476Y-55329580D01*
X38040476Y-55329580D02*
X38088095Y-55234342D01*
X38088095Y-55234342D02*
X38088095Y-55139104D01*
X38088095Y-55139104D02*
X38040476Y-55043866D01*
X38040476Y-55043866D02*
X37992857Y-54996247D01*
X37992857Y-54996247D02*
X37897619Y-54948628D01*
X37897619Y-54948628D02*
X37707143Y-54901009D01*
X37707143Y-54901009D02*
X37611905Y-54853390D01*
X37611905Y-54853390D02*
X37564286Y-54805771D01*
X37564286Y-54805771D02*
X37516667Y-54710533D01*
X37516667Y-54710533D02*
X37516667Y-54615295D01*
X37516667Y-54615295D02*
X37564286Y-54520057D01*
X37564286Y-54520057D02*
X37611905Y-54472438D01*
X37611905Y-54472438D02*
X37707143Y-54424819D01*
X37707143Y-54424819D02*
X37945238Y-54424819D01*
X37945238Y-54424819D02*
X38088095Y-54472438D01*
X38421429Y-54424819D02*
X38659524Y-55424819D01*
X38659524Y-55424819D02*
X38850000Y-54710533D01*
X38850000Y-54710533D02*
X39040476Y-55424819D01*
X39040476Y-55424819D02*
X39278572Y-54424819D01*
X39611905Y-54520057D02*
X39659524Y-54472438D01*
X39659524Y-54472438D02*
X39754762Y-54424819D01*
X39754762Y-54424819D02*
X39992857Y-54424819D01*
X39992857Y-54424819D02*
X40088095Y-54472438D01*
X40088095Y-54472438D02*
X40135714Y-54520057D01*
X40135714Y-54520057D02*
X40183333Y-54615295D01*
X40183333Y-54615295D02*
X40183333Y-54710533D01*
X40183333Y-54710533D02*
X40135714Y-54853390D01*
X40135714Y-54853390D02*
X39564286Y-55424819D01*
X39564286Y-55424819D02*
X40183333Y-55424819D01*
X52941904Y-93745180D02*
X52941904Y-92935657D01*
X52941904Y-92935657D02*
X52894285Y-92840419D01*
X52894285Y-92840419D02*
X52846666Y-92792800D01*
X52846666Y-92792800D02*
X52751428Y-92745180D01*
X52751428Y-92745180D02*
X52560952Y-92745180D01*
X52560952Y-92745180D02*
X52465714Y-92792800D01*
X52465714Y-92792800D02*
X52418095Y-92840419D01*
X52418095Y-92840419D02*
X52370476Y-92935657D01*
X52370476Y-92935657D02*
X52370476Y-93745180D01*
X51941904Y-93649942D02*
X51894285Y-93697561D01*
X51894285Y-93697561D02*
X51799047Y-93745180D01*
X51799047Y-93745180D02*
X51560952Y-93745180D01*
X51560952Y-93745180D02*
X51465714Y-93697561D01*
X51465714Y-93697561D02*
X51418095Y-93649942D01*
X51418095Y-93649942D02*
X51370476Y-93554704D01*
X51370476Y-93554704D02*
X51370476Y-93459466D01*
X51370476Y-93459466D02*
X51418095Y-93316609D01*
X51418095Y-93316609D02*
X51989523Y-92745180D01*
X51989523Y-92745180D02*
X51370476Y-92745180D01*
D12*
%TO.C,U1*%
X53110000Y-104390000D02*
X51160000Y-104390000D01*
X53110000Y-104390000D02*
X55060000Y-104390000D01*
X53110000Y-109510000D02*
X51160000Y-109510000D01*
X53110000Y-109510000D02*
X55060000Y-109510000D01*
X56050000Y-109745000D02*
X55570000Y-109745000D01*
X55810000Y-109415000D01*
X56050000Y-109745000D01*
G36*
X56050000Y-109745000D02*
G01*
X55570000Y-109745000D01*
X55810000Y-109415000D01*
X56050000Y-109745000D01*
G37*
%TO.C,R20*%
X51537500Y-70577742D02*
X51537500Y-71052258D01*
X52582500Y-70577742D02*
X52582500Y-71052258D01*
%TO.C,R22*%
X55877500Y-77517742D02*
X55877500Y-77992258D01*
X56922500Y-77517742D02*
X56922500Y-77992258D01*
%TO.C,R19*%
X37527500Y-94227258D02*
X37527500Y-93752742D01*
X38572500Y-94227258D02*
X38572500Y-93752742D01*
%TO.C,R14*%
X54142742Y-102887500D02*
X54617258Y-102887500D01*
X54142742Y-103932500D02*
X54617258Y-103932500D01*
%TO.C,D1*%
X44222500Y-112335000D02*
X46507500Y-112335000D01*
X46507500Y-110865000D02*
X44222500Y-110865000D01*
X46507500Y-112335000D02*
X46507500Y-110865000D01*
%TO.C,R7*%
X66467500Y-103532258D02*
X66467500Y-103057742D01*
X67512500Y-103532258D02*
X67512500Y-103057742D01*
%TO.C,R3*%
X45317500Y-113652742D02*
X45317500Y-114127258D01*
X46362500Y-113652742D02*
X46362500Y-114127258D01*
%TO.C,R11*%
X57632500Y-58687742D02*
X57632500Y-59162258D01*
X58677500Y-58687742D02*
X58677500Y-59162258D01*
%TO.C,C1*%
X51782164Y-103310000D02*
X51997836Y-103310000D01*
X51782164Y-104030000D02*
X51997836Y-104030000D01*
%TO.C,R8*%
X62427742Y-53117500D02*
X62902258Y-53117500D01*
X62427742Y-54162500D02*
X62902258Y-54162500D01*
%TO.C,R16*%
X58667500Y-110677742D02*
X58667500Y-111152258D01*
X59712500Y-110677742D02*
X59712500Y-111152258D01*
%TO.C,J9*%
X70090000Y-105530000D02*
X68390000Y-105530000D01*
X70090000Y-114870000D02*
X68390000Y-114870000D01*
%TO.C,R6*%
X70807500Y-103537258D02*
X70807500Y-103062742D01*
X71852500Y-103537258D02*
X71852500Y-103062742D01*
%TO.C,C12*%
X43760000Y-113724420D02*
X43760000Y-114005580D01*
X44780000Y-113724420D02*
X44780000Y-114005580D01*
%TO.C,R5*%
X55212742Y-58177500D02*
X55687258Y-58177500D01*
X55212742Y-59222500D02*
X55687258Y-59222500D01*
%TO.C,R17*%
X58707500Y-104852258D02*
X58707500Y-104377742D01*
X59752500Y-104852258D02*
X59752500Y-104377742D01*
%TO.C,SW1*%
X35400000Y-101080000D02*
X35400000Y-102580000D01*
X36650000Y-105080000D02*
X41150000Y-105080000D01*
X41150000Y-98580000D02*
X36650000Y-98580000D01*
X42400000Y-102580000D02*
X42400000Y-101080000D01*
%TO.C,R21*%
X55807500Y-80542742D02*
X55807500Y-81017258D01*
X56852500Y-80542742D02*
X56852500Y-81017258D01*
%TO.C,R10*%
X48992500Y-54712258D02*
X48992500Y-54237742D01*
X50037500Y-54712258D02*
X50037500Y-54237742D01*
%TO.C,C3*%
X36187836Y-93700000D02*
X35972164Y-93700000D01*
X36187836Y-94420000D02*
X35972164Y-94420000D01*
%TO.C,R12*%
X59192500Y-58652742D02*
X59192500Y-59127258D01*
X60237500Y-58652742D02*
X60237500Y-59127258D01*
%TO.C,J8*%
X65250000Y-86210000D02*
X73790000Y-86210000D01*
X65250000Y-88280000D02*
X65250000Y-86210000D01*
X65250000Y-97950000D02*
X65250000Y-88880000D01*
X68870000Y-86210000D02*
X68870000Y-86800000D01*
X68870000Y-90360000D02*
X68870000Y-90681000D01*
X68870000Y-93479000D02*
X68870000Y-94181000D01*
X68870000Y-96979000D02*
X68870000Y-97950000D01*
X71069000Y-90680000D02*
X72970000Y-90680000D01*
X71069000Y-94180000D02*
X72970000Y-94180000D01*
X71750000Y-87180000D02*
X72970000Y-87180000D01*
X72970000Y-87180000D02*
X72970000Y-89980000D01*
X72970000Y-89980000D02*
X71750000Y-89980000D01*
X72970000Y-90680000D02*
X72970000Y-93480000D01*
X72970000Y-93480000D02*
X71069000Y-93480000D01*
X72970000Y-94180000D02*
X72970000Y-96980000D01*
X72970000Y-96980000D02*
X71069000Y-96980000D01*
X73790000Y-86210000D02*
X73790000Y-97950000D01*
X73790000Y-97950000D02*
X65250000Y-97950000D01*
X71448000Y-91088000D02*
G75*
G02*
X71448000Y-93072000I122469J-992000D01*
G01*
X71448000Y-94588000D02*
G75*
G02*
X71448000Y-96572000I122469J-992000D01*
G01*
X71750000Y-87596000D02*
G75*
G02*
X71750000Y-89564000I-180400J-984000D01*
G01*
X65250000Y-88580000D02*
X64640000Y-89020000D01*
X64640000Y-88140000D01*
X65250000Y-88580000D01*
G36*
X65250000Y-88580000D02*
G01*
X64640000Y-89020000D01*
X64640000Y-88140000D01*
X65250000Y-88580000D01*
G37*
%TO.C,R15*%
X47997500Y-107757742D02*
X47997500Y-108232258D01*
X49042500Y-107757742D02*
X49042500Y-108232258D01*
%TO.C,R13*%
X50132742Y-50517500D02*
X50607258Y-50517500D01*
X50132742Y-51562500D02*
X50607258Y-51562500D01*
%TO.C,U4*%
X51835000Y-53860000D02*
X51835000Y-53400000D01*
X51835000Y-57380000D02*
X51835000Y-56680000D01*
X52535000Y-53160000D02*
X52135000Y-53160000D01*
X52535000Y-57380000D02*
X51835000Y-57380000D01*
X55355000Y-53160000D02*
X56055000Y-53160000D01*
X55355000Y-57380000D02*
X56055000Y-57380000D01*
X56055000Y-53160000D02*
X56055000Y-53860000D01*
X56055000Y-57380000D02*
X56055000Y-56680000D01*
X51835000Y-53160000D02*
X51595000Y-52830000D01*
X52075000Y-52830000D01*
X51835000Y-53160000D01*
G36*
X51835000Y-53160000D02*
G01*
X51595000Y-52830000D01*
X52075000Y-52830000D01*
X51835000Y-53160000D01*
G37*
%TO.C,D2*%
X54107500Y-109775000D02*
X54107500Y-111245000D01*
X54107500Y-111245000D02*
X56392500Y-111245000D01*
X56392500Y-109775000D02*
X54107500Y-109775000D01*
%TO.C,C11*%
X44829420Y-108820000D02*
X45110580Y-108820000D01*
X44829420Y-109840000D02*
X45110580Y-109840000D01*
%TO.C,J4*%
X38350000Y-44130000D02*
X40050000Y-44130000D01*
X38350000Y-53470000D02*
X40050000Y-53470000D01*
%TO.C,R9*%
X53782742Y-50567500D02*
X54257258Y-50567500D01*
X53782742Y-51612500D02*
X54257258Y-51612500D01*
%TO.C,J1*%
X34560000Y-64430000D02*
X35940000Y-64430000D01*
X34560000Y-65810000D02*
X34560000Y-64430000D01*
X34560000Y-67080000D02*
X34560000Y-72270000D01*
X34560000Y-67080000D02*
X37320000Y-67080000D01*
X34560000Y-72270000D02*
X37320000Y-72270000D01*
X37320000Y-67080000D02*
X37320000Y-72270000D01*
%TO.C,J6*%
X65242500Y-58590000D02*
X73782500Y-58590000D01*
X65242500Y-60660000D02*
X65242500Y-58590000D01*
X65242500Y-70330000D02*
X65242500Y-61260000D01*
X68862500Y-58590000D02*
X68862500Y-59180000D01*
X68862500Y-62740000D02*
X68862500Y-63061000D01*
X68862500Y-65859000D02*
X68862500Y-66561000D01*
X68862500Y-69359000D02*
X68862500Y-70330000D01*
X71061500Y-63060000D02*
X72962500Y-63060000D01*
X71061500Y-66560000D02*
X72962500Y-66560000D01*
X71742500Y-59560000D02*
X72962500Y-59560000D01*
X72962500Y-59560000D02*
X72962500Y-62360000D01*
X72962500Y-62360000D02*
X71742500Y-62360000D01*
X72962500Y-63060000D02*
X72962500Y-65860000D01*
X72962500Y-65860000D02*
X71061500Y-65860000D01*
X72962500Y-66560000D02*
X72962500Y-69360000D01*
X72962500Y-69360000D02*
X71061500Y-69360000D01*
X73782500Y-58590000D02*
X73782500Y-70330000D01*
X73782500Y-70330000D02*
X65242500Y-70330000D01*
X71440500Y-63468000D02*
G75*
G02*
X71440500Y-65452000I122469J-992000D01*
G01*
X71440500Y-66968000D02*
G75*
G02*
X71440500Y-68952000I122469J-992000D01*
G01*
X71742500Y-59976000D02*
G75*
G02*
X71742500Y-61944000I-180400J-984000D01*
G01*
X65242500Y-60960000D02*
X64632500Y-61400000D01*
X64632500Y-60520000D01*
X65242500Y-60960000D01*
G36*
X65242500Y-60960000D02*
G01*
X64632500Y-61400000D01*
X64632500Y-60520000D01*
X65242500Y-60960000D01*
G37*
%TO.C,R1*%
X57692500Y-51177742D02*
X57692500Y-51652258D01*
X58737500Y-51177742D02*
X58737500Y-51652258D01*
%TO.C,C2*%
X36217836Y-94730000D02*
X36002164Y-94730000D01*
X36217836Y-95450000D02*
X36002164Y-95450000D01*
%TO.C,J2*%
X36150000Y-116030000D02*
X36150000Y-118690000D01*
X69230000Y-116030000D02*
X36150000Y-116030000D01*
X69230000Y-116030000D02*
X69230000Y-118690000D01*
X69230000Y-118690000D02*
X36150000Y-118690000D01*
X71830000Y-117360000D02*
X71830000Y-118690000D01*
X71830000Y-118690000D02*
X70500000Y-118690000D01*
%TO.C,R4*%
X52682258Y-58147500D02*
X52207742Y-58147500D01*
X52682258Y-59192500D02*
X52207742Y-59192500D01*
%TO.C,D3*%
X50012500Y-109725000D02*
X50012500Y-111195000D01*
X50012500Y-111195000D02*
X52297500Y-111195000D01*
X52297500Y-109725000D02*
X50012500Y-109725000D01*
%TO.C,R18*%
X58717500Y-107417742D02*
X58717500Y-107892258D01*
X59762500Y-107417742D02*
X59762500Y-107892258D01*
%TO.C,J5*%
X70000000Y-44300000D02*
X68300000Y-44300000D01*
X70000000Y-53640000D02*
X68300000Y-53640000D01*
%TO.C,R2*%
X51437500Y-95447258D02*
X51437500Y-94972742D01*
X52482500Y-95447258D02*
X52482500Y-94972742D01*
%TO.C,C2*%
X36177836Y-92710000D02*
X35962164Y-92710000D01*
X36177836Y-93430000D02*
X35962164Y-93430000D01*
%TO.C,J3*%
X65332500Y-72320000D02*
X73872500Y-72320000D01*
X65332500Y-74390000D02*
X65332500Y-72320000D01*
X65332500Y-84060000D02*
X65332500Y-74990000D01*
X68952500Y-72320000D02*
X68952500Y-72910000D01*
X68952500Y-76470000D02*
X68952500Y-76791000D01*
X68952500Y-79589000D02*
X68952500Y-80291000D01*
X68952500Y-83089000D02*
X68952500Y-84060000D01*
X71151500Y-76790000D02*
X73052500Y-76790000D01*
X71151500Y-80290000D02*
X73052500Y-80290000D01*
X71832500Y-73290000D02*
X73052500Y-73290000D01*
X73052500Y-73290000D02*
X73052500Y-76090000D01*
X73052500Y-76090000D02*
X71832500Y-76090000D01*
X73052500Y-76790000D02*
X73052500Y-79590000D01*
X73052500Y-79590000D02*
X71151500Y-79590000D01*
X73052500Y-80290000D02*
X73052500Y-83090000D01*
X73052500Y-83090000D02*
X71151500Y-83090000D01*
X73872500Y-72320000D02*
X73872500Y-84060000D01*
X73872500Y-84060000D02*
X65332500Y-84060000D01*
X71530500Y-77198000D02*
G75*
G02*
X71530500Y-79182000I122469J-992000D01*
G01*
X71530500Y-80698000D02*
G75*
G02*
X71530500Y-82682000I122469J-992000D01*
G01*
X71832500Y-73706000D02*
G75*
G02*
X71832500Y-75674000I-180400J-984000D01*
G01*
X65332500Y-74690000D02*
X64722500Y-75130000D01*
X64722500Y-74250000D01*
X65332500Y-74690000D01*
G36*
X65332500Y-74690000D02*
G01*
X64722500Y-75130000D01*
X64722500Y-74250000D01*
X65332500Y-74690000D01*
G37*
%TO.C,SW2*%
X35350000Y-58470000D02*
X35350000Y-59970000D01*
X36600000Y-62470000D02*
X41100000Y-62470000D01*
X41100000Y-55970000D02*
X36600000Y-55970000D01*
X42350000Y-59970000D02*
X42350000Y-58470000D01*
%TO.C,U3*%
X37050000Y-108200000D02*
X37050000Y-109460000D01*
X37050000Y-115020000D02*
X37050000Y-113760000D01*
X40810000Y-108200000D02*
X37050000Y-108200000D01*
X40810000Y-115020000D02*
X37050000Y-115020000D01*
X42330000Y-115250000D02*
X41850000Y-115250000D01*
X42090000Y-114920000D01*
X42330000Y-115250000D01*
G36*
X42330000Y-115250000D02*
G01*
X41850000Y-115250000D01*
X42090000Y-114920000D01*
X42330000Y-115250000D01*
G37*
%TO.C,C3*%
X36217836Y-95730000D02*
X36002164Y-95730000D01*
X36217836Y-96450000D02*
X36002164Y-96450000D01*
%TO.C,U2*%
X27880000Y-73500000D02*
X34080000Y-73500000D01*
X27880000Y-91900000D02*
X27880000Y-73500000D01*
X27880000Y-91900000D02*
X34080000Y-91900000D01*
X52730000Y-91900000D02*
X53730000Y-91900000D01*
X53730000Y-73500000D02*
X52730000Y-73500000D01*
X53730000Y-73500000D02*
X53730000Y-75000000D01*
X53730000Y-91900000D02*
X53730000Y-90400000D01*
X34755000Y-92400000D02*
X34255000Y-91900000D01*
X34755000Y-91900000D01*
X34755000Y-92400000D01*
G36*
X34755000Y-92400000D02*
G01*
X34255000Y-91900000D01*
X34755000Y-91900000D01*
X34755000Y-92400000D01*
G37*
%TD*%
M02*
