M48
; DRILL file {KiCad 9.0.3} date 2025-08-17T12:13:40+0200
; FORMAT={-:-/ absolute / metric / decimal}
; #@! TF.CreationDate,2025-08-17T12:13:40+02:00
; #@! TF.GenerationSoftware,Kicad,Pcbnew,9.0.3
; #@! TF.FileFunction,Plated,1,4,PTH
FMAT,2
METRIC
; #@! TA.AperFunction,Plated,PTH,ViaDrill
T1C0.300
; #@! TA.AperFunction,Plated,PTH,ComponentDrill
T2C0.600
; #@! TA.AperFunction,Plated,PTH,ComponentDrill
T3C1.000
; #@! TA.AperFunction,Plated,PTH,ComponentDrill
T4C1.020
; #@! TA.AperFunction,Plated,PTH,ComponentDrill
T5C1.100
; #@! TA.AperFunction,Plated,PTH,ComponentDrill
T6C1.300
%
G90
G05
T1
X34.76Y-96.07
X35.81Y-111.61
X37.48Y-96.1
X41.87Y-95.49
X42.12Y-106.95
X43.24Y-84.2
X43.26Y-106.98
X44.16Y-115.5
X44.22Y-95.47
X44.32Y-106.94
X45.37Y-94.13
X45.94Y-52.43
X47.15Y-105.94
X47.65Y-115.11
X47.93Y-59.89
X48.84Y-105.92
X49.11Y-105.12
X49.63Y-52.26
X50.29Y-76.02
X50.34Y-56.93
X50.35Y-64.6
X50.635Y-107.585
X50.815Y-96.035
X51.02Y-53.18
X51.36Y-75.94
X51.7Y-83.38
X51.86Y-80.76
X52.1Y-68.83
X53.105Y-106.945
X53.27Y-58.67
X53.64Y-110.5
X53.69Y-49.75
X54.18Y-55.43
X54.5Y-72.57
X54.57Y-96.28
X54.625Y-58.7
X54.66Y-93.43
X54.8Y-87.13
X54.84Y-49.72
X55.68Y-106.33
X56.275Y-58.7
X56.32Y-93.24
X56.32Y-96.27
X56.35Y-75.65
X56.46Y-50.14
X56.473Y-52.773
X57.0Y-55.595
X57.35Y-87.15
X57.854Y-107.344
X61.11Y-110.83
X61.17Y-112.71
X61.53Y-50.64
X62.18Y-110.72
X62.19Y-112.76
X63.24Y-107.63
X63.91Y-109.93
X64.89Y-113.66
X64.9Y-112.6
X65.024Y-108.906
X65.3Y-107.61
X72.48Y-102.47
T3
X35.94Y-65.81
X35.94Y-68.35
X35.94Y-70.89
X37.48Y-117.36
X40.02Y-117.36
X42.56Y-117.36
X45.1Y-117.36
X47.64Y-117.36
X50.18Y-117.36
X52.72Y-117.36
X55.26Y-117.36
X57.8Y-117.36
X60.34Y-117.36
X62.88Y-117.36
X65.42Y-117.36
X67.96Y-117.36
X70.5Y-117.36
T4
X56.31Y-100.08
X59.31Y-100.08
T5
X35.6Y-56.97
X35.6Y-61.47
X35.65Y-99.58
X35.65Y-104.08
X42.1Y-56.97
X42.1Y-61.47
X42.15Y-99.58
X42.15Y-104.08
T6
X69.962Y-60.96
X69.962Y-64.46
X69.962Y-67.96
X69.97Y-88.58
X69.97Y-92.08
X69.97Y-95.58
X70.052Y-74.69
X70.052Y-78.19
X70.052Y-81.69
T2
G00X37.6Y-44.48
M15
G01X37.0Y-44.48
M16
G05
G00X37.6Y-53.12
M15
G01X37.0Y-53.12
M16
G05
G00X41.4Y-44.48
M15
G01X40.8Y-44.48
M16
G05
G00X41.4Y-53.12
M15
G01X40.8Y-53.12
M16
G05
G00X66.535Y-105.88
M15
G01X67.635Y-105.88
M16
G05
G00X66.535Y-114.52
M15
G01X67.635Y-114.52
M16
G05
G00X66.95Y-44.65
M15
G01X67.55Y-44.65
M16
G05
G00X66.95Y-53.29
M15
G01X67.55Y-53.29
M16
G05
G00X70.75Y-44.65
M15
G01X71.35Y-44.65
M16
G05
G00X70.75Y-53.29
M15
G01X71.35Y-53.29
M16
G05
G00X70.865Y-105.88
M15
G01X71.665Y-105.88
M16
G05
G00X70.865Y-114.52
M15
G01X71.665Y-114.52
M16
G05
M30
