%TF.GenerationSoftware,KiCad,Pcbnew,9.0.3*%
%TF.CreationDate,2025-08-17T12:13:03+02:00*%
%TF.ProjectId,Esp32_F103_PowerMeter_V1.0,45737033-325f-4463-9130-335f506f7765,rev?*%
%TF.SameCoordinates,Original*%
%TF.FileFunction,Soldermask,Bot*%
%TF.FilePolarity,Negative*%
%FSLAX46Y46*%
G04 Gerber Fmt 4.6, Leading zero omitted, Abs format (unit mm)*
G04 Created by KiCad (PCBNEW 9.0.3) date 2025-08-17 12:13:03*
%MOMM*%
%LPD*%
G01*
G04 APERTURE LIST*
G04 Aperture macros list*
%AMRoundRect*
0 Rectangle with rounded corners*
0 $1 Rounding radius*
0 $2 $3 $4 $5 $6 $7 $8 $9 X,Y pos of 4 corners*
0 Add a 4 corners polygon primitive as box body*
4,1,4,$2,$3,$4,$5,$6,$7,$8,$9,$2,$3,0*
0 Add four circle primitives for the rounded corners*
1,1,$1+$1,$2,$3*
1,1,$1+$1,$4,$5*
1,1,$1+$1,$6,$7*
1,1,$1+$1,$8,$9*
0 Add four rect primitives between the rounded corners*
20,1,$1+$1,$2,$3,$4,$5,0*
20,1,$1+$1,$4,$5,$6,$7,0*
20,1,$1+$1,$6,$7,$8,$9,0*
20,1,$1+$1,$8,$9,$2,$3,0*%
G04 Aperture macros list end*
%ADD10O,2.100000X1.000000*%
%ADD11O,1.800000X1.000000*%
%ADD12C,2.000000*%
%ADD13RoundRect,0.250000X-1.050000X1.050000X-1.050000X-1.050000X1.050000X-1.050000X1.050000X1.050000X0*%
%ADD14C,2.600000*%
%ADD15RoundRect,0.250001X0.499999X-0.499999X0.499999X0.499999X-0.499999X0.499999X-0.499999X-0.499999X0*%
%ADD16C,1.500000*%
%ADD17O,1.700000X1.100000*%
%ADD18R,1.700000X1.700000*%
%ADD19C,1.700000*%
G04 APERTURE END LIST*
D10*
%TO.C,J9*%
X67085000Y-114520000D03*
D11*
X71265000Y-114520000D03*
D10*
X67085000Y-105880000D03*
D11*
X71265000Y-105880000D03*
%TD*%
D12*
%TO.C,SW1*%
X35650000Y-99580000D03*
X42150000Y-99580000D03*
X35650000Y-104080000D03*
X42150000Y-104080000D03*
%TD*%
D13*
%TO.C,J8*%
X69970000Y-88580000D03*
D14*
X69970000Y-92080000D03*
X69970000Y-95580000D03*
%TD*%
D15*
%TO.C,BT1*%
X56310000Y-100080000D03*
D16*
X59310000Y-100080000D03*
%TD*%
D17*
%TO.C,J4*%
X41100000Y-44480000D03*
X37300000Y-44480000D03*
X41100000Y-53120000D03*
X37300000Y-53120000D03*
%TD*%
D18*
%TO.C,J1*%
X35940000Y-65810000D03*
D19*
X35940000Y-68350000D03*
X35940000Y-70890000D03*
%TD*%
D13*
%TO.C,J6*%
X69962500Y-60960000D03*
D14*
X69962500Y-64460000D03*
X69962500Y-67960000D03*
%TD*%
D18*
%TO.C,J2*%
X70500000Y-117360000D03*
D19*
X67960000Y-117360000D03*
X65420000Y-117360000D03*
X62880000Y-117360000D03*
X60340000Y-117360000D03*
X57800000Y-117360000D03*
X55260000Y-117360000D03*
X52720000Y-117360000D03*
X50180000Y-117360000D03*
X47640000Y-117360000D03*
X45100000Y-117360000D03*
X42560000Y-117360000D03*
X40020000Y-117360000D03*
X37480000Y-117360000D03*
%TD*%
D17*
%TO.C,J5*%
X67250000Y-53290000D03*
X71050000Y-53290000D03*
X67250000Y-44650000D03*
X71050000Y-44650000D03*
%TD*%
D13*
%TO.C,J3*%
X70052500Y-74690000D03*
D14*
X70052500Y-78190000D03*
X70052500Y-81690000D03*
%TD*%
D12*
%TO.C,SW2*%
X35600000Y-56970000D03*
X42100000Y-56970000D03*
X35600000Y-61470000D03*
X42100000Y-61470000D03*
%TD*%
M02*
