%TF.GenerationSoftware,KiCad,Pcbnew,9.0.3*%
%TF.CreationDate,2025-08-17T12:13:03+02:00*%
%TF.ProjectId,Esp32_F103_PowerMeter_V1.0,45737033-325f-4463-9130-335f506f7765,rev?*%
%TF.SameCoordinates,Original*%
%TF.FileFunction,Copper,L1,Top*%
%TF.FilePolarity,Positive*%
%FSLAX46Y46*%
G04 Gerber Fmt 4.6, Leading zero omitted, Abs format (unit mm)*
G04 Created by KiCad (PCBNEW 9.0.3) date 2025-08-17 12:13:03*
%MOMM*%
%LPD*%
G01*
G04 APERTURE LIST*
G04 Aperture macros list*
%AMRoundRect*
0 Rectangle with rounded corners*
0 $1 Rounding radius*
0 $2 $3 $4 $5 $6 $7 $8 $9 X,Y pos of 4 corners*
0 Add a 4 corners polygon primitive as box body*
4,1,4,$2,$3,$4,$5,$6,$7,$8,$9,$2,$3,0*
0 Add four circle primitives for the rounded corners*
1,1,$1+$1,$2,$3*
1,1,$1+$1,$4,$5*
1,1,$1+$1,$6,$7*
1,1,$1+$1,$8,$9*
0 Add four rect primitives between the rounded corners*
20,1,$1+$1,$2,$3,$4,$5,0*
20,1,$1+$1,$4,$5,$6,$7,0*
20,1,$1+$1,$6,$7,$8,$9,0*
20,1,$1+$1,$8,$9,$2,$3,0*%
G04 Aperture macros list end*
%ADD10C,0.150000*%
%TA.AperFunction,NonConductor*%
%ADD11C,0.150000*%
%TD*%
%TA.AperFunction,SMDPad,CuDef*%
%ADD12RoundRect,0.150000X0.825000X0.150000X-0.825000X0.150000X-0.825000X-0.150000X0.825000X-0.150000X0*%
%TD*%
%TA.AperFunction,HeatsinkPad*%
%ADD13R,2.410000X3.300000*%
%TD*%
%TA.AperFunction,SMDPad,CuDef*%
%ADD14RoundRect,0.200000X-0.275000X0.200000X-0.275000X-0.200000X0.275000X-0.200000X0.275000X0.200000X0*%
%TD*%
%TA.AperFunction,SMDPad,CuDef*%
%ADD15RoundRect,0.200000X0.275000X-0.200000X0.275000X0.200000X-0.275000X0.200000X-0.275000X-0.200000X0*%
%TD*%
%TA.AperFunction,SMDPad,CuDef*%
%ADD16RoundRect,0.200000X-0.200000X-0.275000X0.200000X-0.275000X0.200000X0.275000X-0.200000X0.275000X0*%
%TD*%
%TA.AperFunction,SMDPad,CuDef*%
%ADD17RoundRect,0.218750X0.218750X0.256250X-0.218750X0.256250X-0.218750X-0.256250X0.218750X-0.256250X0*%
%TD*%
%TA.AperFunction,SMDPad,CuDef*%
%ADD18RoundRect,0.140000X-0.140000X-0.170000X0.140000X-0.170000X0.140000X0.170000X-0.140000X0.170000X0*%
%TD*%
%TA.AperFunction,SMDPad,CuDef*%
%ADD19RoundRect,0.150000X0.425000X-0.150000X0.425000X0.150000X-0.425000X0.150000X-0.425000X-0.150000X0*%
%TD*%
%TA.AperFunction,SMDPad,CuDef*%
%ADD20RoundRect,0.075000X0.500000X-0.075000X0.500000X0.075000X-0.500000X0.075000X-0.500000X-0.075000X0*%
%TD*%
%TA.AperFunction,HeatsinkPad*%
%ADD21O,2.100000X1.000000*%
%TD*%
%TA.AperFunction,HeatsinkPad*%
%ADD22O,1.800000X1.000000*%
%TD*%
%TA.AperFunction,SMDPad,CuDef*%
%ADD23RoundRect,0.225000X-0.250000X0.225000X-0.250000X-0.225000X0.250000X-0.225000X0.250000X0.225000X0*%
%TD*%
%TA.AperFunction,ComponentPad*%
%ADD24C,2.000000*%
%TD*%
%TA.AperFunction,SMDPad,CuDef*%
%ADD25RoundRect,0.140000X0.140000X0.170000X-0.140000X0.170000X-0.140000X-0.170000X0.140000X-0.170000X0*%
%TD*%
%TA.AperFunction,ComponentPad*%
%ADD26RoundRect,0.250000X-1.050000X1.050000X-1.050000X-1.050000X1.050000X-1.050000X1.050000X1.050000X0*%
%TD*%
%TA.AperFunction,ComponentPad*%
%ADD27C,2.600000*%
%TD*%
%TA.AperFunction,ComponentPad*%
%ADD28RoundRect,0.250001X0.499999X-0.499999X0.499999X0.499999X-0.499999X0.499999X-0.499999X-0.499999X0*%
%TD*%
%TA.AperFunction,ComponentPad*%
%ADD29C,1.500000*%
%TD*%
%TA.AperFunction,SMDPad,CuDef*%
%ADD30RoundRect,0.087500X-0.425000X-0.087500X0.425000X-0.087500X0.425000X0.087500X-0.425000X0.087500X0*%
%TD*%
%TA.AperFunction,SMDPad,CuDef*%
%ADD31RoundRect,0.087500X-0.087500X-0.425000X0.087500X-0.425000X0.087500X0.425000X-0.087500X0.425000X0*%
%TD*%
%TA.AperFunction,HeatsinkPad*%
%ADD32R,2.100000X2.100000*%
%TD*%
%TA.AperFunction,SMDPad,CuDef*%
%ADD33RoundRect,0.218750X-0.218750X-0.256250X0.218750X-0.256250X0.218750X0.256250X-0.218750X0.256250X0*%
%TD*%
%TA.AperFunction,SMDPad,CuDef*%
%ADD34RoundRect,0.225000X-0.225000X-0.250000X0.225000X-0.250000X0.225000X0.250000X-0.225000X0.250000X0*%
%TD*%
%TA.AperFunction,SMDPad,CuDef*%
%ADD35RoundRect,0.175000X-0.425000X0.175000X-0.425000X-0.175000X0.425000X-0.175000X0.425000X0.175000X0*%
%TD*%
%TA.AperFunction,SMDPad,CuDef*%
%ADD36RoundRect,0.190000X0.410000X-0.190000X0.410000X0.190000X-0.410000X0.190000X-0.410000X-0.190000X0*%
%TD*%
%TA.AperFunction,SMDPad,CuDef*%
%ADD37RoundRect,0.200000X0.400000X-0.200000X0.400000X0.200000X-0.400000X0.200000X-0.400000X-0.200000X0*%
%TD*%
%TA.AperFunction,SMDPad,CuDef*%
%ADD38RoundRect,0.175000X0.425000X-0.175000X0.425000X0.175000X-0.425000X0.175000X-0.425000X-0.175000X0*%
%TD*%
%TA.AperFunction,SMDPad,CuDef*%
%ADD39RoundRect,0.190000X-0.410000X0.190000X-0.410000X-0.190000X0.410000X-0.190000X0.410000X0.190000X0*%
%TD*%
%TA.AperFunction,SMDPad,CuDef*%
%ADD40RoundRect,0.200000X-0.400000X0.200000X-0.400000X-0.200000X0.400000X-0.200000X0.400000X0.200000X0*%
%TD*%
%TA.AperFunction,HeatsinkPad*%
%ADD41O,1.700000X1.100000*%
%TD*%
%TA.AperFunction,ComponentPad*%
%ADD42R,1.700000X1.700000*%
%TD*%
%TA.AperFunction,ComponentPad*%
%ADD43C,1.700000*%
%TD*%
%TA.AperFunction,SMDPad,CuDef*%
%ADD44RoundRect,0.200000X0.200000X0.275000X-0.200000X0.275000X-0.200000X-0.275000X0.200000X-0.275000X0*%
%TD*%
%TA.AperFunction,SMDPad,CuDef*%
%ADD45RoundRect,0.375000X0.625000X0.375000X-0.625000X0.375000X-0.625000X-0.375000X0.625000X-0.375000X0*%
%TD*%
%TA.AperFunction,SMDPad,CuDef*%
%ADD46RoundRect,0.500000X0.500000X1.400000X-0.500000X1.400000X-0.500000X-1.400000X0.500000X-1.400000X0*%
%TD*%
%TA.AperFunction,SMDPad,CuDef*%
%ADD47R,0.900000X1.500000*%
%TD*%
%TA.AperFunction,SMDPad,CuDef*%
%ADD48R,1.500000X0.900000*%
%TD*%
%TA.AperFunction,HeatsinkPad*%
%ADD49R,3.900000X3.900000*%
%TD*%
%TA.AperFunction,ViaPad*%
%ADD50C,0.600000*%
%TD*%
%TA.AperFunction,Conductor*%
%ADD51C,0.300000*%
%TD*%
%TA.AperFunction,Conductor*%
%ADD52C,1.000000*%
%TD*%
%TA.AperFunction,Conductor*%
%ADD53C,0.500000*%
%TD*%
%TA.AperFunction,Conductor*%
%ADD54C,0.600000*%
%TD*%
%TA.AperFunction,Conductor*%
%ADD55C,0.400000*%
%TD*%
G04 APERTURE END LIST*
D10*
D11*
X38198095Y-108934819D02*
X38198095Y-109744342D01*
X38198095Y-109744342D02*
X38245714Y-109839580D01*
X38245714Y-109839580D02*
X38293333Y-109887200D01*
X38293333Y-109887200D02*
X38388571Y-109934819D01*
X38388571Y-109934819D02*
X38579047Y-109934819D01*
X38579047Y-109934819D02*
X38674285Y-109887200D01*
X38674285Y-109887200D02*
X38721904Y-109839580D01*
X38721904Y-109839580D02*
X38769523Y-109744342D01*
X38769523Y-109744342D02*
X38769523Y-108934819D01*
X39150476Y-108934819D02*
X39769523Y-108934819D01*
X39769523Y-108934819D02*
X39436190Y-109315771D01*
X39436190Y-109315771D02*
X39579047Y-109315771D01*
X39579047Y-109315771D02*
X39674285Y-109363390D01*
X39674285Y-109363390D02*
X39721904Y-109411009D01*
X39721904Y-109411009D02*
X39769523Y-109506247D01*
X39769523Y-109506247D02*
X39769523Y-109744342D01*
X39769523Y-109744342D02*
X39721904Y-109839580D01*
X39721904Y-109839580D02*
X39674285Y-109887200D01*
X39674285Y-109887200D02*
X39579047Y-109934819D01*
X39579047Y-109934819D02*
X39293333Y-109934819D01*
X39293333Y-109934819D02*
X39198095Y-109887200D01*
X39198095Y-109887200D02*
X39150476Y-109839580D01*
D12*
%TO.P,U1,1,TEMP*%
%TO.N,Net-(U1-TEMP)*%
X55585000Y-108855000D03*
%TO.P,U1,2,PROG*%
%TO.N,Net-(U1-PROG)*%
X55585000Y-107585000D03*
%TO.P,U1,3,GND*%
%TO.N,GND*%
X55585000Y-106315000D03*
%TO.P,U1,4,V_{CC}*%
%TO.N,Net-(U1-CE)*%
X55585000Y-105045000D03*
%TO.P,U1,5,BAT*%
%TO.N,/BAT+*%
X50635000Y-105045000D03*
%TO.P,U1,6,~{STDBY}*%
%TO.N,Net-(D3-K)*%
X50635000Y-106315000D03*
%TO.P,U1,7,~{CHRG}*%
%TO.N,Net-(D2-K)*%
X50635000Y-107585000D03*
%TO.P,U1,8,CE*%
%TO.N,Net-(U1-CE)*%
X50635000Y-108855000D03*
D13*
%TO.P,U1,9,EPAD*%
%TO.N,GND*%
X53110000Y-106950000D03*
%TD*%
D14*
%TO.P,R20,1*%
%TO.N,+3.3V*%
X52060000Y-69990000D03*
%TO.P,R20,2*%
%TO.N,Net-(U2-IO0)*%
X52060000Y-71640000D03*
%TD*%
%TO.P,R22,1*%
%TO.N,GND*%
X56400000Y-76930000D03*
%TO.P,R22,2*%
%TO.N,/MCU_IN_BAT*%
X56400000Y-78580000D03*
%TD*%
D15*
%TO.P,R19,1*%
%TO.N,+3.3V*%
X38050000Y-94815000D03*
%TO.P,R19,2*%
%TO.N,Net-(U2-EN)*%
X38050000Y-93165000D03*
%TD*%
D16*
%TO.P,R14,1*%
%TO.N,Net-(U1-CE)*%
X53555000Y-103410000D03*
%TO.P,R14,2*%
%TO.N,Net-(D2-A)*%
X55205000Y-103410000D03*
%TD*%
D17*
%TO.P,D1,1,K*%
%TO.N,Net-(D1-K)*%
X45810000Y-111600000D03*
%TO.P,D1,2,A*%
%TO.N,+3.3V*%
X44235000Y-111600000D03*
%TD*%
D15*
%TO.P,R7,1*%
%TO.N,Net-(J9-CC2)*%
X66990000Y-104120000D03*
%TO.P,R7,2*%
%TO.N,GND*%
X66990000Y-102470000D03*
%TD*%
D14*
%TO.P,R3,1*%
%TO.N,Net-(D1-K)*%
X45840000Y-113065000D03*
%TO.P,R3,2*%
%TO.N,GND*%
X45840000Y-114715000D03*
%TD*%
%TO.P,R11,1*%
%TO.N,Net-(U4-WARNING)*%
X58155000Y-58100000D03*
%TO.P,R11,2*%
%TO.N,+3.3V*%
X58155000Y-59750000D03*
%TD*%
D18*
%TO.P,C1,1*%
%TO.N,/BAT+*%
X51410000Y-103670000D03*
%TO.P,C1,2*%
%TO.N,GND*%
X52370000Y-103670000D03*
%TD*%
D16*
%TO.P,R8,1*%
%TO.N,/INA_IN_1*%
X61840000Y-53640000D03*
%TO.P,R8,2*%
%TO.N,/INA_OUT_1*%
X63490000Y-53640000D03*
%TD*%
D14*
%TO.P,R16,1*%
%TO.N,Net-(U1-CE)*%
X59190000Y-110090000D03*
%TO.P,R16,2*%
%TO.N,VBUS*%
X59190000Y-111740000D03*
%TD*%
D19*
%TO.P,J9,A1,GND*%
%TO.N,GND*%
X66510000Y-113400000D03*
%TO.P,J9,A4,VBUS*%
%TO.N,VBUS*%
X66510000Y-112600000D03*
D20*
%TO.P,J9,A5,CC1*%
%TO.N,Net-(J9-CC1)*%
X66510000Y-111450000D03*
%TO.P,J9,A6,D+*%
%TO.N,/USB_D+*%
X66510000Y-110450000D03*
%TO.P,J9,A7,D-*%
%TO.N,/USB_D-*%
X66510000Y-109950000D03*
%TO.P,J9,A8,SBU1*%
%TO.N,unconnected-(J9-SBU1-PadA8)*%
X66510000Y-108950000D03*
D19*
%TO.P,J9,A9,VBUS*%
%TO.N,VBUS*%
X66510000Y-107800000D03*
%TO.P,J9,A12,GND*%
%TO.N,GND*%
X66510000Y-107000000D03*
%TO.P,J9,B1,GND*%
X66510000Y-107000000D03*
%TO.P,J9,B4,VBUS*%
%TO.N,VBUS*%
X66510000Y-107800000D03*
D20*
%TO.P,J9,B5,CC2*%
%TO.N,Net-(J9-CC2)*%
X66510000Y-108450000D03*
%TO.P,J9,B6,D+*%
%TO.N,/USB_D+*%
X66510000Y-109450000D03*
%TO.P,J9,B7,D-*%
%TO.N,/USB_D-*%
X66510000Y-110950000D03*
%TO.P,J9,B8,SBU2*%
%TO.N,unconnected-(J9-SBU2-PadB8)*%
X66510000Y-111950000D03*
D19*
%TO.P,J9,B9,VBUS*%
%TO.N,VBUS*%
X66510000Y-112600000D03*
%TO.P,J9,B12,GND*%
%TO.N,GND*%
X66510000Y-113400000D03*
D21*
%TO.P,J9,S1,SHIELD*%
%TO.N,unconnected-(J9-SHIELD-PadS1)*%
X67085000Y-114520000D03*
D22*
%TO.N,unconnected-(J9-SHIELD-PadS1)_1*%
X71265000Y-114520000D03*
D21*
%TO.N,unconnected-(J9-SHIELD-PadS1)_2*%
X67085000Y-105880000D03*
D22*
%TO.N,unconnected-(J9-SHIELD-PadS1)_3*%
X71265000Y-105880000D03*
%TD*%
D15*
%TO.P,R6,1*%
%TO.N,Net-(J9-CC1)*%
X71330000Y-104125000D03*
%TO.P,R6,2*%
%TO.N,GND*%
X71330000Y-102475000D03*
%TD*%
D23*
%TO.P,C12,1*%
%TO.N,+3.3V*%
X44270000Y-113090000D03*
%TO.P,C12,2*%
%TO.N,GND*%
X44270000Y-114640000D03*
%TD*%
D16*
%TO.P,R5,1*%
%TO.N,/I2C_SDA*%
X54625000Y-58700000D03*
%TO.P,R5,2*%
%TO.N,+3.3V*%
X56275000Y-58700000D03*
%TD*%
D15*
%TO.P,R17,1*%
%TO.N,GND*%
X59230000Y-105440000D03*
%TO.P,R17,2*%
%TO.N,Net-(U1-PROG)*%
X59230000Y-103790000D03*
%TD*%
D24*
%TO.P,SW1,1,1*%
%TO.N,GND*%
X35650000Y-99580000D03*
X42150000Y-99580000D03*
%TO.P,SW1,2,2*%
%TO.N,Net-(U2-EN)*%
X35650000Y-104080000D03*
X42150000Y-104080000D03*
%TD*%
D14*
%TO.P,R21,1*%
%TO.N,/MCU_IN_BAT*%
X56330000Y-79955000D03*
%TO.P,R21,2*%
%TO.N,/BAT+*%
X56330000Y-81605000D03*
%TD*%
D15*
%TO.P,R10,1*%
%TO.N,/INA_IN_3*%
X49515000Y-55300000D03*
%TO.P,R10,2*%
%TO.N,/INA_OUT_3*%
X49515000Y-53650000D03*
%TD*%
D25*
%TO.P,C3,1*%
%TO.N,+3.3V*%
X36560000Y-94060000D03*
%TO.P,C3,2*%
%TO.N,GND*%
X35600000Y-94060000D03*
%TD*%
D14*
%TO.P,R12,1*%
%TO.N,Net-(U4-CRITICAL)*%
X59715000Y-58065000D03*
%TO.P,R12,2*%
%TO.N,+3.3V*%
X59715000Y-59715000D03*
%TD*%
D26*
%TO.P,J8,1,Pin_1*%
%TO.N,/INA_IN_3*%
X69970000Y-88580000D03*
D27*
%TO.P,J8,2,Pin_2*%
%TO.N,/INA_OUT_3*%
X69970000Y-92080000D03*
%TO.P,J8,3,Pin_3*%
%TO.N,GND*%
X69970000Y-95580000D03*
%TD*%
D14*
%TO.P,R15,1*%
%TO.N,Net-(U1-CE)*%
X48520000Y-107170000D03*
%TO.P,R15,2*%
%TO.N,Net-(D3-A)*%
X48520000Y-108820000D03*
%TD*%
D16*
%TO.P,R13,1*%
%TO.N,Net-(U4-PV)*%
X49545000Y-51040000D03*
%TO.P,R13,2*%
%TO.N,Net-(U4-VPU)*%
X51195000Y-51040000D03*
%TD*%
D28*
%TO.P,BT1,1,+*%
%TO.N,/BAT+*%
X56310000Y-100080000D03*
D29*
%TO.P,BT1,2,-*%
%TO.N,GND*%
X59310000Y-100080000D03*
%TD*%
D30*
%TO.P,U4,1,IN-3*%
%TO.N,/INA_OUT_3*%
X52082500Y-54295000D03*
%TO.P,U4,2,IN+3*%
%TO.N,/INA_IN_3*%
X52082500Y-54945000D03*
%TO.P,U4,3,GND*%
%TO.N,GND*%
X52082500Y-55595000D03*
%TO.P,U4,4,VS*%
%TO.N,+3.3V*%
X52082500Y-56245000D03*
D31*
%TO.P,U4,5,A0*%
%TO.N,GND*%
X52970000Y-57132500D03*
%TO.P,U4,6,SCL*%
%TO.N,/I2C_SCL*%
X53620000Y-57132500D03*
%TO.P,U4,7,SDA*%
%TO.N,/I2C_SDA*%
X54270000Y-57132500D03*
%TO.P,U4,8,WARNING*%
%TO.N,Net-(U4-WARNING)*%
X54920000Y-57132500D03*
D30*
%TO.P,U4,9,CRITICAL*%
%TO.N,Net-(U4-CRITICAL)*%
X55807500Y-56245000D03*
%TO.P,U4,10,PV*%
%TO.N,Net-(U4-PV)*%
X55807500Y-55595000D03*
%TO.P,U4,11,IN-1*%
%TO.N,/INA_OUT_1*%
X55807500Y-54945000D03*
%TO.P,U4,12,IN+1*%
%TO.N,/INA_IN_1*%
X55807500Y-54295000D03*
D31*
%TO.P,U4,13,TC*%
%TO.N,Net-(U4-TC)*%
X54920000Y-53407500D03*
%TO.P,U4,14,IN-2*%
%TO.N,/INA_OUT_2*%
X54270000Y-53407500D03*
%TO.P,U4,15,IN+2*%
%TO.N,/INA_IN_2*%
X53620000Y-53407500D03*
%TO.P,U4,16,VPU*%
%TO.N,Net-(U4-VPU)*%
X52970000Y-53407500D03*
D32*
%TO.P,U4,17,EP*%
%TO.N,GND*%
X53945000Y-55270000D03*
%TD*%
D33*
%TO.P,D2,1,K*%
%TO.N,Net-(D2-K)*%
X54805000Y-110510000D03*
%TO.P,D2,2,A*%
%TO.N,Net-(D2-A)*%
X56380000Y-110510000D03*
%TD*%
D34*
%TO.P,C11,1*%
%TO.N,VBUS*%
X44195000Y-109330000D03*
%TO.P,C11,2*%
%TO.N,GND*%
X45745000Y-109330000D03*
%TD*%
D35*
%TO.P,J4,A5,CC1*%
%TO.N,Net-(J4-CC1)*%
X41180000Y-48300000D03*
D36*
%TO.P,J4,A9,VBUS*%
%TO.N,/INA_IN_1*%
X41180000Y-50320000D03*
D37*
%TO.P,J4,A12,GND*%
%TO.N,GND*%
X41180000Y-51550000D03*
D38*
%TO.P,J4,B5,CC2*%
%TO.N,Net-(J4-CC2)*%
X41180000Y-49300000D03*
D39*
%TO.P,J4,B9,VBUS*%
%TO.N,/INA_IN_1*%
X41180000Y-47280000D03*
D40*
%TO.P,J4,B12,GND*%
%TO.N,GND*%
X41180000Y-46050000D03*
D41*
%TO.P,J4,S1,SHIELD*%
X41100000Y-44480000D03*
X37300000Y-44480000D03*
X41100000Y-53120000D03*
X37300000Y-53120000D03*
%TD*%
D16*
%TO.P,R9,1*%
%TO.N,/INA_IN_2*%
X53195000Y-51090000D03*
%TO.P,R9,2*%
%TO.N,/INA_OUT_2*%
X54845000Y-51090000D03*
%TD*%
D42*
%TO.P,J1,1,Pin_1*%
%TO.N,/TXD0*%
X35940000Y-65810000D03*
D43*
%TO.P,J1,2,Pin_2*%
%TO.N,/RXD0*%
X35940000Y-68350000D03*
%TO.P,J1,3,Pin_3*%
%TO.N,GND*%
X35940000Y-70890000D03*
%TD*%
D26*
%TO.P,J6,1,Pin_1*%
%TO.N,/INA_IN_1*%
X69962500Y-60960000D03*
D27*
%TO.P,J6,2,Pin_2*%
%TO.N,/INA_OUT_1*%
X69962500Y-64460000D03*
%TO.P,J6,3,Pin_3*%
%TO.N,GND*%
X69962500Y-67960000D03*
%TD*%
D14*
%TO.P,R1,1*%
%TO.N,Net-(U4-TC)*%
X58215000Y-50590000D03*
%TO.P,R1,2*%
%TO.N,+3.3V*%
X58215000Y-52240000D03*
%TD*%
D25*
%TO.P,C2,1*%
%TO.N,+3.3V*%
X36590000Y-95090000D03*
%TO.P,C2,2*%
%TO.N,GND*%
X35630000Y-95090000D03*
%TD*%
D42*
%TO.P,J2,1,Pin_1*%
%TO.N,/TOUCH_IRQ*%
X70500000Y-117360000D03*
D43*
%TO.P,J2,2,Pin_2*%
%TO.N,/SPI3_MISO*%
X67960000Y-117360000D03*
%TO.P,J2,3,Pin_3*%
%TO.N,/SPI3_MOSI*%
X65420000Y-117360000D03*
%TO.P,J2,4,Pin_4*%
%TO.N,/SPI3_CS_TOUCH*%
X62880000Y-117360000D03*
%TO.P,J2,5,Pin_5*%
%TO.N,/SPI3_SCLK*%
X60340000Y-117360000D03*
%TO.P,J2,6,Pin_6*%
%TO.N,/SPI3_MISO*%
X57800000Y-117360000D03*
%TO.P,J2,7,Pin_7*%
%TO.N,+3.3V*%
X55260000Y-117360000D03*
%TO.P,J2,8,Pin_8*%
%TO.N,/SPI3_SCLK*%
X52720000Y-117360000D03*
%TO.P,J2,9,Pin_9*%
%TO.N,/SPI3_MOSI*%
X50180000Y-117360000D03*
%TO.P,J2,10,Pin_10*%
%TO.N,/LCD_DC*%
X47640000Y-117360000D03*
%TO.P,J2,11,Pin_11*%
%TO.N,/LCD_RESET*%
X45100000Y-117360000D03*
%TO.P,J2,12,Pin_12*%
%TO.N,/SPI3_CS_LCD*%
X42560000Y-117360000D03*
%TO.P,J2,13,Pin_13*%
%TO.N,GND*%
X40020000Y-117360000D03*
%TO.P,J2,14,Pin_14*%
%TO.N,+3.3V*%
X37480000Y-117360000D03*
%TD*%
D44*
%TO.P,R4,1*%
%TO.N,/I2C_SCL*%
X53270000Y-58670000D03*
%TO.P,R4,2*%
%TO.N,+3.3V*%
X51620000Y-58670000D03*
%TD*%
D33*
%TO.P,D3,1,K*%
%TO.N,Net-(D3-K)*%
X50710000Y-110460000D03*
%TO.P,D3,2,A*%
%TO.N,Net-(D3-A)*%
X52285000Y-110460000D03*
%TD*%
D14*
%TO.P,R18,1*%
%TO.N,GND*%
X59240000Y-106830000D03*
%TO.P,R18,2*%
%TO.N,Net-(U1-TEMP)*%
X59240000Y-108480000D03*
%TD*%
D38*
%TO.P,J5,A5,CC1*%
%TO.N,Net-(J4-CC1)*%
X67170000Y-49470000D03*
D39*
%TO.P,J5,A9,VBUS*%
%TO.N,/INA_OUT_1*%
X67170000Y-47450000D03*
D40*
%TO.P,J5,A12,GND*%
%TO.N,GND*%
X67170000Y-46220000D03*
D35*
%TO.P,J5,B5,CC2*%
%TO.N,Net-(J4-CC2)*%
X67170000Y-48470000D03*
D36*
%TO.P,J5,B9,VBUS*%
%TO.N,/INA_OUT_1*%
X67170000Y-50490000D03*
D37*
%TO.P,J5,B12,GND*%
%TO.N,GND*%
X67170000Y-51720000D03*
D41*
%TO.P,J5,S1,SHIELD*%
X67250000Y-53290000D03*
X71050000Y-53290000D03*
X67250000Y-44650000D03*
X71050000Y-44650000D03*
%TD*%
D15*
%TO.P,R2,1*%
%TO.N,+3.3V*%
X51960000Y-96035000D03*
%TO.P,R2,2*%
%TO.N,/USB_D+*%
X51960000Y-94385000D03*
%TD*%
D25*
%TO.P,C2,1*%
%TO.N,+3.3V*%
X36550000Y-93070000D03*
%TO.P,C2,2*%
%TO.N,GND*%
X35590000Y-93070000D03*
%TD*%
D26*
%TO.P,J3,1,Pin_1*%
%TO.N,/INA_IN_2*%
X70052500Y-74690000D03*
D27*
%TO.P,J3,2,Pin_2*%
%TO.N,/INA_OUT_2*%
X70052500Y-78190000D03*
%TO.P,J3,3,Pin_3*%
%TO.N,GND*%
X70052500Y-81690000D03*
%TD*%
D24*
%TO.P,SW2,1,1*%
%TO.N,GND*%
X35600000Y-56970000D03*
X42100000Y-56970000D03*
%TO.P,SW2,2,2*%
%TO.N,Net-(U2-IO0)*%
X35600000Y-61470000D03*
X42100000Y-61470000D03*
%TD*%
D45*
%TO.P,U3,1,GND*%
%TO.N,GND*%
X42110000Y-113910000D03*
%TO.P,U3,2,VO*%
%TO.N,+3.3V*%
X42110000Y-111610000D03*
D46*
X35810000Y-111610000D03*
D45*
%TO.P,U3,3,VI*%
%TO.N,VBUS*%
X42110000Y-109310000D03*
%TD*%
D25*
%TO.P,C3,1*%
%TO.N,+3.3V*%
X36590000Y-96090000D03*
%TO.P,C3,2*%
%TO.N,GND*%
X35630000Y-96090000D03*
%TD*%
D47*
%TO.P,U2,1,GND*%
%TO.N,GND*%
X35520000Y-91450000D03*
%TO.P,U2,2,3V3*%
%TO.N,+3.3V*%
X36790000Y-91450000D03*
%TO.P,U2,3,EN*%
%TO.N,Net-(U2-EN)*%
X38060000Y-91450000D03*
%TO.P,U2,4,IO4*%
%TO.N,unconnected-(U2-IO4-Pad4)*%
X39330000Y-91450000D03*
%TO.P,U2,5,IO5*%
%TO.N,/SPI3_CS_LCD*%
X40600000Y-91450000D03*
%TO.P,U2,6,IO6*%
%TO.N,/SPI3_CS_TOUCH*%
X41870000Y-91450000D03*
%TO.P,U2,7,IO7*%
%TO.N,/LCD_RESET*%
X43140000Y-91450000D03*
%TO.P,U2,8,IO15*%
%TO.N,unconnected-(U2-IO15-Pad8)*%
X44410000Y-91450000D03*
%TO.P,U2,9,IO16*%
%TO.N,unconnected-(U2-IO16-Pad9)*%
X45680000Y-91450000D03*
%TO.P,U2,10,IO17*%
%TO.N,unconnected-(U2-IO17-Pad10)*%
X46950000Y-91450000D03*
%TO.P,U2,11,IO18*%
%TO.N,unconnected-(U2-IO18-Pad11)*%
X48220000Y-91450000D03*
%TO.P,U2,12,IO8*%
%TO.N,/LCD_DC*%
X49490000Y-91450000D03*
%TO.P,U2,13,USB_D-*%
%TO.N,/USB_D-*%
X50760000Y-91450000D03*
%TO.P,U2,14,USB_D+*%
%TO.N,/USB_D+*%
X52030000Y-91450000D03*
D48*
%TO.P,U2,15,IO3*%
%TO.N,unconnected-(U2-IO3-Pad15)*%
X53280000Y-89685000D03*
%TO.P,U2,16,IO46*%
%TO.N,unconnected-(U2-IO46-Pad16)*%
X53280000Y-88415000D03*
%TO.P,U2,17,IO9*%
%TO.N,/TOUCH_IRQ*%
X53280000Y-87145000D03*
%TO.P,U2,18,IO10*%
%TO.N,/I2C_SCL*%
X53280000Y-85875000D03*
%TO.P,U2,19,IO11*%
%TO.N,/I2C_SDA*%
X53280000Y-84605000D03*
%TO.P,U2,20,IO12*%
%TO.N,/SPI3_MISO*%
X53280000Y-83335000D03*
%TO.P,U2,21,IO13*%
%TO.N,/SPI3_MOSI*%
X53280000Y-82065000D03*
%TO.P,U2,22,IO14*%
%TO.N,/SPI3_SCLK*%
X53280000Y-80795000D03*
%TO.P,U2,23,IO21*%
%TO.N,/MCU_IN_BAT*%
X53280000Y-79525000D03*
%TO.P,U2,24,IO47*%
%TO.N,unconnected-(U2-IO47-Pad24)*%
X53280000Y-78255000D03*
%TO.P,U2,25,IO48*%
%TO.N,unconnected-(U2-IO48-Pad25)*%
X53280000Y-76985000D03*
%TO.P,U2,26,IO45*%
%TO.N,unconnected-(U2-IO45-Pad26)*%
X53280000Y-75715000D03*
D47*
%TO.P,U2,27,IO0*%
%TO.N,Net-(U2-IO0)*%
X52030000Y-73950000D03*
%TO.P,U2,28,IO35*%
%TO.N,unconnected-(U2-IO35-Pad28)*%
X50760000Y-73950000D03*
%TO.P,U2,29,IO36*%
%TO.N,unconnected-(U2-IO36-Pad29)*%
X49490000Y-73950000D03*
%TO.P,U2,30,IO37*%
%TO.N,unconnected-(U2-IO37-Pad30)*%
X48220000Y-73950000D03*
%TO.P,U2,31,IO38*%
%TO.N,unconnected-(U2-IO38-Pad31)*%
X46950000Y-73950000D03*
%TO.P,U2,32,IO39*%
%TO.N,unconnected-(U2-IO39-Pad32)*%
X45680000Y-73950000D03*
%TO.P,U2,33,IO40*%
%TO.N,unconnected-(U2-IO40-Pad33)*%
X44410000Y-73950000D03*
%TO.P,U2,34,IO41*%
%TO.N,unconnected-(U2-IO41-Pad34)*%
X43140000Y-73950000D03*
%TO.P,U2,35,IO42*%
%TO.N,unconnected-(U2-IO42-Pad35)*%
X41870000Y-73950000D03*
%TO.P,U2,36,RXD0*%
%TO.N,/RXD0*%
X40600000Y-73950000D03*
%TO.P,U2,37,TXD0*%
%TO.N,/TXD0*%
X39330000Y-73950000D03*
%TO.P,U2,38,IO2*%
%TO.N,unconnected-(U2-IO2-Pad38)*%
X38060000Y-73950000D03*
%TO.P,U2,39,IO1*%
%TO.N,unconnected-(U2-IO1-Pad39)*%
X36790000Y-73950000D03*
%TO.P,U2,40,GND*%
%TO.N,GND*%
X35520000Y-73950000D03*
D49*
%TO.P,U2,41,GND*%
X43240000Y-84200000D03*
%TD*%
D50*
%TO.N,+3.3V*%
X37480000Y-96100000D03*
X56275000Y-58700000D03*
X52100000Y-68830000D03*
X61530000Y-50640000D03*
X35810000Y-111610000D03*
X50815000Y-96035000D03*
%TO.N,GND*%
X72480000Y-102470000D03*
X44320000Y-106940000D03*
X54180000Y-55430000D03*
X43240000Y-84200000D03*
X55680000Y-106330000D03*
X64890000Y-113660000D03*
X57853507Y-107343507D03*
X34760000Y-96070000D03*
X56350000Y-75650000D03*
X53105000Y-106945000D03*
X44160000Y-115500000D03*
%TO.N,VBUS*%
X64900000Y-112600000D03*
X63240000Y-107630000D03*
X65300000Y-107610000D03*
%TO.N,/INA_IN_1*%
X56460000Y-50140000D03*
X56473370Y-52773370D03*
%TO.N,/BAT+*%
X56320000Y-96270000D03*
X56320000Y-93240000D03*
X49110000Y-105120000D03*
%TO.N,Net-(D2-K)*%
X50635000Y-107585000D03*
X53640000Y-110500000D03*
%TO.N,Net-(D3-K)*%
X47150000Y-105940000D03*
X48840000Y-105920000D03*
%TO.N,/SPI3_MISO*%
X51700000Y-83380000D03*
%TO.N,/I2C_SCL*%
X53270000Y-58670000D03*
X50290000Y-76020000D03*
%TO.N,/I2C_SDA*%
X54625000Y-58700000D03*
X51360000Y-75940000D03*
X54500000Y-72570000D03*
X50350000Y-64600000D03*
%TO.N,/INA_IN_2*%
X53690000Y-49750000D03*
%TO.N,/INA_OUT_2*%
X54840000Y-49720000D03*
%TO.N,/INA_IN_3*%
X47930000Y-59890000D03*
X50340000Y-56930000D03*
%TO.N,/INA_OUT_3*%
X45940000Y-52430000D03*
X51020000Y-53180000D03*
%TO.N,/SPI3_CS_TOUCH*%
X61170000Y-112710000D03*
X61110000Y-110830000D03*
X44220000Y-95470000D03*
X41870000Y-95490000D03*
%TO.N,/TOUCH_IRQ*%
X57350000Y-87150000D03*
X54800000Y-87130000D03*
%TO.N,/SPI3_CS_LCD*%
X42120000Y-106950000D03*
%TO.N,/LCD_RESET*%
X43260000Y-106980000D03*
%TO.N,/SPI3_SCLK*%
X51860000Y-80760000D03*
%TO.N,/SPI3_MOSI*%
X54660000Y-93430000D03*
X62180000Y-110720000D03*
X62190000Y-112760000D03*
X54570000Y-96280000D03*
%TO.N,/LCD_DC*%
X47650000Y-115110000D03*
X45370000Y-94130000D03*
%TO.N,/USB_D+*%
X65023507Y-108906493D03*
X63910000Y-109930000D03*
%TO.N,Net-(U4-PV)*%
X57000000Y-55595000D03*
X49630000Y-52260000D03*
%TD*%
D51*
%TO.N,+3.3V*%
X55225000Y-59750000D02*
X56275000Y-58700000D01*
D52*
X35810000Y-111610000D02*
X42110000Y-111610000D01*
D53*
X36560000Y-94060000D02*
X36560000Y-93080000D01*
D51*
X61530000Y-50640000D02*
X61530000Y-50650000D01*
X52082500Y-56245000D02*
X52082500Y-58207500D01*
X42110000Y-111610000D02*
X44225000Y-111610000D01*
X56275000Y-58700000D02*
X56430000Y-58700000D01*
X57105000Y-58700000D02*
X58155000Y-59750000D01*
X44235000Y-111600000D02*
X44235000Y-113055000D01*
D53*
X37775000Y-95090000D02*
X38050000Y-94815000D01*
X36560000Y-93080000D02*
X36550000Y-93070000D01*
X36590000Y-96090000D02*
X36590000Y-95090000D01*
X36550000Y-93070000D02*
X36550000Y-91690000D01*
X36590000Y-96090000D02*
X37470000Y-96090000D01*
D51*
X52700000Y-59750000D02*
X55225000Y-59750000D01*
X56275000Y-58700000D02*
X57105000Y-58700000D01*
X61530000Y-50650000D02*
X59940000Y-52240000D01*
D53*
X50815000Y-96035000D02*
X51960000Y-96035000D01*
X36590000Y-94090000D02*
X36560000Y-94060000D01*
X36590000Y-95090000D02*
X36590000Y-94090000D01*
D51*
X44235000Y-113055000D02*
X44270000Y-113090000D01*
X44225000Y-111610000D02*
X44235000Y-111600000D01*
D53*
X37470000Y-96090000D02*
X37480000Y-96100000D01*
X36550000Y-91690000D02*
X36790000Y-91450000D01*
X36590000Y-95090000D02*
X37775000Y-95090000D01*
D51*
X59715000Y-59715000D02*
X58190000Y-59715000D01*
X59940000Y-52240000D02*
X58215000Y-52240000D01*
X51620000Y-58670000D02*
X52700000Y-59750000D01*
X52082500Y-58207500D02*
X51620000Y-58670000D01*
X52060000Y-69990000D02*
X52060000Y-68870000D01*
X52060000Y-68870000D02*
X52100000Y-68830000D01*
X58190000Y-59715000D02*
X58155000Y-59750000D01*
%TO.N,GND*%
X45745000Y-108155000D02*
X45745000Y-109330000D01*
D53*
X35520000Y-93000000D02*
X35590000Y-93070000D01*
X41180000Y-46050000D02*
X41180000Y-44560000D01*
D51*
X44270000Y-114640000D02*
X45765000Y-114640000D01*
X55585000Y-106315000D02*
X53745000Y-106315000D01*
X66510000Y-113400000D02*
X65150000Y-113400000D01*
D53*
X35630000Y-96090000D02*
X34780000Y-96090000D01*
D51*
X44320000Y-106940000D02*
X44530000Y-106940000D01*
D53*
X71330000Y-102475000D02*
X72475000Y-102475000D01*
D51*
X56400000Y-75700000D02*
X56350000Y-75650000D01*
D53*
X67170000Y-46370000D02*
X67170000Y-44880000D01*
X35590000Y-94050000D02*
X35600000Y-94060000D01*
X67170000Y-53360000D02*
X67250000Y-53440000D01*
D51*
X57853507Y-107343507D02*
X58726493Y-107343507D01*
X35940000Y-73530000D02*
X35520000Y-73950000D01*
D53*
X41180000Y-53040000D02*
X41100000Y-53120000D01*
D51*
X44270000Y-114810000D02*
X44270000Y-114640000D01*
X44530000Y-106940000D02*
X45745000Y-108155000D01*
X35650000Y-99580000D02*
X35650000Y-96110000D01*
D53*
X35630000Y-94090000D02*
X35600000Y-94060000D01*
D51*
X53620000Y-55595000D02*
X53945000Y-55270000D01*
X65684000Y-106232496D02*
X65684000Y-103776000D01*
X45765000Y-114640000D02*
X45840000Y-114715000D01*
D53*
X35630000Y-95090000D02*
X35630000Y-94090000D01*
D51*
X58726493Y-107343507D02*
X59240000Y-106830000D01*
X55665000Y-106315000D02*
X55585000Y-106315000D01*
D53*
X72475000Y-102475000D02*
X72480000Y-102470000D01*
X35520000Y-91450000D02*
X35520000Y-93000000D01*
X41180000Y-44560000D02*
X41100000Y-44480000D01*
D51*
X53945000Y-55270000D02*
X54020000Y-55270000D01*
X53745000Y-106315000D02*
X53110000Y-106950000D01*
D53*
X34780000Y-96090000D02*
X34760000Y-96070000D01*
D51*
X54020000Y-55270000D02*
X54180000Y-55430000D01*
X66451504Y-107000000D02*
X65684000Y-106232496D01*
X52082500Y-55595000D02*
X53620000Y-55595000D01*
X43540000Y-113910000D02*
X42110000Y-113910000D01*
D53*
X71325000Y-102470000D02*
X71330000Y-102475000D01*
D51*
X52370000Y-103670000D02*
X52370000Y-106210000D01*
X43540000Y-113910000D02*
X44270000Y-114640000D01*
D53*
X35590000Y-93070000D02*
X35590000Y-94050000D01*
D51*
X52370000Y-106210000D02*
X53105000Y-106945000D01*
X53105000Y-106945000D02*
X53110000Y-106950000D01*
X35940000Y-70890000D02*
X35940000Y-73530000D01*
X52970000Y-55970001D02*
X52594999Y-55595000D01*
X44160000Y-115500000D02*
X44160000Y-114920000D01*
X56400000Y-76930000D02*
X56400000Y-75700000D01*
X55680000Y-106330000D02*
X55665000Y-106315000D01*
X65150000Y-113400000D02*
X64890000Y-113660000D01*
X59240000Y-105450000D02*
X59230000Y-105440000D01*
D53*
X66990000Y-102470000D02*
X71325000Y-102470000D01*
D51*
X59240000Y-106830000D02*
X59240000Y-105450000D01*
X52594999Y-55595000D02*
X52082500Y-55595000D01*
D53*
X67170000Y-51870000D02*
X67170000Y-53360000D01*
D51*
X35650000Y-96110000D02*
X35630000Y-96090000D01*
X65684000Y-103776000D02*
X66990000Y-102470000D01*
D53*
X67170000Y-44880000D02*
X67250000Y-44800000D01*
X41180000Y-51550000D02*
X41180000Y-53040000D01*
D51*
X66510000Y-107000000D02*
X66451504Y-107000000D01*
X52970000Y-57132500D02*
X52970000Y-55970001D01*
X44160000Y-114920000D02*
X44270000Y-114810000D01*
D53*
X35630000Y-96090000D02*
X35630000Y-95090000D01*
D54*
%TO.N,VBUS*%
X64040000Y-111740000D02*
X64900000Y-112600000D01*
D52*
X42110000Y-109310000D02*
X44175000Y-109310000D01*
D54*
X46156000Y-110306000D02*
X43106000Y-110306000D01*
X59190000Y-111740000D02*
X47590000Y-111740000D01*
X47590000Y-111740000D02*
X46156000Y-110306000D01*
X43106000Y-110306000D02*
X42110000Y-109310000D01*
D53*
X66510000Y-112600000D02*
X64900000Y-112600000D01*
D51*
X63240000Y-111420000D02*
X63560000Y-111740000D01*
X65490000Y-107800000D02*
X65300000Y-107610000D01*
D52*
X44175000Y-109310000D02*
X44195000Y-109330000D01*
D51*
X66510000Y-107800000D02*
X65490000Y-107800000D01*
X63240000Y-107630000D02*
X63240000Y-111420000D01*
D54*
X63560000Y-111740000D02*
X64040000Y-111740000D01*
X59190000Y-111740000D02*
X63560000Y-111740000D01*
D51*
%TO.N,Net-(D1-K)*%
X45810000Y-113035000D02*
X45840000Y-113065000D01*
X45810000Y-111600000D02*
X45810000Y-113035000D01*
%TO.N,Net-(J4-CC2)*%
X38820000Y-43910000D02*
X39780000Y-42950000D01*
X41180000Y-49300000D02*
X40580000Y-49300000D01*
X51138000Y-47208000D02*
X56396463Y-47208000D01*
X56396463Y-47208000D02*
X57928462Y-48740000D01*
X39780000Y-42950000D02*
X46880000Y-42950000D01*
X46880000Y-42950000D02*
X51138000Y-47208000D01*
X66900000Y-48740000D02*
X67170000Y-48470000D01*
X57928462Y-48740000D02*
X66900000Y-48740000D01*
X40580000Y-49300000D02*
X38820000Y-47540000D01*
X38820000Y-47540000D02*
X38820000Y-43910000D01*
D53*
%TO.N,/INA_IN_1*%
X69962500Y-60960000D02*
X50526076Y-60960000D01*
X42231000Y-47731000D02*
X42231000Y-49869000D01*
X50526076Y-60960000D02*
X47160000Y-57593924D01*
X41869146Y-50101000D02*
X42231000Y-49739146D01*
X41180000Y-47280000D02*
X41780000Y-47280000D01*
X41780000Y-47280000D02*
X42231000Y-47731000D01*
X41399000Y-50101000D02*
X41869146Y-50101000D01*
X55807500Y-54295000D02*
X56473370Y-53629130D01*
X42231000Y-49739146D02*
X42231000Y-49269000D01*
X56473370Y-52773370D02*
X57230000Y-53530000D01*
X61730000Y-53530000D02*
X61840000Y-53640000D01*
X42231000Y-49869000D02*
X41780000Y-50320000D01*
X42231000Y-49269000D02*
X43190000Y-48310000D01*
X56460000Y-48830000D02*
X56460000Y-50140000D01*
X43190000Y-48310000D02*
X47160000Y-48310000D01*
X69920000Y-60530000D02*
X69849000Y-60601000D01*
X41180000Y-50320000D02*
X41399000Y-50101000D01*
X55940000Y-48310000D02*
X56460000Y-48830000D01*
X47160000Y-57593924D02*
X47160000Y-48310000D01*
X47160000Y-48310000D02*
X55940000Y-48310000D01*
X57230000Y-53530000D02*
X61730000Y-53530000D01*
X56473370Y-53629130D02*
X56473370Y-52773370D01*
X41780000Y-50320000D02*
X41180000Y-50320000D01*
D51*
%TO.N,Net-(J4-CC1)*%
X50930480Y-47709000D02*
X56188942Y-47709000D01*
X39899000Y-43539520D02*
X39987520Y-43451000D01*
X39987520Y-43451000D02*
X46672480Y-43451000D01*
X41180000Y-48300000D02*
X40829646Y-48300000D01*
X46672480Y-43451000D02*
X50930480Y-47709000D01*
X40829646Y-48300000D02*
X39899000Y-47369354D01*
X65160000Y-49470000D02*
X67170000Y-49470000D01*
X57849942Y-49370000D02*
X65060000Y-49370000D01*
X39899000Y-47369354D02*
X39899000Y-43539520D01*
X56188942Y-47709000D02*
X57849942Y-49370000D01*
X65060000Y-49370000D02*
X65160000Y-49470000D01*
D53*
%TO.N,/INA_OUT_1*%
X71713500Y-59225208D02*
X70628292Y-58140000D01*
X68221000Y-50018000D02*
X67749000Y-50490000D01*
X67640146Y-47450000D02*
X68221000Y-48030854D01*
X71713500Y-62709000D02*
X71713500Y-59225208D01*
D55*
X55807500Y-54945000D02*
X56363268Y-54945000D01*
D53*
X67749000Y-50490000D02*
X67170000Y-50490000D01*
X63490000Y-53640000D02*
X66490000Y-50640000D01*
D55*
X60720000Y-54181000D02*
X61484000Y-54945000D01*
D53*
X70628292Y-58140000D02*
X67990000Y-58140000D01*
X62185000Y-54945000D02*
X63490000Y-53640000D01*
D55*
X56363268Y-54945000D02*
X57010000Y-54298268D01*
X57010000Y-54181000D02*
X60720000Y-54181000D01*
D53*
X68221000Y-48030854D02*
X68221000Y-50018000D01*
D55*
X61484000Y-54945000D02*
X62185000Y-54945000D01*
D53*
X67020000Y-50640000D02*
X67170000Y-50490000D01*
X69962500Y-64460000D02*
X71713500Y-62709000D01*
X67170000Y-47450000D02*
X67640146Y-47450000D01*
X67990000Y-58140000D02*
X63490000Y-53640000D01*
D55*
X57010000Y-54298268D02*
X57010000Y-54181000D01*
D53*
X66490000Y-50640000D02*
X67020000Y-50640000D01*
D51*
%TO.N,/BAT+*%
X51410000Y-103670000D02*
X51410000Y-104270000D01*
X51410000Y-104270000D02*
X50635000Y-105045000D01*
X56320000Y-96270000D02*
X56310000Y-96280000D01*
X56330000Y-93230000D02*
X56320000Y-93240000D01*
X56310000Y-96280000D02*
X56310000Y-100080000D01*
X50635000Y-105045000D02*
X49185000Y-105045000D01*
X56330000Y-81605000D02*
X56330000Y-93230000D01*
X49185000Y-105045000D02*
X49110000Y-105120000D01*
%TO.N,Net-(D2-A)*%
X56077000Y-102538000D02*
X60116521Y-102538000D01*
X60567000Y-109972774D02*
X59698774Y-110841000D01*
X55205000Y-103410000D02*
X56077000Y-102538000D01*
X59698774Y-110841000D02*
X56711000Y-110841000D01*
X56711000Y-110841000D02*
X56380000Y-110510000D01*
X60567000Y-102988480D02*
X60567000Y-109972774D01*
X60116521Y-102538000D02*
X60567000Y-102988480D01*
%TO.N,Net-(D2-K)*%
X54805000Y-110510000D02*
X53650000Y-110510000D01*
X53650000Y-110510000D02*
X53640000Y-110500000D01*
%TO.N,Net-(D3-K)*%
X49235000Y-106315000D02*
X50635000Y-106315000D01*
X48900226Y-110460000D02*
X47150000Y-108709774D01*
X47150000Y-108709774D02*
X47150000Y-105940000D01*
X50710000Y-110460000D02*
X48900226Y-110460000D01*
X48840000Y-105920000D02*
X49235000Y-106315000D01*
%TO.N,Net-(D3-A)*%
X51331000Y-109506000D02*
X52285000Y-110460000D01*
X48520000Y-108820000D02*
X49206000Y-109506000D01*
X49206000Y-109506000D02*
X51331000Y-109506000D01*
%TO.N,/TXD0*%
X35940000Y-65810000D02*
X39330000Y-69200000D01*
X39330000Y-69200000D02*
X39330000Y-73950000D01*
%TO.N,/RXD0*%
X39870000Y-75730000D02*
X40600000Y-75000000D01*
X35940000Y-68350000D02*
X34660000Y-69630000D01*
X34660000Y-75730000D02*
X39870000Y-75730000D01*
X34660000Y-69630000D02*
X34660000Y-75730000D01*
X40600000Y-75000000D02*
X40600000Y-73950000D01*
%TO.N,/SPI3_MISO*%
X66769000Y-118571000D02*
X59011000Y-118571000D01*
X67970000Y-117370000D02*
X66769000Y-118571000D01*
X59011000Y-118571000D02*
X57810000Y-117370000D01*
X51745000Y-83335000D02*
X51700000Y-83380000D01*
X53280000Y-83335000D02*
X51745000Y-83335000D01*
%TO.N,/I2C_SCL*%
X53620000Y-58320000D02*
X53270000Y-58670000D01*
X50290000Y-83599174D02*
X50290000Y-76020000D01*
X53620000Y-57132500D02*
X53620000Y-58320000D01*
X52565826Y-85875000D02*
X50290000Y-83599174D01*
X53280000Y-85875000D02*
X52565826Y-85875000D01*
%TO.N,/I2C_SDA*%
X54500000Y-68750000D02*
X50350000Y-64600000D01*
X54270000Y-58345000D02*
X54625000Y-58700000D01*
X54500000Y-72570000D02*
X54500000Y-68750000D01*
X53280000Y-84605000D02*
X52004346Y-84605000D01*
X51049000Y-76251000D02*
X51360000Y-75940000D01*
X52004346Y-84605000D02*
X51049000Y-83649654D01*
X54270000Y-57132500D02*
X54270000Y-58345000D01*
X51049000Y-83649654D02*
X51049000Y-76251000D01*
%TO.N,/INA_IN_2*%
X53195000Y-51090000D02*
X53195000Y-50245000D01*
X53620000Y-51515000D02*
X53620000Y-53407500D01*
X53195000Y-51090000D02*
X53620000Y-51515000D01*
X53195000Y-50245000D02*
X53690000Y-49750000D01*
%TO.N,/INA_OUT_2*%
X54845000Y-49725000D02*
X54840000Y-49720000D01*
X54845000Y-51090000D02*
X54845000Y-49725000D01*
X54845000Y-51090000D02*
X54270000Y-51665000D01*
X54270000Y-51665000D02*
X54270000Y-53407500D01*
D53*
%TO.N,/INA_IN_3*%
X68169000Y-86779000D02*
X68169000Y-80129000D01*
X69970000Y-88580000D02*
X68169000Y-86779000D01*
X50340000Y-56930000D02*
X50340000Y-56125000D01*
X50340000Y-56125000D02*
X49515000Y-55300000D01*
X49846000Y-54969000D02*
X51765136Y-54969000D01*
X68169000Y-80129000D02*
X47930000Y-59890000D01*
X49515000Y-55300000D02*
X49846000Y-54969000D01*
%TO.N,/INA_OUT_3*%
X49778000Y-54268000D02*
X52055500Y-54268000D01*
X51020000Y-53180000D02*
X49985000Y-53180000D01*
X49515000Y-53650000D02*
X49515000Y-54005000D01*
X57490000Y-70512075D02*
X45940000Y-58962075D01*
X57490000Y-79600000D02*
X57490000Y-70512075D01*
X52055500Y-54268000D02*
X52082500Y-54295000D01*
X49985000Y-53180000D02*
X49515000Y-53650000D01*
X69970000Y-92080000D02*
X57490000Y-79600000D01*
X45940000Y-58962075D02*
X45940000Y-52430000D01*
X49515000Y-54005000D02*
X49778000Y-54268000D01*
D51*
%TO.N,/SPI3_CS_TOUCH*%
X61110000Y-102822957D02*
X61110000Y-110830000D01*
X61290000Y-115770000D02*
X62890000Y-117370000D01*
X44220000Y-95470000D02*
X50787000Y-102037000D01*
X61290000Y-112830000D02*
X61290000Y-115770000D01*
X41870000Y-91450000D02*
X41870000Y-95490000D01*
X60324043Y-102037000D02*
X61110000Y-102822957D01*
X50787000Y-102037000D02*
X60324043Y-102037000D01*
X61170000Y-112710000D02*
X61290000Y-112830000D01*
%TO.N,/TOUCH_IRQ*%
X73719000Y-101449000D02*
X73719000Y-114161000D01*
X53280000Y-87145000D02*
X54785000Y-87145000D01*
X70860000Y-100660000D02*
X72930000Y-100660000D01*
X73719000Y-114161000D02*
X70510000Y-117370000D01*
X54785000Y-87145000D02*
X54800000Y-87130000D01*
X72930000Y-100660000D02*
X73719000Y-101449000D01*
X57350000Y-87150000D02*
X70860000Y-100660000D01*
%TO.N,/SPI3_CS_LCD*%
X40600000Y-91450000D02*
X40600000Y-95977976D01*
X40600000Y-95977976D02*
X43601000Y-98978976D01*
X43601000Y-98978976D02*
X43601000Y-105469000D01*
X43601000Y-105469000D02*
X42120000Y-106950000D01*
%TO.N,/LCD_RESET*%
X43140000Y-91450000D02*
X43140000Y-97526612D01*
X43140000Y-97526612D02*
X44302000Y-98688612D01*
X44302000Y-98688612D02*
X44302000Y-105938000D01*
X44302000Y-105938000D02*
X43260000Y-106980000D01*
%TO.N,/SPI3_SCLK*%
X53280000Y-80795000D02*
X51895000Y-80795000D01*
X51895000Y-80795000D02*
X51860000Y-80760000D01*
%TO.N,/SPI3_MOSI*%
X68208471Y-115910000D02*
X66890000Y-115910000D01*
X55829000Y-92261000D02*
X55829000Y-83564000D01*
X54660000Y-93430000D02*
X55829000Y-92261000D01*
X54570000Y-100196870D02*
X54570000Y-96280000D01*
X62180000Y-110720000D02*
X62180000Y-103184437D01*
X51892000Y-119072000D02*
X67966471Y-119072000D01*
X55829000Y-83564000D02*
X54330000Y-82065000D01*
X50190000Y-117370000D02*
X51892000Y-119072000D01*
X55909130Y-101536000D02*
X54570000Y-100196870D01*
X60531563Y-101536000D02*
X55909130Y-101536000D01*
X69171000Y-116872529D02*
X68208471Y-115910000D01*
X66890000Y-115910000D02*
X65430000Y-117370000D01*
X62190000Y-114130000D02*
X62190000Y-112760000D01*
X69171000Y-117867471D02*
X69171000Y-116872529D01*
X65430000Y-117370000D02*
X62190000Y-114130000D01*
X67966471Y-119072000D02*
X69171000Y-117867471D01*
X62180000Y-103184437D02*
X60531563Y-101536000D01*
X54330000Y-82065000D02*
X53280000Y-82065000D01*
%TO.N,/LCD_DC*%
X47650000Y-115110000D02*
X47650000Y-117370000D01*
X45370000Y-94130000D02*
X47860000Y-94130000D01*
X47860000Y-94130000D02*
X49959000Y-92031000D01*
X49959000Y-92031000D02*
X49959000Y-91680000D01*
%TO.N,/USB_D+*%
X64780000Y-99320000D02*
X64590000Y-99510000D01*
X64590000Y-108640000D02*
X65400000Y-109450000D01*
X51960000Y-94385000D02*
X59845000Y-94385000D01*
X64430000Y-110450000D02*
X63910000Y-109930000D01*
X52030000Y-94315000D02*
X51960000Y-94385000D01*
X64590000Y-99510000D02*
X64590000Y-108640000D01*
X64570000Y-110450000D02*
X64430000Y-110450000D01*
X65400000Y-109450000D02*
X66510000Y-109450000D01*
X64728534Y-110450000D02*
X64570000Y-110450000D01*
X66510000Y-110450000D02*
X64728534Y-110450000D01*
X59845000Y-94385000D02*
X64780000Y-99320000D01*
X52030000Y-91450000D02*
X52030000Y-94315000D01*
%TO.N,/USB_D-*%
X68020000Y-110580000D02*
X67650000Y-110950000D01*
X67650000Y-110950000D02*
X66510000Y-110950000D01*
X67550000Y-109950000D02*
X68020000Y-110420000D01*
X68020000Y-110420000D02*
X68020000Y-110580000D01*
X63970000Y-99730000D02*
X59524000Y-95284000D01*
X66510000Y-109950000D02*
X67550000Y-109950000D01*
X66510000Y-109950000D02*
X65147774Y-109950000D01*
X51599226Y-95284000D02*
X50760000Y-94444774D01*
X63970000Y-108772226D02*
X63970000Y-99730000D01*
X50760000Y-94444774D02*
X50760000Y-91450000D01*
X59524000Y-95284000D02*
X51599226Y-95284000D01*
X65147774Y-109950000D02*
X63970000Y-108772226D01*
%TO.N,Net-(J9-CC1)*%
X70605000Y-104125000D02*
X71330000Y-104125000D01*
X69490000Y-105240000D02*
X70605000Y-104125000D01*
X69490000Y-110880000D02*
X69490000Y-105240000D01*
X68920000Y-111450000D02*
X69490000Y-110880000D01*
X66510000Y-111450000D02*
X68920000Y-111450000D01*
%TO.N,Net-(J9-CC2)*%
X66990000Y-104120000D02*
X67465000Y-104120000D01*
X68486000Y-105141000D02*
X68486000Y-107714000D01*
X67465000Y-104120000D02*
X68486000Y-105141000D01*
X68486000Y-107714000D02*
X67750000Y-108450000D01*
X67750000Y-108450000D02*
X66510000Y-108450000D01*
%TO.N,Net-(U4-TC)*%
X57737500Y-50590000D02*
X54920000Y-53407500D01*
X58215000Y-50590000D02*
X57737500Y-50590000D01*
%TO.N,Net-(U4-WARNING)*%
X57187500Y-57132500D02*
X58155000Y-58100000D01*
X54920000Y-57132500D02*
X57187500Y-57132500D01*
%TO.N,Net-(U4-CRITICAL)*%
X57895000Y-56245000D02*
X59715000Y-58065000D01*
X55807500Y-56245000D02*
X57895000Y-56245000D01*
%TO.N,Net-(U4-VPU)*%
X52970000Y-52880000D02*
X52970000Y-53407500D01*
X51195000Y-51040000D02*
X51195000Y-51105000D01*
X51195000Y-51105000D02*
X52970000Y-52880000D01*
D53*
%TO.N,Net-(U4-PV)*%
X49545000Y-51040000D02*
X49545000Y-52175000D01*
X57000000Y-55595000D02*
X55807500Y-55595000D01*
X49545000Y-52175000D02*
X49630000Y-52260000D01*
D51*
%TO.N,Net-(U1-CE)*%
X48110000Y-105150000D02*
X48110000Y-106760000D01*
X53555000Y-103410000D02*
X53154000Y-103009000D01*
X50251000Y-103009000D02*
X48110000Y-105150000D01*
X60066000Y-103196000D02*
X60066000Y-109214000D01*
X55585000Y-105045000D02*
X57591000Y-103039000D01*
X50205000Y-108855000D02*
X50635000Y-108855000D01*
X51609999Y-108855000D02*
X52388999Y-109634000D01*
X48110000Y-106760000D02*
X48520000Y-107170000D01*
X53154000Y-103009000D02*
X50251000Y-103009000D01*
X58734000Y-109634000D02*
X59190000Y-110090000D01*
X48520000Y-107170000D02*
X50205000Y-108855000D01*
X57591000Y-103039000D02*
X59909000Y-103039000D01*
X50635000Y-108855000D02*
X51609999Y-108855000D01*
X52388999Y-109634000D02*
X58734000Y-109634000D01*
X59909000Y-103039000D02*
X60066000Y-103196000D01*
X60066000Y-109214000D02*
X59190000Y-110090000D01*
%TO.N,Net-(U1-PROG)*%
X56692774Y-107585000D02*
X58404000Y-105873774D01*
X58404000Y-105873774D02*
X58404000Y-104616000D01*
X58404000Y-104616000D02*
X59230000Y-103790000D01*
X55585000Y-107585000D02*
X56692774Y-107585000D01*
%TO.N,Net-(U1-TEMP)*%
X58865000Y-108855000D02*
X59240000Y-108480000D01*
X55585000Y-108855000D02*
X58865000Y-108855000D01*
D53*
%TO.N,Net-(U2-EN)*%
X38060000Y-93155000D02*
X38050000Y-93165000D01*
D51*
X35650000Y-104080000D02*
X38876000Y-100854000D01*
X38876000Y-100806000D02*
X38876000Y-100750000D01*
X38876000Y-100854000D02*
X38876000Y-100750000D01*
X38876000Y-93991000D02*
X38050000Y-93165000D01*
D53*
X38060000Y-91450000D02*
X38060000Y-93155000D01*
D51*
X42150000Y-104080000D02*
X38876000Y-100806000D01*
X38876000Y-100750000D02*
X38876000Y-93991000D01*
%TO.N,Net-(U2-IO0)*%
X42100000Y-61470000D02*
X52060000Y-71430000D01*
X52060000Y-71640000D02*
X52060000Y-73920000D01*
X35600000Y-61470000D02*
X42100000Y-61470000D01*
X52060000Y-73920000D02*
X52030000Y-73950000D01*
X52060000Y-71430000D02*
X52060000Y-71640000D01*
%TO.N,/MCU_IN_BAT*%
X56400000Y-79885000D02*
X56330000Y-79955000D01*
X56175000Y-79955000D02*
X55745000Y-79525000D01*
X55745000Y-79525000D02*
X53280000Y-79525000D01*
X56330000Y-79955000D02*
X56175000Y-79955000D01*
X56400000Y-78580000D02*
X56400000Y-79885000D01*
%TD*%
M02*
