%TF.GenerationSoftware,KiCad,Pcbnew,9.0.3*%
%TF.CreationDate,2025-08-17T12:13:03+02:00*%
%TF.ProjectId,Esp32_F103_PowerMeter_V1.0,45737033-325f-4463-9130-335f506f7765,rev?*%
%TF.SameCoordinates,Original*%
%TF.FileFunction,Legend,Bot*%
%TF.FilePolarity,Positive*%
%FSLAX46Y46*%
G04 Gerber Fmt 4.6, Leading zero omitted, Abs format (unit mm)*
G04 Created by KiCad (PCBNEW 9.0.3) date 2025-08-17 12:13:03*
%MOMM*%
%LPD*%
G01*
G04 APERTURE LIST*
%ADD10C,0.400000*%
G04 APERTURE END LIST*
D10*
X61342557Y-44692057D02*
X61437795Y-44596819D01*
X61437795Y-44596819D02*
X61628271Y-44501580D01*
X61628271Y-44501580D02*
X61818747Y-44501580D01*
X61818747Y-44501580D02*
X62009223Y-44596819D01*
X62009223Y-44596819D02*
X62104462Y-44692057D01*
X62104462Y-44692057D02*
X62199700Y-44882533D01*
X62199700Y-44882533D02*
X62199700Y-45073009D01*
X62199700Y-45073009D02*
X62104462Y-45263485D01*
X62104462Y-45263485D02*
X62009223Y-45358723D01*
X62009223Y-45358723D02*
X61818747Y-45453961D01*
X61818747Y-45453961D02*
X61628271Y-45453961D01*
X61628271Y-45453961D02*
X61437795Y-45358723D01*
X61437795Y-45358723D02*
X61342557Y-45263485D01*
X61342557Y-44501580D02*
X61342557Y-45263485D01*
X61342557Y-45263485D02*
X61247319Y-45358723D01*
X61247319Y-45358723D02*
X61152081Y-45358723D01*
X61152081Y-45358723D02*
X60961604Y-45263485D01*
X60961604Y-45263485D02*
X60866366Y-45073009D01*
X60866366Y-45073009D02*
X60866366Y-44596819D01*
X60866366Y-44596819D02*
X61056843Y-44311104D01*
X61056843Y-44311104D02*
X61342557Y-44120628D01*
X61342557Y-44120628D02*
X61723509Y-44025390D01*
X61723509Y-44025390D02*
X62104462Y-44120628D01*
X62104462Y-44120628D02*
X62390176Y-44311104D01*
X62390176Y-44311104D02*
X62580652Y-44596819D01*
X62580652Y-44596819D02*
X62675890Y-44977771D01*
X62675890Y-44977771D02*
X62580652Y-45358723D01*
X62580652Y-45358723D02*
X62390176Y-45644438D01*
X62390176Y-45644438D02*
X62104462Y-45834914D01*
X62104462Y-45834914D02*
X61723509Y-45930152D01*
X61723509Y-45930152D02*
X61342557Y-45834914D01*
X61342557Y-45834914D02*
X61056843Y-45644438D01*
X60009223Y-44596819D02*
X59342556Y-44596819D01*
X59056842Y-45644438D02*
X60009223Y-45644438D01*
X60009223Y-45644438D02*
X60009223Y-43644438D01*
X60009223Y-43644438D02*
X59056842Y-43644438D01*
X58199699Y-45644438D02*
X58199699Y-44311104D01*
X58199699Y-44501580D02*
X58104461Y-44406342D01*
X58104461Y-44406342D02*
X57913985Y-44311104D01*
X57913985Y-44311104D02*
X57628270Y-44311104D01*
X57628270Y-44311104D02*
X57437794Y-44406342D01*
X57437794Y-44406342D02*
X57342556Y-44596819D01*
X57342556Y-44596819D02*
X57342556Y-45644438D01*
X57342556Y-44596819D02*
X57247318Y-44406342D01*
X57247318Y-44406342D02*
X57056842Y-44311104D01*
X57056842Y-44311104D02*
X56771128Y-44311104D01*
X56771128Y-44311104D02*
X56580651Y-44406342D01*
X56580651Y-44406342D02*
X56485413Y-44596819D01*
X56485413Y-44596819D02*
X56485413Y-45644438D01*
X55533032Y-45644438D02*
X55533032Y-44311104D01*
X55533032Y-44692057D02*
X55437794Y-44501580D01*
X55437794Y-44501580D02*
X55342556Y-44406342D01*
X55342556Y-44406342D02*
X55152080Y-44311104D01*
X55152080Y-44311104D02*
X54961603Y-44311104D01*
X53533032Y-45549200D02*
X53723508Y-45644438D01*
X53723508Y-45644438D02*
X54104461Y-45644438D01*
X54104461Y-45644438D02*
X54294937Y-45549200D01*
X54294937Y-45549200D02*
X54390175Y-45358723D01*
X54390175Y-45358723D02*
X54390175Y-44596819D01*
X54390175Y-44596819D02*
X54294937Y-44406342D01*
X54294937Y-44406342D02*
X54104461Y-44311104D01*
X54104461Y-44311104D02*
X53723508Y-44311104D01*
X53723508Y-44311104D02*
X53533032Y-44406342D01*
X53533032Y-44406342D02*
X53437794Y-44596819D01*
X53437794Y-44596819D02*
X53437794Y-44787295D01*
X53437794Y-44787295D02*
X54390175Y-44977771D01*
X51723508Y-45549200D02*
X51913984Y-45644438D01*
X51913984Y-45644438D02*
X52294937Y-45644438D01*
X52294937Y-45644438D02*
X52485413Y-45549200D01*
X52485413Y-45549200D02*
X52580651Y-45453961D01*
X52580651Y-45453961D02*
X52675889Y-45263485D01*
X52675889Y-45263485D02*
X52675889Y-44692057D01*
X52675889Y-44692057D02*
X52580651Y-44501580D01*
X52580651Y-44501580D02*
X52485413Y-44406342D01*
X52485413Y-44406342D02*
X52294937Y-44311104D01*
X52294937Y-44311104D02*
X51913984Y-44311104D01*
X51913984Y-44311104D02*
X51723508Y-44406342D01*
X50009222Y-45644438D02*
X50009222Y-44596819D01*
X50009222Y-44596819D02*
X50104460Y-44406342D01*
X50104460Y-44406342D02*
X50294936Y-44311104D01*
X50294936Y-44311104D02*
X50675889Y-44311104D01*
X50675889Y-44311104D02*
X50866365Y-44406342D01*
X50009222Y-45549200D02*
X50199698Y-45644438D01*
X50199698Y-45644438D02*
X50675889Y-45644438D01*
X50675889Y-45644438D02*
X50866365Y-45549200D01*
X50866365Y-45549200D02*
X50961603Y-45358723D01*
X50961603Y-45358723D02*
X50961603Y-45168247D01*
X50961603Y-45168247D02*
X50866365Y-44977771D01*
X50866365Y-44977771D02*
X50675889Y-44882533D01*
X50675889Y-44882533D02*
X50199698Y-44882533D01*
X50199698Y-44882533D02*
X50009222Y-44787295D01*
X49056841Y-44311104D02*
X49056841Y-45644438D01*
X49056841Y-44501580D02*
X48961603Y-44406342D01*
X48961603Y-44406342D02*
X48771127Y-44311104D01*
X48771127Y-44311104D02*
X48485412Y-44311104D01*
X48485412Y-44311104D02*
X48294936Y-44406342D01*
X48294936Y-44406342D02*
X48199698Y-44596819D01*
X48199698Y-44596819D02*
X48199698Y-45644438D01*
X47247317Y-45644438D02*
X47247317Y-43644438D01*
X47247317Y-44406342D02*
X47056841Y-44311104D01*
X47056841Y-44311104D02*
X46675888Y-44311104D01*
X46675888Y-44311104D02*
X46485412Y-44406342D01*
X46485412Y-44406342D02*
X46390174Y-44501580D01*
X46390174Y-44501580D02*
X46294936Y-44692057D01*
X46294936Y-44692057D02*
X46294936Y-45263485D01*
X46294936Y-45263485D02*
X46390174Y-45453961D01*
X46390174Y-45453961D02*
X46485412Y-45549200D01*
X46485412Y-45549200D02*
X46675888Y-45644438D01*
X46675888Y-45644438D02*
X47056841Y-45644438D01*
X47056841Y-45644438D02*
X47247317Y-45549200D01*
X45152079Y-45644438D02*
X45342555Y-45549200D01*
X45342555Y-45549200D02*
X45437793Y-45358723D01*
X45437793Y-45358723D02*
X45437793Y-43644438D01*
X35444438Y-80113633D02*
X37444438Y-80780299D01*
X37444438Y-80780299D02*
X35444438Y-81446966D01*
X37444438Y-83161252D02*
X37444438Y-82018395D01*
X37444438Y-82589823D02*
X35444438Y-82589823D01*
X35444438Y-82589823D02*
X35730152Y-82399347D01*
X35730152Y-82399347D02*
X35920628Y-82208871D01*
X35920628Y-82208871D02*
X36015866Y-82018395D01*
X37253961Y-84018395D02*
X37349200Y-84113633D01*
X37349200Y-84113633D02*
X37444438Y-84018395D01*
X37444438Y-84018395D02*
X37349200Y-83923157D01*
X37349200Y-83923157D02*
X37253961Y-84018395D01*
X37253961Y-84018395D02*
X37444438Y-84018395D01*
X35444438Y-85351728D02*
X35444438Y-85542205D01*
X35444438Y-85542205D02*
X35539676Y-85732681D01*
X35539676Y-85732681D02*
X35634914Y-85827919D01*
X35634914Y-85827919D02*
X35825390Y-85923157D01*
X35825390Y-85923157D02*
X36206342Y-86018395D01*
X36206342Y-86018395D02*
X36682533Y-86018395D01*
X36682533Y-86018395D02*
X37063485Y-85923157D01*
X37063485Y-85923157D02*
X37253961Y-85827919D01*
X37253961Y-85827919D02*
X37349200Y-85732681D01*
X37349200Y-85732681D02*
X37444438Y-85542205D01*
X37444438Y-85542205D02*
X37444438Y-85351728D01*
X37444438Y-85351728D02*
X37349200Y-85161252D01*
X37349200Y-85161252D02*
X37253961Y-85066014D01*
X37253961Y-85066014D02*
X37063485Y-84970776D01*
X37063485Y-84970776D02*
X36682533Y-84875538D01*
X36682533Y-84875538D02*
X36206342Y-84875538D01*
X36206342Y-84875538D02*
X35825390Y-84970776D01*
X35825390Y-84970776D02*
X35634914Y-85066014D01*
X35634914Y-85066014D02*
X35539676Y-85161252D01*
X35539676Y-85161252D02*
X35444438Y-85351728D01*
M02*
